<?xml version="1.0" encoding="UTF-8"?>
<svg width="40px" height="40px" viewBox="0 0 40 40" version="1.1" xmlns="http://www.w3.org/2000/svg" xmlns:xlink="http://www.w3.org/1999/xlink">
    <!-- Generator: Sketch 43 (38999) - http://www.bohemiancoding.com/sketch -->
    <title>add_picture</title>
    <desc>Created with Sketch.</desc>
    <defs></defs>
    <g id="02_shop_0714" stroke="none" stroke-width="1" fill="none" fill-rule="evenodd">
        <g id="11_联系客服" transform="translate(-324.000000, -411.000000)">
            <path d="M-0.5,410.5 L375.50133,410.5" id="Line-Copy" stroke="#F5F5F5" stroke-linecap="square"></path>
            <rect id="Rectangle-2-Copy" fill="#FF7819" x="312" y="411" width="64" height="40"></rect>
            <g id="add_picture" transform="translate(334.000000, 421.000000)" fill="#FFFFFF">
                <path d="M6.42857143,2.85714286 C5.24428571,2.85714286 4.28571429,3.81571429 4.28571429,5 C4.28571429,6.18285714 5.24428571,7.14285714 6.42857143,7.14285714 C7.60857143,7.14285714 8.57142857,6.18285714 8.57142857,5 C8.57142857,3.81571429 7.60857143,2.85714286 6.42857143,2.85714286 Z M15.7142857,0 L4.28571429,0 C1.92285714,0 0,1.92285714 0,4.28571429 L0,15.7142857 C0,15.9671429 0.0314285714,16.2128571 0.0757142857,16.4542857 L0,16.5285714 C0.0585714286,16.7471429 0.152857143,16.95 0.264285714,17.1442857 C0.857142857,18.8028571 2.42571429,20 4.28571429,20 L15.7142857,20 C17.8185714,20 19.5628571,18.4742857 19.9228571,16.4728571 C19.97,16.28 20,16.08 20,15.8728571 L20,4.28571429 C20,1.92285714 18.0771429,0 15.7142857,0 Z M18.5714286,10.9 C17.9985714,10.08 17.48,9.35 17.1285714,8.87571429 C15.6928571,6.93714286 13.9828571,6.34 12.2457143,8.56714286 L10.0114286,11.71 C8.39285714,10.0914286 6.34,9.92285714 4.64285714,11.8628571 L1.42857143,15.0928571 L1.42857143,4.28571429 C1.42857143,2.71428571 2.71428571,1.42857143 4.28571429,1.42857143 L15.7142857,1.42857143 C17.2857143,1.42857143 18.5714286,2.71428571 18.5714286,4.28571429 L18.5714286,10.9 Z" id="Shape"></path>
            </g>
        </g>
    </g>
</svg>