<?xml version="1.0" encoding="UTF-8"?>
<svg width="32px" height="32px" viewBox="0 0 32 32" version="1.1" xmlns="http://www.w3.org/2000/svg" xmlns:xlink="http://www.w3.org/1999/xlink">
    <!-- Generator: Sketch 43 (38999) - http://www.bohemiancoding.com/sketch -->
    <title>call</title>
    <desc>Created with Sketch.</desc>
    <defs></defs>
    <g id="Symbols" stroke="none" stroke-width="1" fill="none" fill-rule="evenodd">
        <g id="call" fill-rule="nonzero" fill="#FF7819">
            <g transform="translate(6.000000, 9.000000)" id="Shape">
                <path d="M14.5553202,19.7866066 C13.2795499,19.7866066 11.6322213,18.936588 10.4748597,18.2231663 C8.92515335,17.2681017 7.2555535,15.9470466 5.7734032,14.5031286 L5.29754128,14.0272667 C3.85362325,12.5454875 2.53219696,10.8758877 1.57750358,9.32581015 C0.864081867,8.16844859 0.0140632737,6.52112 0.0140632737,5.24534974 C0.0140632737,3.8797522 0.990285499,2.43063754 1.41046936,1.87088731 C1.73785645,1.43400003 2.88222645,0.0086413555 3.8547368,0.00864132992 C4.25413419,0.00864132992 4.6839689,0.269957084 5.24928693,0.856061611 C5.74927604,1.37461008 6.22884985,2.0186198 6.54287417,2.46775624 C6.96528514,3.07093537 7.35577404,3.70232473 7.64233054,4.24574274 C8.10705685,5.12545629 8.160879,5.50295363 8.160879,5.71044726 C8.160879,6.12877519 7.94187857,6.49179624 7.51130148,6.78911714 C7.2277145,6.98473276 6.88696468,7.13209407 6.55735049,7.27462992 C6.33538056,7.37039621 5.98089683,7.5240677 5.8454135,7.63171197 C5.89255427,7.83178184 6.09893432,8.31469634 6.65645744,9.13316402 C7.17611946,9.89595363 7.84796821,10.7225874 8.45485923,11.3458107 C9.07845366,11.9527017 9.90471627,12.6245504 10.6678771,13.1442124 C11.4859736,13.7017355 11.968888,13.9081156 12.1689579,13.9552564 C12.2766022,13.8201442 12.4302737,13.4652893 12.5260399,13.2433194 C12.6685758,12.9137052 12.8159371,12.5733266 13.0119239,12.2893684 C13.3088737,11.8587913 13.6718947,11.6397909 14.0902226,11.6397909 C14.2977163,11.6397909 14.6748424,11.6939842 15.5549272,12.1583394 C16.0983452,12.445267 16.7301057,12.8353847 17.3329136,13.2577957 C17.7820501,13.5721912 18.426431,14.051765 18.9446083,14.5513829 C19.5307128,15.116701 19.7920285,15.5465357 19.7920285,15.9459331 C19.7920285,16.9184435 18.3666699,18.0628135 17.9301538,18.3905717 C17.3704035,18.8100132 15.9209177,19.7866066 14.5556913,19.7866066 L14.5553202,19.7866066 Z M6.59112852,13.6694423 C8.01277532,15.0539704 9.60962248,16.3182338 11.0876897,17.2291271 C12.5204721,18.1125525 13.7847356,18.6188518 14.5556913,18.6188518 C15.2423876,18.6188518 16.2208369,18.1994103 17.1740455,17.4971242 C17.5920023,17.1890389 17.9720979,16.8464331 18.2449205,16.5316664 C18.5010396,16.2362014 18.5942076,16.0435553 18.6179636,15.965606 C18.5192278,15.753287 17.9320097,15.0888619 16.5608443,14.1430771 C16.0233653,13.7722611 15.467327,13.4315113 14.9955481,13.1835583 C14.4031334,12.8721323 14.1566651,12.8183101 14.0998735,12.8094016 C14.0776023,12.8242491 14.0133869,12.8784424 13.9153935,13.0428783 C13.8055221,13.2269872 13.7001049,13.4708571 13.5980285,13.7069322 C13.4725672,13.9972005 13.3422805,14.2974909 13.1830412,14.5398761 C12.9239526,14.9340769 12.6058452,15.1337756 12.2372563,15.1341468 L12.216841,15.1341468 C12.0375576,15.1304349 11.4915414,15.1185569 10.0101334,14.1096702 C9.19203691,13.5521471 8.30378604,12.8298169 7.6345356,12.1765275 L7.62377118,12.1665055 C6.97048179,11.4965127 6.24852276,10.6082618 5.69137084,9.79053647 C4.68174179,8.30875734 4.67060616,7.76311223 4.66652309,7.58382882 C4.65835698,7.2089298 4.85657092,6.8848834 5.25485476,6.62134054 C5.49835353,6.46024532 5.80087107,6.32921624 6.09373772,6.20264143 C6.32981276,6.10056496 6.57368271,5.99477662 6.75779153,5.88527639 C6.92222744,5.78728299 6.97604959,5.72269642 6.99089708,5.70079639 C6.98235977,5.64437593 6.92853765,5.3975365 6.61711161,4.80512176 C6.36915859,4.33371407 6.0280376,3.77730453 5.65722161,3.23982555 C4.71143673,1.8686602 4.04738292,1.28144212 3.83469269,1.18270632 C3.75674338,1.2064623 3.56446844,1.30000146 3.26900345,1.55574941 C2.95423675,1.82820079 2.61125982,2.2090388 2.30354565,2.62662435 C1.60125954,3.57946179 1.18181806,4.5582823 1.18181808,5.24497857 C1.18181808,6.0159343 1.68811737,7.27982657 2.57117161,8.71298015 C3.48243609,10.1910474 4.74632834,11.7878946 6.13085645,13.2095414 L6.59112852,13.6694423 L6.59112852,13.6694423 Z"></path>
                <path d="M16.2699286,8.64577687 C15.9566553,8.64534136 15.6888147,8.40823557 15.6344743,8.0832411 C15.4764513,7.13879487 14.9564323,6.31830725 14.1719208,5.77229927 C13.3762021,5.21920793 12.4034078,5.0137909 11.432855,5.19382594 C11.2023205,5.24413261 10.9640571,5.1583671 10.8109593,4.96996777 C10.6578615,4.78156844 10.6141663,4.52036097 10.6969097,4.28818527 C10.779653,4.05600957 10.9757358,3.8896216 11.2087089,3.8538929 C12.5059547,3.61187857 13.8110455,3.89049019 14.8841452,4.63660269 C15.9678917,5.38979854 16.6862801,6.53021733 16.907064,7.84653925 C16.9403998,8.04488598 16.8886143,8.24859884 16.7656439,8.40285586 C16.6426734,8.55711287 16.4611517,8.64606605 16.2699286,8.64577687 L16.2699286,8.64577687 Z"></path>
                <path d="M19.3260911,7.72125966 C19.0128177,7.72082415 18.7449772,7.48371836 18.6906368,7.15872389 C18.3835566,5.32590798 17.3782612,3.73510639 15.8591108,2.67850719 C14.3293134,1.61482464 12.4610554,1.21933779 10.5995217,1.56524122 C10.3689873,1.61554762 10.1307241,1.529782 9.97762648,1.34138274 C9.82452881,1.15298347 9.78083365,0.8917762 9.86357688,0.659600621 C9.94632012,0.427425041 10.1424026,0.26103705 10.3753756,0.225308135 C12.5636022,-0.181984282 14.7641569,0.28669712 16.5713351,1.54281062 C18.3891603,2.80718798 19.5939458,4.71733044 19.9632265,6.92261235 C19.9963761,7.12086872 19.9445047,7.3244125 19.8215561,7.47852814 C19.6986076,7.63264377 19.5171973,7.72151783 19.3260911,7.72125966 L19.3260911,7.72125966 Z"></path>
            </g>
        </g>
    </g>
</svg>