<?xml version="1.0" encoding="UTF-8"?>
<svg width="48px" height="48px" viewBox="0 0 48 48" version="1.1" xmlns="http://www.w3.org/2000/svg" xmlns:xlink="http://www.w3.org/1999/xlink">
    <!-- Generator: Sketch 43 (38999) - http://www.bohemiancoding.com/sketch -->
    <title>payment_zhifubao_36</title>
    <desc>Created with Sketch.</desc>
    <defs></defs>
    <g id="02_shop_0714" stroke="none" stroke-width="1" fill="none" fill-rule="evenodd">
        <g id="08_收银台" transform="translate(-20.000000, -287.000000)" fill="#459BFF">
            <g id="payment_zhifubao_36" transform="translate(26.000000, 293.000000)">
                <path d="M20.1186523,22.971783 C20.1186523,22.971783 17.5141469,25.0563391 16.5664813,25.6025135 C15.7334052,26.0823377 14.9516496,26.4011819 14.255759,26.6228973 C13.558636,26.8439965 12.9478916,26.9830993 12.4235942,27.0407192 C11.8992968,27.0983392 11.4652468,27.1346641 11.1207595,27.1515427 C11.0881663,27.167223 11.0468429,27.1759533 10.9979875,27.1759533 L10.6045762,27.1759533 C9.70323257,27.1759533 8.85512667,27.0695121 8.06022425,26.8559107 C7.26473982,26.6429256 6.57258104,26.3272654 5.98254966,25.9094434 C5.39251829,25.4916558 4.92519044,24.9667422 4.58135355,24.3359694 C4.23748241,23.7045804 4.06523872,22.971064 4.06523872,22.1355228 C4.08153529,21.414537 4.27818958,20.7587031 4.65465383,20.168706 C5.03235058,19.5786746 5.51967253,19.0787879 6.11788644,18.6685322 C6.71610035,18.2582766 7.38001402,17.9475463 8.10976441,17.7339792 C8.83889858,17.5210284 9.57234651,17.4314315 10.3102452,17.4640246 C11.0312311,17.4965835 11.7277379,17.5824143 12.3998683,17.7214829 C13.0719645,17.8611335 13.7158841,18.0290291 14.3297783,18.2257519 C14.9442545,18.4224404 15.5261376,18.635357 16.075496,18.8652549 C16.624786,19.0951186 17.1447353,19.316252 17.6364053,19.5292371 C17.8330596,19.6112677 18.0378964,19.693401 18.2508473,19.7753973 C18.4638324,19.8574279 18.6849658,19.939527 18.9148637,20.0215575 C19.3902713,19.4152296 19.7911462,18.821398 20.119337,18.2388986 C20.4469458,17.6569813 20.7175509,17.1246042 20.930536,16.641014 C21.1441374,16.1574238 21.3081985,15.7522009 21.4228907,15.4239759 C21.5375144,15.0963671 21.6107805,14.8671196 21.6439899,14.7355831 L10.9729264,14.7355832 L10.9729264,13.5554863 L16.0134253,13.5554863 L16.0134253,10.8270106 L9.00610954,10.8270106 L9.00610954,9.64691361 L16.0133911,9.64691361 L16.0133911,7.43390227 C16.0133911,7.28671967 16.0948054,7.16767946 16.2589351,7.0775006 C16.4230305,6.98728749 16.611605,6.92590151 16.8245559,6.89334262 C17.0707161,6.84387093 17.3488532,6.81946033 17.6601312,6.81946033 L19.5530315,6.81946033 L19.5530315,9.64691364 L26.7563854,9.64691364 L26.7563854,10.8270106 L19.5530315,10.8270106 L19.5530315,13.5554863 L25.2775067,13.5554863 C25.2787392,13.5473723 25.280006,13.5391897 25.2812385,13.5311099 L25.2812385,13.5554863 L25.2775067,13.5554863 C25.1616163,14.2858529 24.966845,15.0562763 24.6912414,15.8668248 C24.4619939,16.5715141 24.1218888,17.3745306 23.6708233,18.2758742 C23.2198605,19.1772178 22.6260289,20.1036225 21.8881986,21.0544721 C21.8881986,21.0544721 27.530609,23.7535729 33.4867966,24.7037719 C34.4758541,22.5102069 35.027027,20.0754459 35.027027,17.5129486 C35.0270612,7.84100813 27.1854368,0 17.5135306,0 C7.84100813,0 0,7.84100813 0,17.5128801 C0,27.1847863 7.84100813,35.0264449 17.5135306,35.0264449 C23.5129589,35.0264449 28.8077663,32.0091504 31.9640609,27.4096515 C28.7570278,26.7106454 25.3501222,25.295652 20.1186523,22.971783 L20.1186523,22.971783 L20.1186523,22.971783 Z M6.35086566,22.185063 C6.2850974,25.1904091 9.68505302,25.4133912 10.2093504,25.4296878 C11.9425375,25.4828912 13.3418849,24.8283241 14.4311525,24.181289 C15.5210363,23.5336034 17.2986967,21.8618023 17.3650812,21.804148 C17.4302332,21.7465281 17.4960015,21.6857583 17.5611535,21.6199901 C17.0857458,21.3575333 16.6184865,21.1157211 16.1599574,20.8946219 C15.7014625,20.6735228 13.3694795,19.4207418 11.300501,19.2071747 C7.38254753,18.800685 6.37092824,21.2711547 6.35086566,22.185063 L6.35086566,22.185063 L6.35086566,22.185063 Z" id="Shape"></path>
            </g>
        </g>
    </g>
</svg>