<?xml version="1.0" encoding="UTF-8"?>
<svg width="32px" height="32px" viewBox="0 0 32 32" version="1.1" xmlns="http://www.w3.org/2000/svg" xmlns:xlink="http://www.w3.org/1999/xlink">
    <!-- Generator: Sketch 43 (38999) - http://www.bohemiancoding.com/sketch -->
    <title>purchase_24</title>
    <desc>Created with Sketch.</desc>
    <defs></defs>
    <g id="Symbols" stroke="none" stroke-width="1" fill="none" fill-rule="evenodd">
        <g id="purchase_24" fill-rule="nonzero" fill="#FFFFFF">
            <g transform="translate(5.000000, 5.000000)" id="Shape">
                <path d="M20.4492703,5.41176971 C18.4879426,2.08552549 14.9159721,0 10.9825639,0 C4.91674132,0 0,4.91711906 0,10.9822114 C0,17.0476563 4.91674134,21.9647753 10.9825639,21.9647753 C17.0480592,21.9647753 21.9647753,17.0476563 21.9647753,10.9822114 C21.9647753,10.6033226 21.6578567,10.2960766 21.2783132,10.2960766 C20.8990718,10.2960766 20.5918258,10.6033226 20.5918258,10.9822114 C20.5918258,16.2895764 16.2896016,20.5918258 10.9825388,20.5918258 C5.67514857,20.5918258 1.37294955,16.2895512 1.37294955,10.9822114 C1.37294955,5.67519894 5.67517374,1.37292437 10.9825388,1.37292437 C14.4249477,1.37292437 17.5493579,3.19736257 19.2664199,6.10893426 C19.4591884,6.43562075 19.8799298,6.54405459 20.2062637,6.3516135 C20.5329502,6.15917242 20.6417114,5.7384562 20.4492703,5.41176971 Z M10.2961018,9.95266921 L10.2961018,10.9822114 L7.45209347,10.9822114 C7.07322979,10.9822114 6.76563128,11.2898099 6.76563128,11.6686736 C6.76563128,12.047915 7.07322979,12.3551861 7.45209347,12.3551861 L10.2961018,12.3551861 L10.2961018,13.7281357 L7.45209347,13.7281357 C7.07322979,13.7281357 6.76563128,14.0353817 6.76563128,14.4142705 C6.76563128,14.7934867 7.07322979,15.1007327 7.45209347,15.1007327 L10.2961018,15.1007327 L10.2961018,17.8462541 C10.2961018,18.2254703 10.6030204,18.5327163 10.9825639,18.5327163 C11.3618053,18.5327163 11.6686988,18.2254703 11.6686988,17.8462541 L11.6686988,15.1007327 L14.6633208,15.1007327 C15.042537,15.1007327 15.349783,14.7934867 15.349783,14.4142705 C15.349783,14.0353817 15.042537,13.7281357 14.6633208,13.7281357 L11.6686988,13.7281357 L11.6686988,12.3551861 L14.6633208,12.3551861 C15.042537,12.3551861 15.349783,12.047915 15.349783,11.6686736 C15.349783,11.2898099 15.042537,10.9822114 14.6633208,10.9822114 L11.6686988,10.9822114 L11.6686988,9.95266921 C11.6686988,9.89109913 11.6606657,9.83116591 11.645632,9.77460706 C11.8852894,9.68390138 12.1098376,9.54232801 12.302606,9.34953436 L15.2426334,6.4091796 C15.5107213,6.14109169 15.5107213,5.70665129 15.2426334,5.4385382 C14.9752003,5.17045029 14.5408102,5.17045029 14.2727223,5.4385382 L11.3319898,8.37889296 C11.1402286,8.57035194 10.8239171,8.57002457 10.6328107,8.37889296 L7.6921034,5.43856338 C7.42401549,5.17047546 6.98960026,5.17047546 6.72214191,5.43856338 C6.45405399,5.70665129 6.45405399,6.14109169 6.72214191,6.40920478 L9.6621693,9.34955953 C9.85463556,9.54202579 10.0795111,9.68359919 10.3194959,9.77427967 C10.3041348,9.83116591 10.2961018,9.89109915 10.2961018,9.95266921 Z"></path>
            </g>
        </g>
    </g>
</svg>