<?xml version="1.0" encoding="UTF-8"?>
<svg width="24px" height="24px" viewBox="0 0 24 24" version="1.1" xmlns="http://www.w3.org/2000/svg" xmlns:xlink="http://www.w3.org/1999/xlink">
    <!-- Generator: Sketch 43 (38999) - http://www.bohemiancoding.com/sketch -->
    <title>shop_loaction</title>
    <desc>Created with Sketch.</desc>
    <defs>
        <path d="M5.44196791,13.9338182 C5.38616079,13.9778777 5.31889959,14 5.25162157,14 C5.18434354,14 5.11708235,13.9778777 5.06127523,13.9338182 C4.85463078,13.7711733 0,9.27819868 0,5.25053203 C0,2.35527336 2.3560091,0 5.25160475,0 C8.14720041,0 10.5032095,2.35527336 10.5032095,5.25053203 C10.5032431,9.2781987 5.64862918,13.7711733 5.44196791,13.9338182 L5.44196791,13.9338182 Z M5.25163838,2.79803844 C3.89818958,2.79803844 2.80103639,3.89548819 2.80103639,5.24915254 C2.80103639,6.60290101 3.89818958,7.70026664 5.25163838,7.70026664 C6.60508719,7.70026664 7.70224038,6.60283371 7.70224038,5.24915254 C7.70222356,3.89548819 6.60501991,2.79803844 5.25163838,2.79803844 L5.25163838,2.79803844 Z" id="path-1"></path>
        <filter x="-2.4%" y="-1.8%" width="104.8%" height="107.1%" filterUnits="objectBoundingBox" id="filter-2">
            <feOffset dx="0" dy="0.5" in="SourceAlpha" result="shadowOffsetOuter1"></feOffset>
            <feComposite in="shadowOffsetOuter1" in2="SourceAlpha" operator="out" result="shadowOffsetOuter1"></feComposite>
            <feColorMatrix values="0 0 0 0 1   0 0 0 0 1   0 0 0 0 1  0 0 0 0.4 0" type="matrix" in="shadowOffsetOuter1"></feColorMatrix>
        </filter>
    </defs>
    <g id="02_shop_0714" stroke="none" stroke-width="1" fill="none" fill-rule="evenodd">
        <g id="03_店铺详情" transform="translate(-15.000000, -355.000000)">
            <g id="shop_loaction" transform="translate(21.000000, 360.000000)">
                <g id="Shape">
                    <use fill="black" fill-opacity="1" filter="url(#filter-2)" xlink:href="#path-1"></use>
                    <use fill-opacity="0.600000024" fill="#000000" fill-rule="evenodd" xlink:href="#path-1"></use>
                    <use fill-opacity="0.100000001" fill="#000000" fill-rule="evenodd" style="mix-blend-mode: soft-light;" xlink:href="#path-1"></use>
                </g>
            </g>
        </g>
    </g>
</svg>