<svg width="32" height="32" viewBox="0 0 32 32" xmlns="http://www.w3.org/2000/svg"><title>add_picture copy</title><path d="M12.429 8.857a2.142 2.142 0 1 0-.003 4.284 2.142 2.142 0 0 0 .003-4.284zM21.714 6H10.286A4.29 4.29 0 0 0 6 10.286v11.428c0 .253.031.499.076.74L6 22.53c.059.218.153.421.264.615C6.857 24.803 8.426 26 10.286 26h11.428a4.284 4.284 0 0 0 4.209-3.527 2.52 2.52 0 0 0 .077-.6V10.286A4.29 4.29 0 0 0 21.714 6zm2.857 10.9a99.688 99.688 0 0 0-1.442-2.024c-1.436-1.939-3.146-2.536-4.883-.309L16.01 17.71c-1.618-1.619-3.671-1.787-5.368.153l-3.214 3.23V10.286a2.866 2.866 0 0 1 2.857-2.857h11.428a2.866 2.866 0 0 1 2.857 2.857V16.9z" fill="#FFF" fill-rule="evenodd"/></svg>