<svg width="32" height="32" viewBox="0 0 32 32" xmlns="http://www.w3.org/2000/svg"><title>call</title><g fill="#FF7819"><path d="M20.555 28.787c-1.275 0-2.923-.85-4.08-1.564-1.55-.955-3.22-2.276-4.702-3.72l-.475-.476c-1.444-1.482-2.766-3.151-3.72-4.701-.714-1.158-1.564-2.805-1.564-4.08 0-1.366.976-2.815 1.396-3.375.328-.437 1.472-1.862 2.445-1.862.4 0 .829.261 1.394.847.5.519.98 1.163 1.294 1.612a17.3 17.3 0 0 1 1.1 1.778c.464.88.518 1.257.518 1.464 0 .419-.22.782-.65 1.08-.283.195-.624.342-.954.485-.222.095-.576.25-.712.357.048.2.254.683.811 1.501a17.43 17.43 0 0 0 1.799 2.213c.623.607 1.45 1.279 2.213 1.798.818.558 1.3.764 1.501.811.108-.135.261-.49.357-.712.143-.33.29-.67.486-.954.297-.43.66-.65 1.078-.65.208 0 .585.055 1.465.52.543.286 1.175.676 1.778 1.099.45.314 1.093.794 1.612 1.293.586.566.847.996.847 1.395 0 .972-1.425 2.117-1.862 2.445-.56.419-2.01 1.396-3.374 1.396zm-7.964-6.118c1.422 1.385 3.019 2.65 4.497 3.56 1.432.884 2.697 1.39 3.468 1.39.686 0 1.665-.42 2.618-1.122a6.72 6.72 0 0 0 1.07-.965c.257-.296.35-.488.374-.566-.099-.213-.686-.877-2.057-1.823a15.932 15.932 0 0 0-1.565-.96c-.593-.31-.84-.365-.896-.374-.022.015-.087.07-.185.234-.11.184-.215.428-.317.664-.125.29-.256.59-.415.833-.259.394-.577.594-.946.594h-.02c-.18-.004-.725-.015-2.207-1.024a18.615 18.615 0 0 1-2.375-1.933l-.011-.01a18.66 18.66 0 0 1-1.933-2.376c-1.01-1.482-1.02-2.028-1.024-2.207-.009-.375.19-.7.588-.963.243-.16.546-.292.839-.418.236-.102.48-.208.664-.318.164-.098.218-.162.233-.184-.009-.057-.062-.303-.374-.896a15.984 15.984 0 0 0-.96-1.565c-.946-1.371-1.61-1.959-1.822-2.057-.078.023-.27.117-.566.373a6.766 6.766 0 0 0-.965 1.07c-.703.953-1.122 1.932-1.122 2.619 0 .77.506 2.035 1.39 3.468.91 1.478 2.174 3.075 3.559 4.497l.46.46zm9.679-5.023a.657.657 0 0 1-.636-.563 3.497 3.497 0 0 0-1.462-2.31 3.608 3.608 0 0 0-2.74-.58.628.628 0 0 1-.621-.223.71.71 0 0 1-.114-.682.654.654 0 0 1 .512-.434 4.836 4.836 0 0 1 3.675.783 4.85 4.85 0 0 1 2.023 3.21.707.707 0 0 1-.141.556.633.633 0 0 1-.496.243z"/><path d="M25.326 16.721a.657.657 0 0 1-.635-.562 6.775 6.775 0 0 0-2.832-4.48c-1.53-1.064-3.398-1.46-5.26-1.114a.628.628 0 0 1-.621-.224.71.71 0 0 1-.114-.681.654.654 0 0 1 .511-.435 8.159 8.159 0 0 1 6.196 1.318 8.13 8.13 0 0 1 3.392 5.38.707.707 0 0 1-.141.556.633.633 0 0 1-.496.242z"/></g></svg>