<svg width="32" height="32" viewBox="0 0 32 32" xmlns="http://www.w3.org/2000/svg"><title>click_add</title><g fill="none" fill-rule="evenodd"><path stroke="#979797" d="M-171.5-81.5h390v358h-390z"/><g fill-rule="nonzero" fill="#FF7819"><path d="M17.33 12.834l.062-.062c.616-1.17.616-2.462 0-3.632-.616-1.11-1.849-1.787-3.14-1.787-.616 0-1.232.185-1.787.493a3.496 3.496 0 0 0-1.786 2.28c-.247.924-.062 1.848.431 2.646l.062.123h-1.54v-.061c-.493-1.294-.493-2.585 0-3.756C10.434 7.23 12.218 6 14.251 6c.616 0 1.294.123 1.91.37 1.232.492 2.218 1.417 2.708 2.647a4.588 4.588 0 0 1 0 3.817v.061h-1.54v-.061z"/><path d="M22.256 16.96c-.123-.617-.677-1.11-1.232-1.11-.37 0-.677.185-.862.432v-.124c0-.739-.555-1.293-1.17-1.293-.617 0-1.171.616-1.171 1.293v-.675c0-.74-.555-1.294-1.17-1.294-.617 0-1.171.616-1.171 1.294v-4.249c0-.739-.555-1.293-1.17-1.293-.617 0-1.11.616-1.11 1.293v7.512c0 .37-.246.678-.616.678H12.4l-1.663-.74c-.185-.123-.37-.061-.554-.123-.617-.185-1.171.616-1.171 1.294 0 .431.493.985.74 1.232l4.494 4.618h6.898c.185-.862.863-4.125 1.109-6.158.066-.986.128-1.91.004-2.588z"/></g></g></svg>