<svg width="24" height="24" viewBox="0 0 24 24" xmlns="http://www.w3.org/2000/svg"><title>code</title><g fill="#FFF" fill-rule="evenodd"><path d="M10.715 3H3.57a.557.557 0 0 0-.57.543v6.804c0 .3.255.543.57.543h7.145c.315 0 .57-.243.57-.543V3.543c0-.3-.255-.543-.57-.543zm-.958 6.406H4.528V4.484h5.229v4.922z"/><path d="M5.7 7.444c0 .56.477 1.015 1.066 1.015.588 0 1.066-.455 1.066-1.015 0-.561-.478-1.015-1.066-1.015-.589 0-1.066.454-1.066 1.015zM19.715 3H12.57a.557.557 0 0 0-.57.543v6.804c0 .3.255.543.57.543h7.145c.315 0 .57-.243.57-.543V3.543c0-.3-.255-.543-.57-.543zm-.958 6.406h-5.229V4.484h5.229v4.922z"/><path d="M15.6 7.444c0 .56.477 1.015 1.066 1.015.588 0 1.066-.455 1.066-1.015 0-.561-.478-1.015-1.066-1.015-.589 0-1.066.454-1.066 1.015zM10.715 12.429H3.57a.557.557 0 0 0-.57.542v6.805c0 .3.255.543.57.543h7.145c.315 0 .57-.243.57-.543V12.97c0-.3-.255-.542-.57-.542zm-.958 6.406H4.528v-4.922h5.229v4.922z"/><path d="M5.7 16.015c0 .56.477 1.015 1.066 1.015.588 0 1.066-.454 1.066-1.015 0-.56-.478-1.015-1.066-1.015-.589 0-1.066.454-1.066 1.015zM15.6 18.429h1.75v1.735H15.6zM19.2 20.164h1.18c.314 0 .57-.243.57-.542v-1.193H19.2v1.735z"/><path d="M19.748 12.429h-.951v3.025h-1.67V12.43H12.57a.557.557 0 0 0-.57.542v6.808c0 .3.255.543.57.543h.98v-4.446h1.6v1.12h5.168v-4.025c0-.3-.255-.542-.57-.542z"/></g></svg>