<svg width="24" height="24" viewBox="0 0 24 24" xmlns="http://www.w3.org/2000/svg"><title>contact@1.5x</title><path d="M21.371 9.053C20.212 5.473 16.603 3 12.535 3 8.467 3 4.858 5.473 3.7 9.053 2.722 9.18 1.99 9.96 2 10.866v1.21c-.01.905.722 1.686 1.699 1.813.887 2.735 3.224 4.88 6.202 5.694.139.898.99 1.569 1.976 1.56h1.317c1.083 0 1.975-.818 1.975-1.813s-.892-1.814-1.975-1.814h-1.317c-.69.004-1.332.339-1.686.883-2.523-.703-4.502-2.52-5.267-4.837.597-.3.987-.862 1.027-1.487v-1.209c-.004-.633-.369-1.222-.962-1.547 1.024-3.027 4.095-5.103 7.546-5.103 3.452 0 6.523 2.076 7.546 5.103-.593.325-.958.914-.962 1.547v1.21c0 .994.892 1.813 1.976 1.813s1.975-.819 1.975-1.814v-1.209c.01-.905-.722-1.686-1.699-1.813zM8.584 11.47c0 .663.594 1.209 1.317 1.209s1.317-.546 1.317-1.21c0-.663-.594-1.208-1.317-1.208s-1.317.545-1.317 1.209zm6.585-1.21c-.723 0-1.317.546-1.317 1.21 0 .663.594 1.209 1.317 1.209s1.317-.546 1.317-1.21c0-.663-.594-1.208-1.317-1.208z" fill="#28D424" fill-rule="evenodd"/></svg>