<svg width="100" height="100" viewBox="0 0 100 100" xmlns="http://www.w3.org/2000/svg"><title>defualt_pic copy</title><path d="M20.188 30.94c0-7.032 5.693-12.708 12.718-12.708s12.719 5.688 12.719 12.701c0 7.025-5.694 12.72-12.719 12.72-7.024 0-12.718-5.695-12.718-12.72v.006zM100 8.17v83.654A8.178 8.178 0 0 1 91.825 100H8.175A8.175 8.175 0 0 1 0 91.83V8.177A8.178 8.178 0 0 1 8.175 0h83.65A8.188 8.188 0 0 1 100 8.176v-.007zm-8.388.218H8.4v76.617l21.5-28.22a4.15 4.15 0 0 1 5.625-.625l16.406 14.588 32.332-42.415a4.15 4.15 0 0 1 5.624-.625l1.725 1.531V8.388z" fill-rule="nonzero" fill="#F5F5F5"/></svg>