<svg width="25" height="25" viewBox="0 0 25 25" xmlns="http://www.w3.org/2000/svg"><title>follow_shop</title><g fill="#FFF"><path d="M14.948 18.002a26.058 26.058 0 0 1-2.05 1.492c-6.748-4.442-6.94-8.414-6.703-9.93.255-1.635 1.337-2.935 2.754-3.312 1.28-.34 2.559.144 3.508 1.33a.565.565 0 0 0 .882 0c1.085-1.355 2.637-1.79 4.05-1.133 1.437.667 2.661 2.485 2.16 5.042a.565.565 0 0 0 1.107.218c.62-3.158-.955-5.432-2.79-6.284-1.721-.8-3.575-.426-4.969.96-1.183-1.17-2.728-1.626-4.239-1.224-1.85.492-3.254 2.152-3.579 4.228-.275 1.758-.093 6.373 7.514 11.253a.564.564 0 0 0 .61 0 27.645 27.645 0 0 0 2.455-1.762.565.565 0 0 0-.71-.878z"/><path d="M20.426 15.14h-1.61v-1.61a.565.565 0 1 0-1.13 0v1.61h-1.61a.565.565 0 1 0 0 1.13h1.61v1.61a.565.565 0 1 0 1.13 0v-1.61h1.61a.565.565 0 1 0 0-1.13z"/></g></svg>