<svg width="32" height="32" viewBox="0 0 32 32" xmlns="http://www.w3.org/2000/svg"><title>goods_20</title><path d="M20.952 15.943a1.924 1.924 0 0 1-1.39-.595l-2.98-3.138a1.918 1.918 0 0 1 .069-2.708l3.134-2.977a1.924 1.924 0 0 1 2.708.07l2.981 3.137a1.918 1.918 0 0 1-.07 2.709l-3.134 2.977a1.905 1.905 0 0 1-1.318.525zm.152-8.944a.91.91 0 0 0-.63.25l-3.135 2.977a.918.918 0 0 0-.033 1.296l2.98 3.138a.908.908 0 0 0 .666.284.91.91 0 0 0 .63-.25l3.134-2.978a.918.918 0 0 0 .033-1.296l-2.98-3.137a.908.908 0 0 0-.665-.284zm-8.332-.19c.376 0 .698.13.966.39.267.261.401.58.401.956v5.425c0 .377-.134.699-.401.967a1.32 1.32 0 0 1-.966.401H7.346a1.28 1.28 0 0 1-.955-.401c-.26-.268-.39-.59-.391-.967V8.154c0-.376.13-.694.39-.954.261-.26.58-.391.956-.391h5.426zm0 10.85c.376 0 .698.131.966.392.267.26.401.579.401.955v5.447c0 .377-.134.695-.401.955-.268.26-.59.39-.966.391H7.346c-.377 0-.695-.13-.955-.39A1.31 1.31 0 0 1 6 24.453v-5.447c0-.377.13-.695.39-.955.261-.26.58-.39.956-.391h5.426zm10.873 0c.376 0 .695.131.954.392.26.26.391.579.391.955v5.447c0 .377-.13.695-.39.955-.261.26-.58.39-.955.391h-5.426c-.377 0-.699-.13-.966-.39a1.282 1.282 0 0 1-.402-.956v-5.447c0-.377.134-.695.402-.955.267-.26.59-.39.966-.391h5.426z" fill="#FFF"/></svg>