<svg width="32" height="32" viewBox="0 0 32 32" xmlns="http://www.w3.org/2000/svg" xmlns:xlink="http://www.w3.org/1999/xlink"><title>like_selected</title><defs><path d="M.996 16.735A.989.989 0 0 1 0 15.753V7.461c0-.542.446-.981.996-.981s.996.44.996.981v8.292a.989.989 0 0 1-.996.982z" id="a"/><filter x="-12.6%" y="-2.4%" width="125.1%" height="104.9%" filterUnits="objectBoundingBox" id="b"><feOffset dy=".5" in="SourceAlpha" result="shadowOffsetInner1"/><feComposite in="shadowOffsetInner1" in2="SourceAlpha" operator="arithmetic" k2="-1" k3="1" result="shadowInnerInner1"/><feColorMatrix values="0 0 0 0 0.80986926 0 0 0 0 0.334511216 0 0 0 0 0 0 0 0 1 0" in="shadowInnerInner1"/></filter><path d="M13.621 5.621a8.624 8.624 0 0 1-.274.677h1.597c.333 0 1.994.068 2.937 1.396.739 1.042.773 2.488.102 4.298l-1.3 3.576c-.186.713-1.178 2.217-3.422 2.217-.168 0-.345-.007-.53-.025l-8.236-1.273a.985.985 0 0 1-.841-.968V7.28c0-.475.345-.91.82-.994.593-.104 3.558-.761 3.764-3.477C8.235 1.293 9.548 0 11.16 0c1.613 0 2.926 1.293 2.926 2.882.003.016.073.984-.327 2.32l-.138.42z" id="c"/><filter x="-1.7%" y="-1.4%" width="103.4%" height="102.8%" filterUnits="objectBoundingBox" id="d"><feOffset dy=".5" in="SourceAlpha" result="shadowOffsetInner1"/><feComposite in="shadowOffsetInner1" in2="SourceAlpha" operator="arithmetic" k2="-1" k3="1" result="shadowInnerInner1"/><feColorMatrix values="0 0 0 0 0.80986926 0 0 0 0 0.334511216 0 0 0 0 0 0 0 0 1 0" in="shadowInnerInner1"/></filter></defs><g fill="none" fill-rule="evenodd"><g transform="translate(7 7)"><use fill="#FF7819" xlink:href="#a"/><use fill="#000" filter="url(#b)" xlink:href="#a"/></g><g fill-rule="nonzero" transform="translate(7 7)"><use fill="#FF7819" fill-rule="evenodd" xlink:href="#c"/><use fill="#000" filter="url(#d)" xlink:href="#c"/></g></g></svg>