<svg width="32" height="32" viewBox="0 0 32 32" xmlns="http://www.w3.org/2000/svg"><title>message</title><g fill="#F56A23" fill-rule="evenodd"><path d="M15.986 28.232a.763.763 0 0 1-.545-.227L13.136 25.7a.765.765 0 0 1 0-1.086.765.765 0 0 1 1.086 0l1.764 1.764 1.763-1.764a.769.769 0 0 1 .546-.227h5.377a.767.767 0 0 0 .768-.768V11.328a.77.77 0 0 0-.768-.768H8.308a.772.772 0 0 0-.768.768v12.29a.77.77 0 0 0 .768.77h2.305a.767.767 0 1 1 0 1.536H8.308a2.305 2.305 0 0 1-2.304-2.305V11.328a2.305 2.305 0 0 1 2.304-2.305h15.364a2.305 2.305 0 0 1 2.304 2.305v12.29a2.305 2.305 0 0 1-2.304 2.305h-5.064l-2.077 2.082a.773.773 0 0 1-.545.227z"/><path d="M11.76 18.242a1.153 1.153 0 1 1 .002-2.306 1.153 1.153 0 0 1-.001 2.306zm4.61 0a1.153 1.153 0 1 1 0-2.306 1.153 1.153 0 0 1 0 2.306zm4.613 0a1.153 1.153 0 1 1 .001-2.306 1.153 1.153 0 0 1 0 2.306z"/></g></svg>