<svg width="24" height="24" viewBox="0 0 24 24" xmlns="http://www.w3.org/2000/svg"><title>message_24</title><path d="M6.07 10.087c0 .835.688 1.512 1.536 1.512.848 0 1.536-.677 1.536-1.512 0-.836-.688-1.513-1.536-1.513-.848 0-1.536.677-1.536 1.513zm4.394 0c0 .835.688 1.512 1.536 1.512.848 0 1.536-.677 1.536-1.512 0-.836-.688-1.513-1.536-1.513-.848 0-1.536.677-1.536 1.513zm4.394 0c0 .835.688 1.512 1.536 1.512.848 0 1.536-.677 1.536-1.512 0-.836-.688-1.513-1.536-1.513-.848 0-1.536.677-1.536 1.513zm.256 9.307C19.673 18.248 23 14.65 23 10.388 23 5.203 18.075 1 12 1S1 5.203 1 10.388c0 4.261 3.327 7.86 7.886 9.006L12 23l3.114-3.606zm-5.436-2.097c-3.52-.86-6.098-3.628-6.098-6.91 0-3.968 3.77-7.185 8.42-7.185s8.42 3.217 8.42 7.186c0 3.28-2.575 6.045-6.093 6.907l-2.272 2.595c.034 0-.033 0 0 0l-2.377-2.593z" fill="#00BFD7" fill-rule="evenodd"/></svg>