<svg width="32" height="32" viewBox="0 0 32 32" xmlns="http://www.w3.org/2000/svg"><title>my_follow</title><path d="M15.997 12.157a3.84 3.84 0 1 0 0 7.68 3.84 3.84 0 0 0 0-7.68zm0 5.76a1.92 1.92 0 1 1 0-3.84 1.92 1.92 0 0 1 0 3.84zm0-17.917C7.162 0 0 7.162 0 15.997c0 8.834 7.162 15.997 15.997 15.997s15.997-7.163 15.997-15.997C31.994 7.162 24.832 0 15.997 0zm10.237 16.196l-.001.026-.002.012-.002.019-.003.022v.002a.788.788 0 0 1-.215.431c-.215.26-.449.505-.684.745-1.276 1.296-2.741 2.45-4.343 3.29-1.025.534-2.12.966-3.255 1.174a9.44 9.44 0 0 1-3.739-.053c-2.148-.467-4.095-1.627-5.797-3.015-.79-.644-1.567-1.348-2.22-2.14-.285-.347-.285-.758 0-1.104.214-.26.45-.505.686-.745 1.276-1.295 2.739-2.45 4.342-3.29 1.025-.534 2.119-.967 3.254-1.174a9.441 9.441 0 0 1 3.74.052c2.148.468 4.094 1.628 5.796 3.016.79.644 1.567 1.349 2.22 2.14a.793.793 0 0 1 .214.432v.002l.004.022.002.02.001.012.002.026a.762.762 0 0 1 0 .078z" fill="#FF7819" fill-rule="evenodd"/></svg>