<svg width="24" height="24" viewBox="0 0 24 24" xmlns="http://www.w3.org/2000/svg"><title>my_order@1.5x</title><path d="M14.767 5.688h-6.54V3.22h1.314c0-.34.125-.63.377-.866.25-.238.557-.355.92-.355h1.314c.361 0 .668.117.922.355.25.237.374.526.374.866h1.314v2.467h.005zm-3.26-1.103a.815.815 0 0 0 .574-.226.718.718 0 0 0 .243-.544.708.708 0 0 0-.243-.55.825.825 0 0 0-.575-.216.838.838 0 0 0-.586.215.73.73 0 0 0-.23.551c0 .212.078.392.23.544.151.151.35.226.586.226zm5.24 9.705c.627 0 1.222.117 1.778.344a4.73 4.73 0 0 1 1.462.938c.417.398.749.854.991 1.381.244.526.365 1.084.365 1.676 0 .608-.125 1.174-.365 1.7a4.48 4.48 0 0 1-2.453 2.305c-.559.223-1.15.336-1.779.336-.64 0-1.238-.11-1.795-.336a4.559 4.559 0 0 1-1.46-.925 4.47 4.47 0 0 1-.992-1.38 3.99 3.99 0 0 1-.364-1.7c0-.591.121-1.15.364-1.676s.576-.984.991-1.381a4.712 4.712 0 0 1 3.256-1.282zm2.846 3.966c.084-.09.161-.209.228-.336.071-.133.048-.25-.061-.355-.029-.028-.097-.09-.199-.196a.956.956 0 0 0-.198-.18c-.139-.09-.271-.102-.396-.038-.128.065-.25.161-.374.278-.316.298-.634.594-.953.888a86.38 86.38 0 0 0-.889.828.577.577 0 0 1-.32.167.277.277 0 0 1-.284-.11c-.041-.036-.107-.102-.198-.195a6.565 6.565 0 0 1-.279-.296c-.096-.11-.196-.21-.284-.306a8.421 8.421 0 0 0-.196-.208.709.709 0 0 0-.284-.133c-.107-.018-.211.014-.323.11a1.566 1.566 0 0 0-.272.246 2.78 2.78 0 0 1-.165.155c-.058.045-.09.076-.103.087-.21.21-.184.454.083.732.084.09.195.208.336.344.137.137.286.289.437.442.152.157.306.312.46.464.154.152.288.271.398.363.11.103.261.156.46.152a.58.58 0 0 0 .438-.168c.196-.172.417-.377.67-.622.247-.243.515-.49.782-.738.271-.25.54-.498.795-.74.254-.243.486-.459.698-.64l-.007.005zm-8.819-.22c0 .093 0 .184-.01.277-.01.093-.01.19-.01.297a5.214 5.214 0 0 0 1.043 3.154H5.694c-.262 0-.55-.07-.866-.215a3.666 3.666 0 0 1-.878-.573 3.397 3.397 0 0 1-.68-.809A1.793 1.793 0 0 1 3 19.22V7.008c0-.274.07-.562.209-.857.142-.297.32-.57.546-.82.223-.25.482-.456.772-.625.293-.164.6-.245.922-.245h1.484v2.467h9.134V4.461h1.294c.32 0 .636.065.95.198.315.133.597.308.848.532.25.223.459.491.616.81.161.315.24.65.24 1.005v6.98a6.782 6.782 0 0 0-1.565-.709 5.983 5.983 0 0 0-1.774-.257h-.146a1.35 1.35 0 0 0 .62-.453c.157-.212.242-.45.242-.712 0-.34-.128-.629-.388-.866a1.31 1.31 0 0 0-.925-.355H6.944c-.36 0-.67.117-.927.355a1.13 1.13 0 0 0-.388.866c0 .343.128.636.388.878.259.244.57.364.927.364H15.7a5.983 5.983 0 0 0-2.273.838 5.647 5.647 0 0 0-1.694 1.625H6.947c-.361 0-.67.12-.928.358-.26.238-.387.525-.387.867 0 .34.127.634.387.876.26.244.57.364.928.364h3.841l-.014.011z" fill-rule="nonzero" fill="#FF7819"/></svg>