<svg width="24" height="24" viewBox="0 0 24 24" xmlns="http://www.w3.org/2000/svg"><title>my_shop@1.5x</title><path d="M19.49 12.77c-1.38 0-2.5-1.093-2.5-2.443 0 1.35-1.118 2.442-2.498 2.442-1.378 0-2.498-1.092-2.498-2.442 0 1.35-1.12 2.442-2.499 2.442s-2.498-1.092-2.498-2.442c0 1.35-1.12 2.442-2.499 2.442S2 11.677 2 10.327l1.712-4.47H20.21l1.776 4.47c.002 1.35-1.117 2.442-2.497 2.442zm.716-6.937l.104.105h-.095l-.01-.105zM19.13 4.558H4.855c-.471 0-.856-.349-.856-.78 0-.43.383-.778.856-.778H19.13c.475 0 .86.349.86.778 0 .432-.385.78-.86.78zM5.14 14.285v5.135h13.707v-5.135s.195-.006.283 0h1.146v5.392c0 .452-.583 1.03-1.1 1.03H4.814c-.52 0-1.099-.578-1.099-1.03v-5.392h1.428z" fill="#FF7819" fill-rule="evenodd"/></svg>