<svg width="32" height="32" viewBox="0 0 32 32" xmlns="http://www.w3.org/2000/svg"><title>my_topic</title><path d="M16 32c8.837 0 16-7.163 16-16S24.837 0 16 0 0 7.163 0 16s7.163 16 16 16zm-2.43-21.744c.969-.559 2.963-1.367 3.419-1.367-1.657 1.777-3.315 3.46-2.735 5.468 3.741-3.053 7.5-7.211 13.673-4.101-7.32.585-7.333 4.276-10.254 8.887.22 1.755 3.343 1.288 4.1 2.735-1.064-.156-3.337-.012-4.784 1.367-11.404-.257-5.743-4.89-12.989-5.469 1.511-2.143 1.04-2.648 2.735-3.419 1.796-.82 2.278 1.596 4.101 2.052.482-3.91.328-3.784 2.734-6.153z" fill="#00BFD7" fill-rule="evenodd"/></svg>