<svg width="45" height="49" viewBox="0 0 45 49" xmlns="http://www.w3.org/2000/svg" xmlns:xlink="http://www.w3.org/1999/xlink"><title>publish_activity</title><defs><path id="a" d="M0 930h375v49H0z"/><filter x="-.1%" y="-.5%" width="100.1%" height="101%" filterUnits="objectBoundingBox" id="b"><feOffset dy=".5" in="SourceAlpha" result="shadowOffsetInner1"/><feComposite in="shadowOffsetInner1" in2="SourceAlpha" operator="arithmetic" k2="-1" k3="1" result="shadowInnerInner1"/><feColorMatrix values="0 0 0 0 0.698039216 0 0 0 0 0.698039216 0 0 0 0 0.698039216 0 0 0 1 0" in="shadowInnerInner1"/></filter></defs><g fill="none" fill-rule="evenodd"><g transform="translate(-46 -930)"><use fill-opacity=".9" fill="#FAFAFA" xlink:href="#a"/><use fill="#000" filter="url(#b)" xlink:href="#a"/></g><path d="M30.84 35H16.8a2.804 2.804 0 0 1-2.8-2.8V18.123C14 16.58 15.293 15 16.873 15h7.863v1.436h-7.9a1.44 1.44 0 0 0-1.436 1.437v14.29c0 .79.647 1.4 1.4 1.4l14.327-.035a1.44 1.44 0 0 0 1.437-1.436v-7.828H34v7.863C34 33.671 32.384 35 30.84 35zm2.442-13.573a.72.72 0 0 1-.718-.718l-.036-3.411-10.88 10.341a.737.737 0 0 1-1.041 0c-.287-.287-.287-.718 0-.97L31.379 16.4l-3.124.036a.72.72 0 0 1-.718-.718.72.72 0 0 1 .718-.718h4.991c.395 0 .718.323.718.682v5.027c.036.395-.287.718-.682.718z" fill="#FF7819"/><text font-family=".PingFangSC-Regular, .PingFang SC" font-size="17" letter-spacing="-.41" fill="#FF7819" transform="translate(-46 -930)"><tspan x="90" y="962">发布活动</tspan></text></g></svg>