<svg width="32" height="32" viewBox="0 0 32 32" xmlns="http://www.w3.org/2000/svg"><title>purchase_24</title><path d="M25.45 10.412A10.976 10.976 0 0 0 15.982 5C9.917 5 5 9.917 5 15.982c0 6.066 4.917 10.983 10.983 10.983 6.065 0 10.982-4.917 10.982-10.983a.686.686 0 1 0-1.373 0c0 5.308-4.302 9.61-9.61 9.61a9.61 9.61 0 0 1-9.61-9.61c0-5.307 4.303-9.61 9.61-9.61a9.603 9.603 0 0 1 8.284 4.737.686.686 0 0 0 1.183-.697zm-10.154 4.54v1.03h-2.844a.687.687 0 0 0 0 1.373h2.844v1.373h-2.844a.686.686 0 0 0 0 1.373h2.844v2.745a.686.686 0 1 0 1.373 0v-2.745h2.994a.686.686 0 1 0 0-1.373H16.67v-1.373h2.994a.686.686 0 1 0 0-1.373H16.67v-1.03a.694.694 0 0 0-.023-.177c.24-.091.464-.233.657-.425l2.94-2.94a.686.686 0 0 0-.97-.971l-2.941 2.94a.498.498 0 0 1-.7 0l-2.94-2.94a.685.685 0 1 0-.97.97l2.94 2.94c.193.193.418.335.657.425a.684.684 0 0 0-.023.179z" fill-rule="nonzero" fill="#FFF"/></svg>