<svg width="32" height="32" viewBox="0 0 32 32" xmlns="http://www.w3.org/2000/svg"><title>right_green</title><g fill="none" fill-rule="evenodd"><path d="M15.89 31.766C7.132 31.766 0 24.634 0 15.876 0 7.12 7.132 0 15.89 0c8.757 0 15.89 7.132 15.89 15.89 0 1.638-.246 3.25-.736 4.785l-1.87-.594a13.93 13.93 0 0 0 .645-4.191c0-7.674-6.242-13.917-13.916-13.917S1.986 8.216 1.986 15.89c0 7.674 6.23 13.916 13.904 13.916 3.353 0 6.59-1.212 9.118-3.405l1.29 1.483a15.888 15.888 0 0 1-10.408 3.882z" fill="#04D800" opacity=".225"/><path d="M4 16.159c0 6.715 5.444 12.158 12.159 12.158 6.715 0 12.158-5.443 12.158-12.158a12.159 12.159 0 1 0-24.317 0z" fill="#04D800"/><path d="M13.61 22.08a.931.931 0 0 1-.659-.269l-5.677-5.69a.926.926 0 0 1 0-1.315.926.926 0 0 1 1.316 0l5.02 5.02 9.55-9.552a.926.926 0 0 1 1.316 0 .926.926 0 0 1 0 1.316L14.267 21.799a.923.923 0 0 1-.658.28z" fill="#FFF"/></g></svg>