<svg width="166" height="70" viewBox="0 0 166 70" xmlns="http://www.w3.org/2000/svg"><title>selected_act</title><g fill="none" fill-rule="evenodd"><rect fill-opacity=".05" fill="#000" width="165.212" height="69.999" rx="2"/><g fill-rule="nonzero" fill="#FF7819"><path d="M15.266 14.29a1.174 1.174 0 0 1-1.181-1.165v-3.57c0-.642.529-1.164 1.18-1.164l67.46-.036v2.365H16.447v2.405c0 .643-.528 1.164-1.18 1.164zm0 41.363c-.652 0-1.181.52-1.181 1.164v3.57c0 .642.529 1.163 1.18 1.163l67.46.037v-2.365H16.447v-2.405c0-.643-.528-1.164-1.18-1.164zm.074-25.119c-.652 0-1.18-.521-1.18-1.164v-5.355c0-.643.528-1.164 1.18-1.164.652 0 1.18.52 1.18 1.164v5.355c0 .643-.528 1.164-1.18 1.164z"/><path d="M15.34 25.179c-.652 0-1.18-.521-1.18-1.164 0-.643.528-1.164 1.18-1.164 2.3 0 4.172-1.845 4.172-4.113 0-2.268-1.872-4.113-4.172-4.113-.652 0-1.18-.521-1.18-1.164 0-.643.528-1.164 1.18-1.164 3.603 0 6.533 2.89 6.533 6.44 0 3.552-2.93 6.442-6.533 6.442zm0 16.161c-.652 0-1.18-.52-1.18-1.164 0-.643.528-1.164 1.18-1.164 2.3 0 4.172-1.845 4.172-4.112 0-2.268-1.872-4.113-4.172-4.113-.652 0-1.18-.522-1.18-1.164 0-.643.528-1.164 1.18-1.164 3.603 0 6.533 2.889 6.533 6.44 0 3.552-2.93 6.441-6.533 6.441zm0 16.162c-.652 0-1.18-.521-1.18-1.164 0-.643.528-1.164 1.18-1.164 2.3 0 4.172-1.845 4.172-4.113 0-2.268-1.872-4.113-4.172-4.113-.652 0-1.18-.521-1.18-1.164 0-.643.528-1.164 1.18-1.164 3.603 0 6.533 2.89 6.533 6.441 0 3.552-2.93 6.441-6.533 6.441z"/><path d="M15.34 46.804c-.652 0-1.18-.52-1.18-1.164v-5.355c0-.643.528-1.164 1.18-1.164.652 0 1.18.521 1.18 1.164v5.355c0 .643-.528 1.164-1.18 1.164zM149.728 14.29c.652 0 1.181-.522 1.181-1.165v-3.57c0-.642-.529-1.164-1.18-1.164l-67.46-.036v2.365h66.279v2.405c0 .643.528 1.164 1.18 1.164zm0 41.363c.652 0 1.181.52 1.181 1.164v3.57c0 .642-.529 1.163-1.18 1.163l-67.46.037v-2.365h66.279v-2.405c0-.643.528-1.164 1.18-1.164zm0-25.601c.652 0 1.181-.521 1.181-1.164v-5.355c0-.643-.529-1.164-1.18-1.164-.653 0-1.181.521-1.181 1.164v5.355c0 .643.528 1.164 1.18 1.164z"/><path d="M149.728 24.74c.652 0 1.181-.521 1.181-1.164 0-.643-.529-1.164-1.18-1.164-2.301 0-4.173-1.845-4.173-4.113 0-2.268 1.872-4.113 4.172-4.113.652 0 1.181-.52 1.181-1.164 0-.643-.529-1.164-1.18-1.164-3.603 0-6.534 2.89-6.534 6.441 0 3.552 2.93 6.441 6.533 6.441zm0 15.766c.652 0 1.181-.521 1.181-1.164 0-.643-.529-1.164-1.18-1.164-2.301 0-4.173-1.845-4.173-4.113 0-2.268 1.872-4.113 4.172-4.113.652 0 1.181-.52 1.181-1.164 0-.643-.529-1.164-1.18-1.164-3.603 0-6.534 2.89-6.534 6.441 0 3.552 2.93 6.441 6.533 6.441zm0 17.518c.652 0 1.181-.521 1.181-1.164 0-.643-.529-1.164-1.18-1.164-2.301 0-4.173-1.845-4.173-4.113 0-2.268 1.872-4.113 4.172-4.113.652 0 1.181-.521 1.181-1.164 0-.643-.529-1.164-1.18-1.164-3.603 0-6.534 2.89-6.534 6.441 0 3.552 2.93 6.441 6.533 6.441z"/><path d="M149.728 47.57c.652 0 1.181-.521 1.181-1.164V41.05c0-.643-.529-1.164-1.18-1.164-.653 0-1.181.52-1.181 1.164v5.355c0 .643.528 1.164 1.18 1.164z"/></g><path fill="#FF7819" d="M20 9h126v51H20z"/><path fill="#FF7819" d="M16 9h5.5v6.5l-5.5-2zm134.5 0H145v6.5l5.5-2zM16 61.5h5.5V55L16 57zm134.5 0H145V55l5.5 2zM16 25l5.5-3v9.5l-5.5-2zm134.5 0l-5.5-3v9.5l5.5-2zM16 41l5.5-3v9.5l-5.5-2zm134.5 0l-5.5-3v9.5l5.5-2z"/></g></svg>