<svg width="32" height="32" viewBox="0 0 32 32" xmlns="http://www.w3.org/2000/svg"><title>service</title><g transform="translate(-313 -314)" fill="none" fill-rule="evenodd"><rect fill-opacity=".05" fill="#000" x="-14" y="310" width="375" height="40" rx="20"/><path d="M325.592 325.548c-4.696 0-8.592 3.227-8.592 7.262 0 1.917 1 3.833 2.697 5.144.1.101.1.303.1.404l-.5 1.614a.79.79 0 0 0 .2.807c.1.1.3.201.5.201h.3l2.897-1.11h.2c.8.102 1.499.203 2.198.203 4.696 0 8.592-3.228 8.592-7.263s-3.896-7.262-8.592-7.262zm-1.898 12.81c-.4-.1-.8 0-1.1.1l-1.498.606.1-.202c.2-.807 0-1.513-.6-2.017-1.398-1.11-2.097-2.522-2.097-4.035 0-3.127 3.197-5.75 7.093-5.75s7.093 2.522 7.093 5.75c0 3.631-4.296 6.557-8.991 5.548zm17.284-11.096c0-4.034-3.897-7.262-8.592-7.262-3.097 0-5.995 1.412-7.493 3.732-.2.303-.1.807.2 1.009.3.202.799.1.999-.202 1.298-1.816 3.696-3.026 6.294-3.026 3.896 0 7.093 2.623 7.093 5.75 0 1.512-.8 2.925-2.098 4.034-.6.505-.8 1.311-.6 2.018l.1.201-.899-.403c-.4-.202-.899 0-.999.403-.2.404 0 .908.4 1.009l2.298.807c.1.1.2.1.3.1.1 0 .3 0 .599-.1.2-.202.3-.504.2-.807l-.5-1.614c-.1-.202 0-.303.1-.403 1.699-1.413 2.598-3.228 2.598-5.246zm-19.182 4.54c-.6 0-1.1.504-1.1 1.11 0 .604.5 1.109 1.1 1.109.599 0 1.099-.505 1.099-1.11 0-.605-.5-1.11-1.1-1.11zm3.696 0c-.6 0-1.099.504-1.099 1.11 0 .604.5 1.109 1.1 1.109.599 0 1.098-.505 1.098-1.11 0-.605-.5-1.11-1.099-1.11zm3.797 0c-.6 0-1.1.504-1.1 1.11 0 .604.5 1.109 1.1 1.109.599 0 1.099-.505 1.099-1.11 0-.605-.5-1.11-1.1-1.11z" fill-rule="nonzero" fill="#FF7819"/></g></svg>