<svg width="24" height="24" viewBox="0 0 24 24" xmlns="http://www.w3.org/2000/svg"><title>shop_invite</title><g fill="#000" fill-rule="evenodd" fill-opacity=".3"><path d="M5.892 19.751a1.775 1.775 0 0 1-1.775-1.771v-3.288a.79.79 0 1 1 1.58 0v3.288c0 .101.091.19.195.19h11.613a.193.193 0 0 0 .189-.19v-3.288a.79.79 0 1 1 1.58 0v3.288c0 .974-.792 1.769-1.767 1.771H5.892zM6.57 13.684c-.619 0-1.173-.125-1.648-.372l-.021-.01-.015-.01a3.564 3.564 0 0 1-1.708-4.26l.015-.07L4.748 5.29C5.018 4.494 5.756 4 6.675 4h10.083a2.24 2.24 0 0 1 1.209.34c.37.236.638.577.776.987l1.437 3.577.026.065.017.082c.112.346.17.72.168 1.082v.002a3.569 3.569 0 0 1-1.858 3.135c-.485.266-1.058.402-1.703.406h-.005a3.555 3.555 0 0 1-2.576-1.098 3.551 3.551 0 0 1-2.54 1.1H11.696a3.566 3.566 0 0 1-2.553-1.098c-.668.701-1.593 1.1-2.57 1.104H6.57zm-.906-1.768c.245.124.55.187.904.187a1.983 1.983 0 0 0 1.514-.707 1.381 1.381 0 0 1 2.12-.002c.37.44.916.696 1.499.703a1.971 1.971 0 0 0 1.487-.704 1.381 1.381 0 0 1 2.12 0c.375.445.927.7 1.516.702.378-.003.697-.074.95-.212a1.99 1.99 0 0 0 1.036-1.748v-.008c.001-.2-.031-.406-.093-.595a1.384 1.384 0 0 1-.03-.105L17.273 5.91a1.38 1.38 0 0 1-.028-.076c-.079-.235-.395-.254-.49-.254H6.676c-.164 0-.371.038-.432.218a1.396 1.396 0 0 1-.037.1L4.702 9.454a1.379 1.379 0 0 1-.02.07 1.985 1.985 0 0 0 .982 2.393z"/><path d="M15.945 9.178H7.447a.79.79 0 0 1 0-1.581h8.498a.79.79 0 1 1 0 1.58z"/></g></svg>