<svg width="24" height="24" viewBox="0 0 24 24" xmlns="http://www.w3.org/2000/svg" xmlns:xlink="http://www.w3.org/1999/xlink"><title>shop_call</title><defs><filter x="-1.9%" y="-1.9%" width="111.5%" height="115.4%" filterUnits="objectBoundingBox" id="a"><feOffset dy=".5" in="SourceAlpha" result="shadowOffsetOuter1"/><feComposite in="shadowOffsetOuter1" in2="SourceAlpha" operator="out" result="shadowOffsetOuter1"/><feColorMatrix values="0 0 0 0 1 0 0 0 0 1 0 0 0 0 1 0 0 0 0.4 0" in="shadowOffsetOuter1" result="shadowMatrixOuter1"/><feMerge><feMergeNode in="shadowMatrixOuter1"/><feMergeNode in="SourceGraphic"/></feMerge></filter><path d="M12.689 9.833c.511.613.278 1.542.102 1.722-.177.184-.164.272-1.01 1.04-.853.774-2.557.245-3.33 0-.774-.246-2.877-1.59-4.821-3.439C1.66 7.283.64 4.95.225 3.682c-.416-1.27-.156-1.73 0-2.16.155-.43.44-.794 1.284-1.278.842-.485 1.147-.116 1.363 0 .216.114 1.16.94 1.486 1.72.325.779.17 1.28-.081 1.517-.25.237-.429.454-.636.6-.208.145-.251.354-.22.759.029.405 1.491 1.986 1.78 2.278.288.293 2.192 2.263 2.853 2.414.661.15.9-.138.973-.216.072-.077.332-.432.627-.679.297-.245 1.089-.177 1.284-.04.196.138 1.24.619 1.75 1.236z" id="c"/><filter x="-1.9%" y="-1.9%" width="103.8%" height="107.7%" filterUnits="objectBoundingBox" id="b"><feOffset dy=".5" in="SourceAlpha" result="shadowOffsetOuter1"/><feComposite in="shadowOffsetOuter1" in2="SourceAlpha" operator="out" result="shadowOffsetOuter1"/><feColorMatrix values="0 0 0 0 1 0 0 0 0 1 0 0 0 0 1 0 0 0 0.4 0" in="shadowOffsetOuter1"/></filter></defs><g fill="#000" filter="url(#a)" transform="translate(5 5)" fill-rule="evenodd"><use filter="url(#b)" xlink:href="#c"/><use fill-opacity=".6" xlink:href="#c"/><use fill-opacity=".1" style="mix-blend-mode:soft-light" xlink:href="#c"/></g></svg>