<svg width="24" height="24" viewBox="0 0 24 24" xmlns="http://www.w3.org/2000/svg"><title>sugguestion@1.5x</title><path d="M21.24 6.747l-.87.778-3.475-3.107.868-.775c.96-.857 2.517-.857 3.477 0 .96.855.96 2.246 0 3.104zm-2.61 2.328l-4.344 3.876-6.055 2.35 2.578-5.453 4.348-3.88 3.474 3.107zm-9.153-3.83H5.738c-.689 0-1.246.501-1.246 1.117V17.52c0 .616.557 1.116 1.246 1.116h12.465c.69 0 1.246-.5 1.246-1.116v-4.462c0-.615.557-1.116 1.246-1.116.69 0 1.247.5 1.247 1.116v5.58c0 1.232-1.117 2.233-2.493 2.233H4.492C3.117 20.871 2 19.873 2 18.639V5.246c0-1.232 1.117-2.232 2.492-2.232h4.985c.69 0 1.246.5 1.246 1.116 0 .618-.557 1.116-1.246 1.116z" fill="#00C0D8" fill-rule="evenodd"/></svg>