<svg width="166" height="69" viewBox="0 0 166 69" xmlns="http://www.w3.org/2000/svg"><title>unselect_act@2x</title><g fill="none" fill-rule="evenodd"><rect fill-opacity=".05" fill="#000" width="165.212" height="68.999" rx="2"/><g opacity=".5" fill-rule="nonzero" fill="#FF9D4E"><path d="M15.263 14.079c-.65 0-1.178-.513-1.178-1.146V9.418c0-.633.527-1.146 1.178-1.146l67.327-.037v2.329H16.442v2.369c0 .633-.528 1.146-1.179 1.146zm0 40.731c-.65 0-1.178.513-1.178 1.146v3.515c0 .633.527 1.146 1.178 1.146l67.327.036v-2.328H16.442v-2.37c0-.632-.528-1.146-1.179-1.146zm.075-24.735c-.651 0-1.179-.513-1.179-1.146v-5.273c0-.633.528-1.146 1.179-1.146.65 0 1.178.513 1.178 1.146v5.273c0 .633-.528 1.146-1.178 1.146z"/><path d="M15.338 24.802c-.651 0-1.179-.513-1.179-1.146 0-.633.528-1.146 1.179-1.146 2.295 0 4.163-1.817 4.163-4.05 0-2.234-1.868-4.05-4.163-4.05-.651 0-1.179-.514-1.179-1.147s.528-1.146 1.179-1.146c3.595 0 6.52 2.845 6.52 6.343 0 3.497-2.925 6.342-6.52 6.342zm0 15.914c-.651 0-1.179-.513-1.179-1.146 0-.633.528-1.146 1.179-1.146 2.295 0 4.163-1.817 4.163-4.05 0-2.233-1.868-4.05-4.163-4.05-.651 0-1.179-.513-1.179-1.146 0-.633.528-1.146 1.179-1.146 3.595 0 6.52 2.845 6.52 6.342 0 3.497-2.925 6.342-6.52 6.342zm0 15.914c-.651 0-1.179-.513-1.179-1.146 0-.633.528-1.146 1.179-1.146 2.295 0 4.163-1.817 4.163-4.05 0-2.233-1.868-4.05-4.163-4.05-.651 0-1.179-.513-1.179-1.146 0-.633.528-1.146 1.179-1.146 3.595 0 6.52 2.845 6.52 6.342 0 3.497-2.925 6.343-6.52 6.343z"/><path d="M15.338 46.097c-.651 0-1.179-.514-1.179-1.147v-5.273c0-.633.528-1.146 1.179-1.146.65 0 1.178.513 1.178 1.146v5.273c0 .633-.528 1.147-1.178 1.147zM149.46 14.079c.65 0 1.178-.513 1.178-1.146V9.418c0-.633-.528-1.146-1.178-1.146l-67.327-.037v2.329h66.148v2.369c0 .633.528 1.146 1.179 1.146zm0 40.731c.65 0 1.178.513 1.178 1.146v3.515c0 .633-.528 1.146-1.178 1.146l-67.327.036v-2.328h66.148v-2.37c0-.632.528-1.146 1.179-1.146zm0-25.21c.65 0 1.178-.513 1.178-1.146v-5.273c0-.633-.528-1.146-1.178-1.146-.651 0-1.179.513-1.179 1.146v5.273c0 .633.528 1.147 1.179 1.147z"/><path d="M149.46 24.37c.65 0 1.178-.513 1.178-1.146 0-.633-.528-1.146-1.178-1.146-2.296 0-4.164-1.817-4.164-4.05 0-2.234 1.868-4.05 4.164-4.05.65 0 1.178-.514 1.178-1.147s-.528-1.146-1.178-1.146c-3.596 0-6.521 2.845-6.521 6.343 0 3.497 2.925 6.342 6.52 6.342zm0 15.525c.65 0 1.178-.514 1.178-1.147s-.528-1.146-1.178-1.146c-2.296 0-4.164-1.817-4.164-4.05 0-2.233 1.868-4.05 4.164-4.05.65 0 1.178-.513 1.178-1.146 0-.633-.528-1.146-1.178-1.146-3.596 0-6.521 2.845-6.521 6.342 0 3.498 2.925 6.343 6.52 6.343zm0 17.249c.65 0 1.178-.513 1.178-1.146 0-.633-.528-1.146-1.178-1.146-2.296 0-4.164-1.817-4.164-4.05 0-2.233 1.868-4.05 4.164-4.05.65 0 1.178-.513 1.178-1.146 0-.633-.528-1.146-1.178-1.146-3.596 0-6.521 2.845-6.521 6.342 0 3.497 2.925 6.342 6.52 6.342z"/><path d="M149.46 46.85c.65 0 1.178-.513 1.178-1.146v-5.273c0-.633-.528-1.146-1.178-1.146-.651 0-1.179.513-1.179 1.146v5.273c0 .633.528 1.146 1.179 1.146z"/></g></g></svg>