<svg width="60" height="60" viewBox="0 0 60 60" xmlns="http://www.w3.org/2000/svg"><title>user copy</title><g fill="none" fill-rule="evenodd"><circle fill-opacity=".95" fill="#FFF" cx="30" cy="30" r="30"/><path d="M30 58C14.536 58 2 45.464 2 30S14.536 2 30 2s28 12.536 28 28-12.536 28-28 28zm8.858-26.841c1.059-1.665 1.815-3.784 1.815-5.903 0-5.903-4.688-10.595-10.585-10.595-5.896 0-10.584 4.692-10.584 10.595 0 2.119.605 4.238 1.814 5.903-3.78 2.724-6.35 7.265-6.35 12.26 0 .908.604 1.514 1.512 1.514.907 0 1.511-.606 1.511-1.514 0-4.238 2.118-7.87 5.293-9.99 1.814 1.514 4.234 2.422 6.804 2.422 2.571 0 4.99-.908 6.805-2.422 3.175 2.12 5.292 5.903 5.292 9.99 0 .908.605 1.514 1.512 1.514s1.512-.606 1.512-1.514c0-4.995-2.57-9.536-6.35-12.26zm-8.77 1.665c-4.234 0-7.56-3.33-7.56-7.568 0-4.238 3.326-7.568 7.56-7.568s7.56 3.33 7.56 7.568c0 4.238-3.326 7.568-7.56 7.568z" fill-opacity=".1" fill="#000" fill-rule="nonzero"/></g></svg>