<svg width="24" height="24" viewBox="0 0 24 24" xmlns="http://www.w3.org/2000/svg"><title>v</title><path d="M12 4a8 8 0 1 0 .001 16.001A8 8 0 0 0 12 4zm4.87 4.966a.463.463 0 0 1-.052.114l-4.76 7.582H9.59L8.796 9.67c-.028-.274-.096-.477-.201-.61-.106-.133-.268-.219-.486-.258l.104-.279h2.246c.241 0 .42.057.537.172.118.114.192.303.22.566l.44 4.862 2.469-4.662c.023-.047.043-.098.06-.15a.392.392 0 0 0 .026-.122.313.313 0 0 0-.129-.262.786.786 0 0 0-.378-.125l.085-.279h2.557c.166 0 .299.03.395.09.098.06.146.137.146.233 0 .042-.007.08-.017.12z" fill="#FFF"/></svg>