<?xml version="1.0" encoding="UTF-8"?>
<svg width="24px" height="24px" viewBox="0 0 24 24" version="1.1" xmlns="http://www.w3.org/2000/svg" xmlns:xlink="http://www.w3.org/1999/xlink">
    <!-- Generator: Sketch 43 (38999) - http://www.bohemiancoding.com/sketch -->
    <title>goods_13 copy</title>
    <desc>Created with Sketch.</desc>
    <defs></defs>
    <g id="02_shop_0714" stroke="none" stroke-width="1" fill="none" fill-rule="evenodd">
        <g id="03_店铺详情" transform="translate(-146.000000, -434.000000)" fill-rule="nonzero" fill="#AAAAAA">
            <g id="goods_13-copy" transform="translate(152.000000, 439.000000)">
                <path d="M9.71863933,6.46294668 C9.37745602,6.46269411 9.05119013,6.32304686 8.81547704,6.07637815 L6.87795817,4.03676155 C6.40500924,3.53887272 6.42527292,2.74910906 6.92316175,2.27629003 L8.96031034,0.341369064 C9.19147781,0.121456929 9.49855991,-0.000817582389 9.81761958,4.11471795e-06 C10.1588029,0.000256685327 10.4850688,0.13990393 10.7207819,0.386572642 L12.6581708,2.42605935 C13.1311198,2.92381829 13.1107262,3.71358195 12.6129673,4.18653087 L10.5758187,6.12158173 C10.3447206,6.34152034 10.0376669,6.46380205 9.71863933,6.46294668 Z M9.81748968,0.649480807 C9.66497466,0.648894432 9.51811893,0.707199319 9.40753999,0.812239666 L7.3703914,2.74716063 C7.1322411,2.97400653 7.12259615,3.35079894 7.34882877,3.5895319 L9.28621775,5.6291485 C9.39859848,5.74776467 9.55511371,5.81449998 9.71850943,5.81346999 C9.87102446,5.81405636 10.0178802,5.75575148 10.1284591,5.65071113 L12.1656077,3.71566027 C12.4036874,3.48878303 12.4133308,3.11204964 12.1871703,2.873289 L10.2497814,0.833802292 C10.1374188,0.715159961 9.98089168,0.648419566 9.81748968,0.649480807 L9.81748968,0.649480807 Z M4.40163344,0.525560654 C4.64635626,0.525560654 4.85561765,0.61038231 5.02954751,0.779765832 C5.20347736,0.949149353 5.29037735,1.15607263 5.29037735,1.40053565 L5.29037735,4.92732399 C5.29037735,5.17204681 5.20347736,5.3813082 5.02954751,5.55523806 C4.85561765,5.72916791 4.64622636,5.81619779 4.40163344,5.81619779 L0.874845105,5.81619779 C0.630122287,5.81619779 0.423199013,5.72916791 0.254075282,5.55523806 C0.0849515514,5.3813082 0.000259790677,5.17191691 0,4.92732399 L0,1.40040576 C0,1.15568294 0.0846917607,0.948889562 0.254075282,0.779765832 C0.423458803,0.610642101 0.630382078,0.525820445 0.874845105,0.525560654 L4.40163344,0.525560654 L4.40163344,0.525560654 Z M4.40163344,7.57887753 C4.64635626,7.57887753 4.85561765,7.66369919 5.02954751,7.83295282 C5.20347736,8.00246623 5.29037735,8.20925961 5.29037735,8.45372264 L5.29037735,11.9946696 C5.29037735,12.2392625 5.20347736,12.4463157 5.02954751,12.6153095 C4.85561765,12.7843033 4.64622636,12.869125 4.40163344,12.8693848 L0.874845105,12.8693848 C0.630122287,12.8693848 0.423199013,12.784693 0.254075282,12.6153095 C0.0849515514,12.4457961 0.000259790677,12.2390027 0,11.9946696 L0,8.45372264 C0,8.20899982 0.0846917607,8.00207655 0.254075282,7.83295282 C0.423458803,7.66395898 0.630382078,7.57913732 0.874845105,7.57887753 L4.40163344,7.57887753 L4.40163344,7.57887753 Z M11.4691089,7.57887753 C11.7137018,7.57887753 11.920755,7.66369919 12.0896189,7.83295282 C12.2588726,8.00246623 12.3435643,8.20925961 12.3438241,8.45372264 L12.3438241,11.9946696 C12.3438241,12.2392625 12.2591324,12.4463157 12.0896189,12.6153095 C11.9202354,12.7844332 11.713442,12.869125 11.4691089,12.8693848 L7.94219068,12.8693848 C7.69746786,12.8693848 7.48820647,12.784693 7.31427661,12.6153095 C7.14034676,12.4457961 7.05331688,12.2390027 7.05331688,11.9946696 L7.05331688,8.45372264 C7.05331688,8.20899982 7.14034676,8.00207655 7.31427661,7.83295282 C7.48820647,7.66395898 7.69759776,7.57913732 7.94219068,7.57887753 L11.4691089,7.57887753 L11.4691089,7.57887753 Z" id="Shape"></path>
            </g>
        </g>
    </g>
</svg>