<?xml version="1.0" encoding="UTF-8"?>
<svg width="32px" height="32px" viewBox="0 0 32 32" version="1.1" xmlns="http://www.w3.org/2000/svg" xmlns:xlink="http://www.w3.org/1999/xlink">
    <!-- Generator: Sketch 43 (38999) - http://www.bohemiancoding.com/sketch -->
    <title>message</title>
    <desc>Created with Sketch.</desc>
    <defs></defs>
    <g id="Symbols" stroke="none" stroke-width="1" fill="none" fill-rule="evenodd">
        <g id="message" fill="#F56A23">
            <g transform="translate(6.000000, 9.000000)" id="Group">
                <g>
                    <path d="M9.9859302,19.2320799 C9.78769066,19.2320799 9.59358108,19.15774 9.44077143,19.0049304 L7.13623664,16.7003956 C6.83474732,16.3989063 6.83474732,15.9156974 7.13623664,15.614208 C7.43772595,15.3127187 7.92093486,15.3127187 8.22242418,15.614208 L9.98593018,17.377714 L11.7494362,15.614208 C11.8939859,15.4696584 12.0880954,15.3870586 12.294595,15.3870586 L17.6718428,15.3870586 C18.0972318,15.3870586 18.4400211,15.0442693 18.4400211,14.6188803 L18.4400211,2.32802814 C18.4400211,1.9067691 18.0972318,1.55984987 17.6718428,1.55984987 L2.30827758,1.55984987 C1.88701854,1.55984987 1.5400993,1.90676908 1.5400993,2.32802814 L1.5400993,14.6188803 C1.5400993,15.0442693 1.88701851,15.3870586 2.30827758,15.3870586 L4.61281236,15.3870586 C5.03820139,15.3870586 5.38099064,15.7298478 5.38099064,16.1552369 C5.38099064,16.5806259 5.03820142,16.9234151 4.61281236,16.9234151 L2.30827758,16.9234151 C1.03624046,16.9234151 0.00374278511,15.8909175 0.00374278511,14.6188803 L0.00374280912,2.32802814 C0.00374280912,1.05599102 1.03624048,0.0234933493 2.3082776,0.0234933493 L17.6718428,0.0234933493 C18.9438799,0.0234933493 19.9763776,1.05599102 19.9763776,2.32802814 L19.9763776,14.6188803 C19.9763776,15.8909174 18.9438799,16.9234151 17.6718428,16.9234151 L12.6084743,16.9234151 L10.531089,19.0049304 C10.3824093,19.15361 10.1841697,19.2320799 9.9859302,19.2320799 Z" id="Shape"></path>
                    <path d="M5.76094977,9.24163248 C5.12493121,9.24163248 4.60868238,8.72538365 4.60868238,8.08936509 C4.60868238,7.45334653 5.12493121,6.9370977 5.76094977,6.9370977 C6.39696833,6.9370977 6.91321717,7.45334653 6.91321717,8.08936509 C6.91321717,8.72538365 6.39696833,9.24163248 5.76094977,9.24163248 Z" id="Shape"></path>
                    <path d="M10.3700193,9.24163248 C9.73400077,9.24163248 9.21775193,8.72538365 9.21775193,8.08936509 C9.21775193,7.45334653 9.73400077,6.9370977 10.3700193,6.9370977 C11.0060379,6.9370977 11.5222867,7.45334653 11.5222867,8.08936509 C11.5222867,8.72538365 11.0060379,9.24163248 10.3700193,9.24163248 Z" id="Shape"></path>
                    <path d="M14.9832189,9.24163248 C14.3472003,9.24163248 13.8309515,8.72538365 13.8309515,8.08936509 C13.8309515,7.45334653 14.3472003,6.9370977 14.9832189,6.9370977 C15.6192375,6.9370977 16.1354863,7.45334653 16.1354863,8.08936509 C16.1354863,8.72538365 15.6151075,9.24163248 14.9832189,9.24163248 Z" id="Shape"></path>
                </g>
            </g>
        </g>
    </g>
</svg>