<?xml version="1.0" encoding="UTF-8"?>
<svg width="32px" height="32px" viewBox="0 0 32 32" version="1.1" xmlns="http://www.w3.org/2000/svg" xmlns:xlink="http://www.w3.org/1999/xlink">
    <!-- Generator: Sketch 43 (38999) - http://www.bohemiancoding.com/sketch -->
    <title>service</title>
    <desc>Created with Sketch.</desc>
    <defs></defs>
    <g id="02_shop_0714" stroke="none" stroke-width="1" fill="none" fill-rule="evenodd">
        <g id="03_店铺详情" transform="translate(-313.000000, -314.000000)">
            <rect id="Rectangle-12" fill-opacity="0.05" fill="#000000" x="-14" y="310" width="375" height="40" rx="20"></rect>
            <g id="service" transform="translate(317.000000, 320.000000)" fill-rule="nonzero" fill="#FF7819">
                <path d="M8.59199925,5.54774543 C3.8963575,5.54774543 0,8.77547347 0,12.8101996 C0,14.7266939 0.999075264,16.6431642 2.6974912,17.954494 C2.79738672,18.0553267 2.79738672,18.2570883 2.79738672,18.357921 L2.2978611,19.971821 C2.19796558,20.2744393 2.2978611,20.5770576 2.49767615,20.778747 C2.59759569,20.8796278 2.79738672,20.9804845 2.99720177,20.9804845 L3.29691234,20.9804845 L6.19421859,19.8709403 L6.39403364,19.8709403 C7.19329386,19.971821 7.8926105,20.0726778 8.59199923,20.0726778 C13.287641,20.0726778 17.1839985,16.8449017 17.1839985,12.8101996 C17.1839985,8.77549752 13.287641,5.54774543 8.59199925,5.54774543 Z M6.69374423,18.357921 C6.29413815,18.2570883 5.89453207,18.357921 5.59479748,18.4588017 L4.09619659,19.0640143 L4.19609211,18.8623248 C4.39590716,18.0553508 4.19609211,17.3492575 3.59664695,16.8449257 C2.19794158,15.7353814 1.49860091,14.3232429 1.49860091,12.8101996 C1.49860091,9.68330426 4.69561773,7.0607407 8.59199927,7.0607407 C12.4883808,7.0607407 15.6853976,9.5824235 15.6853976,12.8101996 C15.6854217,16.4414747 11.38941,19.3666325 6.69374423,18.357921 Z M23.9776863,7.26245415 C23.9776863,3.22777609 20.0813048,0 15.385687,0 C12.2885657,0 9.39125946,1.41216256 7.89263455,3.73210784 C7.69284352,4.03472611 7.79276306,4.53903384 8.09247363,4.74079538 C8.3921842,4.9425329 8.89173384,4.84162809 9.09150085,4.53900982 C10.3903347,2.72339627 12.7880914,1.51299527 15.385687,1.51299527 C19.2820686,1.51299527 22.4790854,4.13558287 22.4790854,7.26245415 C22.4790854,8.77547345 21.6798252,10.187636 20.3810394,11.2972043 C19.7815942,11.801512 19.5817792,12.6084621 19.7815942,13.3145313 L19.8815137,13.5162689 L18.982358,13.1128179 C18.5827279,12.9110803 18.0831542,13.1128179 17.9832828,13.5162689 C17.7834677,13.9197198 17.9832828,14.4240997 18.3829129,14.5249324 L20.680774,15.3318824 C20.7806695,15.4327631 20.880589,15.4327631 20.9804845,15.4327631 C21.08038,15.4327631 21.2801951,15.4327631 21.5799297,15.3318824 C21.7797447,15.1301449 21.8796403,14.8275506 21.7797447,14.5249324 L21.2802191,12.9110563 C21.1803236,12.7093188 21.2802191,12.608438 21.3801146,12.5076053 C23.0785306,11.0954668 23.9776863,9.27982924 23.9776863,7.26245415 Z M4.79553727,11.801512 C4.19609211,11.801512 3.69651842,12.3058678 3.69651842,12.9110803 C3.69651842,13.5162929 4.19609211,14.0206486 4.79553727,14.0206486 C5.39498243,14.0206486 5.89450805,13.5162929 5.89450805,12.9110803 C5.89453207,12.3058919 5.39498243,11.801512 4.79553727,11.801512 Z M8.49207971,11.801512 C7.89263455,11.801512 7.39313295,12.3058678 7.39313295,12.9110803 C7.39313295,13.5162929 7.89263455,14.0206486 8.49207971,14.0206486 C9.09152487,14.0206486 9.59109856,13.5162929 9.59109856,12.9110803 C9.59107454,12.3058919 9.09152487,11.801512 8.49207971,11.801512 Z M12.2885657,11.801512 C11.6891206,11.801512 11.1895469,12.3058678 11.1895469,12.9110803 C11.1895469,13.5162929 11.6891206,14.0206486 12.2885657,14.0206486 C12.8880109,14.0206486 13.3875365,13.5162929 13.3875365,12.9110803 C13.3875605,12.3058919 12.8880109,11.801512 12.2885657,11.801512 Z" id="Shape"></path>
            </g>
        </g>
    </g>
</svg>