<svg width="32" height="32" viewBox="0 0 32 32" xmlns="http://www.w3.org/2000/svg"><title>activity_edite</title><path d="M15.917 10.696c-.462-.28-1.973-1.07-2.871-1.57-.785-.437-1.023.5-1.098 1.142-.075.644-.075 1.476.748 1.476h3.02c.824 0 .824-.666.2-1.048zm5.32-.442c-.074-.642-.312-1.579-1.097-1.142-.9.5-2.41 1.29-2.871 1.571-.625.381-.625 1.047.2 1.047h3.02c.824 0 .824-.832.749-1.476zM7 13.954v1.887c-.001.698.233 1.05 1.165 1.05h6.888v-3.884H8.147c-.943 0-1.147.31-1.147.948zm19 .081c0-.637-.278-1.028-1.22-1.028h-6.79v3.884h6.844c.932 0 1.167-.322 1.166-1.02-.003-.637-.002-1.2 0-1.836zM7.787 25.716c.01 1.454.858 2.284 2.67 2.284h4.55v-9.671h-7.22s-.01 5.934 0 7.387zM17.99 18.33V28h4.412c1.811 0 2.627-.91 2.637-2.363.01-1.454-.003-7.308-.003-7.308H17.99z" fill="#FF7819" fill-rule="evenodd"/></svg>