<svg width="40" height="40" viewBox="0 0 40 40" xmlns="http://www.w3.org/2000/svg"><title>add_picture</title><g fill="none" fill-rule="evenodd"><path d="M-324.5-.5H51.501" stroke="#F5F5F5" stroke-linecap="square"/><path fill="#FF7819" d="M-12 0h64v40h-64z"/><path d="M16.429 12.857a2.142 2.142 0 1 0-.003 4.284 2.142 2.142 0 0 0 .003-4.284zM25.714 10H14.286A4.29 4.29 0 0 0 10 14.286v11.428c0 .253.031.499.076.74L10 26.53c.059.218.153.421.264.615.593 1.659 2.162 2.856 4.022 2.856h11.428a4.284 4.284 0 0 0 4.209-3.527 2.52 2.52 0 0 0 .077-.6V14.286A4.29 4.29 0 0 0 25.714 10zm2.857 10.9a99.688 99.688 0 0 0-1.442-2.024c-1.436-1.939-3.146-2.536-4.883-.309L20.01 21.71c-1.618-1.619-3.671-1.787-5.368.153l-3.214 3.23V14.286a2.866 2.866 0 0 1 2.857-2.857h11.428a2.866 2.866 0 0 1 2.857 2.857V20.9z" fill="#FFF"/></g></svg>