<?xml version="1.0" encoding="UTF-8"?>
<svg width="32px" height="32px" viewBox="0 0 32 32" version="1.1" xmlns="http://www.w3.org/2000/svg" xmlns:xlink="http://www.w3.org/1999/xlink">
    <!-- Generator: Sketch 43 (38999) - http://www.bohemiancoding.com/sketch -->
    <title>arrow_right</title>
    <desc>Created with Sketch.</desc>
    <defs></defs>
    <g id="Symbols" stroke="none" stroke-width="1" fill="none" fill-rule="evenodd">
        <g id="arrow_right" fill="#FF7819">
            <g transform="translate(11.000000, 10.000000)">
                <g id="进入">
                    <path d="M0.639831418,0.106705749 L6.26435249,5.72356399 C6.40841379,5.86762529 6.40841379,6.10057548 6.26435249,6.24465211 L0.627586207,11.8722383 C0.483524904,12.0162996 0.250574713,12.0162996 0.108045977,11.8722383 C-0.0360153257,11.728177 -0.0360153257,11.4952268 0.108045977,11.3526981 L5.22375479,6.24465211 C5.36781609,6.10059081 5.36781609,5.86764062 5.22375479,5.72356399 L0.120291188,0.627778546 C-0.0237701149,0.483717243 -0.0237701149,0.250767052 0.120291188,0.108238316 C0.262819923,-0.0358229865 0.495770115,-0.0358229865 0.639831418,0.106705749 L0.639831418,0.106705749 Z" id="Shape"></path>
                </g>
                <g id="进入-copy" transform="translate(4.000000, 0.000000)">
                    <path d="M0.639831418,0.106705749 L6.26435249,5.72356399 C6.40841379,5.86762529 6.40841379,6.10057548 6.26435249,6.24465211 L0.627586207,11.8722383 C0.483524904,12.0162996 0.250574713,12.0162996 0.108045977,11.8722383 C-0.0360153257,11.728177 -0.0360153257,11.4952268 0.108045977,11.3526981 L5.22375479,6.24465211 C5.36781609,6.10059081 5.36781609,5.86764062 5.22375479,5.72356399 L0.120291188,0.627778546 C-0.0237701149,0.483717243 -0.0237701149,0.250767052 0.120291188,0.108238316 C0.262819923,-0.0358229865 0.495770115,-0.0358229865 0.639831418,0.106705749 L0.639831418,0.106705749 Z" id="Shape"></path>
                </g>
            </g>
        </g>
    </g>
</svg>