<svg width="32" height="32" viewBox="0 0 32 32" xmlns="http://www.w3.org/2000/svg"><title>arrow_right</title><g fill="#FF7819" fill-rule="evenodd"><path d="M11.64 10.107l5.624 5.617a.368.368 0 0 1 0 .52l-5.636 5.628a.366.366 0 0 1-.52 0 .366.366 0 0 1 0-.52l5.116-5.107a.368.368 0 0 0 0-.521l-5.104-5.096a.368.368 0 1 1 .52-.521z"/><path d="M15.64 10.107l5.624 5.617a.368.368 0 0 1 0 .52l-5.636 5.628a.366.366 0 0 1-.52 0 .366.366 0 0 1 0-.52l5.116-5.107a.368.368 0 0 0 0-.521l-5.104-5.096a.368.368 0 1 1 .52-.521z"/></g></svg>