<svg width="32" height="32" viewBox="0 0 32 32" xmlns="http://www.w3.org/2000/svg" xmlns:xlink="http://www.w3.org/1999/xlink"><title>comments_unselect</title><defs><path d="M9 16.625a9.771 9.771 0 0 1-1.682-.15L3.375 19v-4.204C1.319 13.272 0 10.936 0 8.312 0 3.722 4.03 0 9 0s9 3.722 9 8.312c0 4.592-4.03 8.313-9 8.313zM9 1.187c4.35 0 7.875 3.19 7.875 7.125 0 3.936-3.525 7.126-7.875 7.126a8.653 8.653 0 0 1-1.901-.218L4.45 16.9l.035-2.754c-2.03-1.289-3.361-3.42-3.361-5.834 0-3.934 3.526-7.125 7.875-7.125zM5.5 10a1.5 1.5 0 1 0 0-3 1.5 1.5 0 0 0 0 3zm7 0a1.5 1.5 0 1 0 0-3 1.5 1.5 0 0 0 0 3z" id="a"/><filter x="-1.4%" y="-1.3%" width="102.8%" height="102.6%" filterUnits="objectBoundingBox" id="b"><feOffset dy="-.5" in="SourceAlpha" result="shadowOffsetInner1"/><feComposite in="shadowOffsetInner1" in2="SourceAlpha" operator="arithmetic" k2="-1" k3="1" result="shadowInnerInner1"/><feColorMatrix values="0 0 0 0 0.709803922 0 0 0 0 0.709803922 0 0 0 0 0.709803922 0 0 0 1 0" in="shadowInnerInner1"/></filter></defs><g transform="translate(7 7)" fill="none" fill-rule="evenodd"><use fill="#C9C9CE" xlink:href="#a"/><use fill="#000" filter="url(#b)" xlink:href="#a"/></g></svg>