<svg width="166" height="70" viewBox="0 0 166 70" xmlns="http://www.w3.org/2000/svg"><title>custom_act</title><g fill="none" fill-rule="evenodd"><rect fill-opacity=".05" fill="#000" width="166" height="70" rx="2"/><g opacity=".5" fill-rule="nonzero" fill="#AAA"><path d="M16.184 13.929A1.174 1.174 0 0 1 15 12.766V9.2c0-.643.53-1.163 1.184-1.163L83.831 8v2.362H17.368v2.404c0 .642-.53 1.163-1.184 1.163zm0 41.321c-.654 0-1.184.52-1.184 1.163v3.566c0 .642.53 1.163 1.184 1.163l67.647.037v-2.363H17.368v-2.403c0-.642-.53-1.163-1.184-1.163zm.075-25.093c-.654 0-1.184-.52-1.184-1.163v-5.35c0-.642.53-1.163 1.184-1.163.654 0 1.184.521 1.184 1.163v5.35c0 .642-.53 1.163-1.184 1.163z"/><path d="M16.259 24.807c-.654 0-1.184-.52-1.184-1.163 0-.642.53-1.163 1.184-1.163 2.306 0 4.183-1.843 4.183-4.108 0-2.266-1.877-4.11-4.183-4.11-.654 0-1.184-.52-1.184-1.162 0-.642.53-1.163 1.184-1.163 3.612 0 6.551 2.887 6.551 6.435 0 3.548-2.939 6.434-6.551 6.434zm0 16.145c-.654 0-1.184-.52-1.184-1.163 0-.642.53-1.162 1.184-1.162 2.306 0 4.183-1.844 4.183-4.11 0-2.265-1.877-4.108-4.183-4.108-.654 0-1.184-.52-1.184-1.163 0-.642.53-1.162 1.184-1.162 3.612 0 6.551 2.886 6.551 6.434s-2.939 6.434-6.551 6.434zm0 16.145c-.654 0-1.184-.52-1.184-1.162 0-.643.53-1.163 1.184-1.163 2.306 0 4.183-1.843 4.183-4.109s-1.877-4.109-4.183-4.109c-.654 0-1.184-.52-1.184-1.163 0-.642.53-1.162 1.184-1.162 3.612 0 6.551 2.886 6.551 6.434s-2.939 6.434-6.551 6.434z"/><path d="M16.259 46.41c-.654 0-1.184-.52-1.184-1.162v-5.35c0-.642.53-1.163 1.184-1.163.654 0 1.184.521 1.184 1.163v5.35c0 .642-.53 1.163-1.184 1.163zM151.02 13.929c.654 0 1.184-.521 1.184-1.163V9.2c0-.643-.53-1.163-1.184-1.163L83.373 8v2.362h66.463v2.404c0 .642.53 1.163 1.184 1.163zm0 41.321c.654 0 1.184.52 1.184 1.163v3.566c0 .642-.53 1.163-1.184 1.163l-67.647.037v-2.363h66.463v-2.403c0-.642.53-1.163 1.184-1.163zm0-25.575c.654 0 1.184-.52 1.184-1.162v-5.35c0-.642-.53-1.163-1.184-1.163-.654 0-1.184.52-1.184 1.163v5.35c0 .642.53 1.162 1.184 1.162z"/><path d="M151.02 24.369c.654 0 1.184-.52 1.184-1.163 0-.642-.53-1.163-1.184-1.163-2.307 0-4.184-1.843-4.184-4.109 0-2.265 1.877-4.108 4.184-4.108.654 0 1.184-.52 1.184-1.163 0-.642-.53-1.163-1.184-1.163-3.613 0-6.552 2.886-6.552 6.434s2.94 6.435 6.552 6.435zm0 15.75c.654 0 1.184-.521 1.184-1.163s-.53-1.163-1.184-1.163c-2.307 0-4.184-1.843-4.184-4.109 0-2.265 1.877-4.108 4.184-4.108.654 0 1.184-.52 1.184-1.163 0-.642-.53-1.163-1.184-1.163-3.613 0-6.552 2.886-6.552 6.434s2.94 6.435 6.552 6.435zm0 17.5c.654 0 1.184-.52 1.184-1.163 0-.642-.53-1.163-1.184-1.163-2.307 0-4.184-1.843-4.184-4.109 0-2.265 1.877-4.108 4.184-4.108.654 0 1.184-.52 1.184-1.163 0-.642-.53-1.163-1.184-1.163-3.613 0-6.552 2.886-6.552 6.434s2.94 6.435 6.552 6.435z"/><path d="M151.02 47.175c.654 0 1.184-.52 1.184-1.162v-5.35c0-.642-.53-1.163-1.184-1.163-.654 0-1.184.52-1.184 1.163v5.35c0 .642.53 1.162 1.184 1.162z"/></g></g></svg>