<?xml version="1.0" encoding="UTF-8"?>
<svg width="100px" height="100px" viewBox="0 0 100 100" version="1.1" xmlns="http://www.w3.org/2000/svg" xmlns:xlink="http://www.w3.org/1999/xlink">
    <!-- Generator: Sketch 43 (38999) - http://www.bohemiancoding.com/sketch -->
    <title>defualt_pic copy 2</title>
    <desc>Created with Sketch.</desc>
    <defs></defs>
    <g id="02_shop_0714" stroke="none" stroke-width="1" fill="none" fill-rule="evenodd">
        <g id="02_店铺列表" transform="translate(-15.000000, -357.000000)" fill-rule="nonzero" fill="#F5F5F5">
            <g id="defualt_pic-copy-2" transform="translate(15.000000, 357.000000)">
                <path d="M20.1875,30.9394337 C20.1875,23.9077442 25.88125,18.2323895 32.90625,18.2323895 C39.93125,18.2323895 45.625,23.920245 45.625,30.9331833 C45.625,37.957994 39.9306217,43.6527283 32.90625,43.6527283 C25.8818783,43.6527283 20.1875,37.957994 20.1875,30.9331833 L20.1875,30.9394337 Z M100,8.16926058 L100,91.824489 C100,96.3372711 96.3375,100 91.825,100 L8.175,100 C3.66251182,100.000001 0.00344991451,96.3435083 0,91.8307394 L0,8.17551097 C0,3.66272892 3.6625,0 8.175,0 L91.825,0 C96.3370735,0.00688384965 99.9931166,3.6631554 100,8.17551097 L100,8.16926058 Z M91.6125,8.38802425 L8.4,8.38802425 L8.4,85.0053128 L29.9,56.784799 C31.3201103,55.1318554 33.776708,54.8588831 35.525,56.15976 L51.93125,70.7481718 L84.2625,28.3330208 C85.6826103,26.6800772 88.139208,26.4071048 89.8875,27.7079817 L91.6125,29.2393275 L91.6125,8.39427464 L91.6125,8.38802425 Z" id="Shape"></path>
            </g>
        </g>
    </g>
</svg>