<svg width="32" height="35" viewBox="0 0 32 35" xmlns="http://www.w3.org/2000/svg" xmlns:xlink="http://www.w3.org/1999/xlink"><title>delete_pic</title><defs><path d="M9.59 28.09c.588 0 1.065-.474 1.065-1.06V15.37c0-.585-.477-1.06-1.066-1.06-.589 0-1.065.475-1.065 1.06v11.66c0 .587.476 1.06 1.065 1.06zm6.392 0c.59 0 1.066-.474 1.066-1.06V15.37c0-.585-.477-1.06-1.066-1.06-.589 0-1.065.475-1.065 1.06v11.66c0 .587.476 1.06 1.065 1.06zm6.393 0c.59 0 1.066-.474 1.066-1.06V15.37c0-.585-.477-1.06-1.066-1.06-.589 0-1.065.475-1.065 1.06v11.66c0 .587.476 1.06 1.065 1.06zm5.328-24.38H23.29A4.254 4.254 0 0 0 19.179.53h-6.393a4.254 4.254 0 0 0-4.111 3.18H4.262C1.912 3.71 0 5.613 0 7.95v1.06h1.065v1.06h2.131v20.14c0 2.338 1.912 4.24 4.262 4.24h17.048c2.351 0 4.262-1.902 4.262-4.24V10.07H30.9V9.01h1.066V7.95c0-2.337-1.912-4.24-4.262-4.24zM12.786 2.65h6.393c.784 0 1.465.43 1.834 1.06H10.951c.37-.63 1.05-1.06 1.835-1.06zm13.851 27.56c0 1.17-.956 2.12-2.13 2.12H7.457c-1.174 0-2.278-.95-2.278-2.12l.147-20.14h21.31v20.14zM2.131 7.95c0-1.17.956-2.12 2.13-2.12h23.442c1.175 0 2.13.95 2.13 2.12H2.132z" id="a"/><filter x="-.8%" y="-.7%" width="101.6%" height="101.5%" filterUnits="objectBoundingBox" id="b"><feOffset dy="-.5" in="SourceAlpha" result="shadowOffsetInner1"/><feComposite in="shadowOffsetInner1" in2="SourceAlpha" operator="arithmetic" k2="-1" k3="1" result="shadowInnerInner1"/><feColorMatrix values="0 0 0 0 0.709803922 0 0 0 0 0.709803922 0 0 0 0 0.709803922 0 0 0 1 0" in="shadowInnerInner1"/></filter></defs><g fill="none" fill-rule="evenodd"><use fill="#C9C9CE" xlink:href="#a"/><use fill="#000" filter="url(#b)" xlink:href="#a"/></g></svg>