<svg width="24" height="24" viewBox="0 0 24 24" xmlns="http://www.w3.org/2000/svg"><title>drafts_24@1.5x</title><g fill="#28D424" fill-rule="evenodd"><path d="M21.204 9.418a.824.824 0 0 0-1.164 1.164l.997.998h-1.852V3.597c0-.882-.715-1.597-1.597-1.597H6.412c-.882 0-1.597.715-1.597 1.597v7.983h-1.82l.987-.985a.83.83 0 1 0-1.174-1.172l-1.547 1.546a.82.82 0 0 0-.236.62v6.378a3.193 3.193 0 0 0 3.193 3.193h15.564a3.193 3.193 0 0 0 3.193-3.193V11.58a.821.821 0 0 0-.233-.626l-1.538-1.536zM6.412 3.597h11.176v7.983H6.412V3.597zm14.966 14.37c0 .882-.714 1.596-1.596 1.596H4.218a1.597 1.597 0 0 1-1.596-1.596v-4.79h18.756v4.79z"/><path d="M15.193 5.193H8.807a.798.798 0 1 0 0 1.597h6.386a.798.798 0 0 0 0-1.597zm0 3.194H8.807a.798.798 0 1 0 0 1.596h6.386a.798.798 0 0 0 0-1.596z"/></g></svg>