<?xml version="1.0" encoding="UTF-8"?>
<svg width="25px" height="25px" viewBox="0 0 25 25" version="1.1" xmlns="http://www.w3.org/2000/svg" xmlns:xlink="http://www.w3.org/1999/xlink">
    <!-- Generator: Sketch 43 (38999) - http://www.bohemiancoding.com/sketch -->
    <title>follow_shop</title>
    <desc>Created with Sketch.</desc>
    <defs></defs>
    <g id="Symbols" stroke="none" stroke-width="1" fill="none" fill-rule="evenodd">
        <g id="follow_shop" fill-rule="nonzero" fill="#FFFFFF">
            <g transform="translate(5.000000, 5.000000)" id="Shape">
                <path d="M9.9479583,13.001729 C9.32410854,13.5065879 8.63586469,14.0074749 7.89785652,14.4936991 C1.1497172,10.0517485 0.957627216,6.08023376 1.19483113,4.56398558 C1.45045463,2.92919337 2.53155038,1.62916435 3.94896498,1.25195171 C5.22875397,0.911081762 6.50756655,1.39603161 7.45729241,2.58158778 C7.56450004,2.71535735 7.72658579,2.79322272 7.89797236,2.79322272 C8.06935893,2.79322272 8.23146124,2.71535735 8.33865232,2.58158778 C9.42413369,1.22669718 10.9764432,0.79285217 12.3895549,1.4488576 C13.8259518,2.1157857 15.0504986,3.93358222 14.5483042,6.49124047 C14.4881964,6.79727373 14.6875847,7.09402272 14.9934856,7.15413049 C15.299403,7.21357627 15.5962844,7.01494924 15.6563921,6.70893253 C16.2765017,3.55090825 14.7012546,1.27709039 12.8650881,0.424625907 C11.1446192,-0.374168566 9.2910261,-0.00125879596 7.89731038,1.38479451 C6.71357466,0.214877608 5.16920889,-0.241458166 3.65848824,0.160694562 C1.80886704,0.65292619 0.403897665,2.31284053 0.0791303758,4.38942151 C-0.195789834,6.14694478 -0.0139439838,10.7617218 7.59304792,15.6422837 C7.68401863,15.7007002 7.78986059,15.7317433 7.89797236,15.7317172 C8.00395533,15.7317172 8.10993829,15.7019281 8.20289681,15.6422837 C9.09132335,15.0723522 9.91742448,14.4792679 10.658395,13.8795639 C10.9007789,13.6833862 10.9382801,13.3278203 10.7421024,13.0854364 C10.5459247,12.8430525 10.1904581,12.8055513 9.9479583,13.001729 L9.9479583,13.001729 Z"></path>
                <path d="M15.4257915,10.1400731 L13.8152608,10.1400731 L13.8152608,8.52965831 C13.8152608,8.21778308 13.5625169,7.96502264 13.2506417,7.96502264 C12.9387665,7.96502264 12.686006,8.21778308 12.686006,8.52965831 L12.686006,10.1400731 L11.0755747,10.1400731 C10.7636995,10.1400731 10.5109556,10.3928336 10.5109556,10.7047088 C10.5109556,11.016584 10.7636995,11.2693445 11.0755747,11.2693445 L12.686006,11.2693445 L12.686006,12.8798586 C12.686006,13.1917338 12.9387665,13.4444942 13.2506417,13.4444942 C13.5625169,13.4444942 13.8152608,13.1917338 13.8152608,12.8798586 L13.8152608,11.2693445 L15.4257915,11.2693445 C15.7376667,11.2693445 15.9904106,11.016584 15.9904106,10.7047088 C15.9904106,10.3928336 15.7376667,10.1400731 15.4257915,10.1400731 Z"></path>
            </g>
        </g>
    </g>
</svg>