<svg width="158" height="158" viewBox="0 0 158 158" xmlns="http://www.w3.org/2000/svg"><title>generate_code</title><g transform="translate(1 1)" fill="none" fill-rule="evenodd"><g fill="#FF7819"><path d="M75.349 40H54.65C53.74 40 53 40.74 53 41.651V62.35c0 .912.74 1.651 1.651 1.651H75.35C76.26 64 77 63.26 77 62.349V41.65C77 40.74 76.26 40 75.349 40zm-2.776 19.485H57.427v-14.97h15.146v14.97z"/><path d="M61 51a3 3 0 1 0 6 0 3 3 0 0 0-6 0zM101.349 40H80.65C79.74 40 79 40.74 79 41.651V62.35c0 .912.74 1.651 1.651 1.651h20.698c.912 0 1.651-.74 1.651-1.651V41.65c0-.912-.74-1.651-1.651-1.651zm-2.776 19.485H83.427v-14.97h15.146v14.97z"/><path d="M89 51a3 3 0 1 0 6 0 3 3 0 0 0-6 0zM75.349 66H54.65C53.74 66 53 66.74 53 67.651V88.35c0 .912.74 1.651 1.651 1.651H75.35C76.26 90 77 89.26 77 88.349V67.65C77 66.74 76.26 66 75.349 66zm-2.776 19.485H57.427v-14.97h15.146v14.97z"/><path d="M63 77a3 3 0 1 0 6 0 3 3 0 0 0-6 0zM89 86h4v4h-4zM99 90h2.697c.72 0 1.303-.56 1.303-1.25V86h-4v4z"/><path d="M101.355 66h-2.744v9.2h-4.816V66h-13.15c-.909 0-1.645.739-1.645 1.65v20.7c0 .911.736 1.65 1.645 1.65h2.83V76.482h4.614v3.406H103V67.651c0-.912-.736-1.651-1.645-1.651z"/></g><circle stroke="#FF9D4E" stroke-width="3" opacity=".5" cx="78" cy="78" r="70"/><circle stroke="#FF9D4E" opacity=".3" cx="78" cy="78" r="78"/></g></svg>