<?xml version="1.0" encoding="UTF-8"?>
<svg width="158px" height="158px" viewBox="0 0 158 158" version="1.1" xmlns="http://www.w3.org/2000/svg" xmlns:xlink="http://www.w3.org/1999/xlink">
    <!-- Generator: Sketch 46.1 (44463) - http://www.bohemiancoding.com/sketch -->
    <title>generate_code</title>
    <desc>Created with Sketch.</desc>
    <defs></defs>
    <g id="04_promoter_03" stroke="none" stroke-width="1" fill="none" fill-rule="evenodd">
        <g id="03_推广个人业绩页" transform="translate(-109.000000, -460.000000)">
            <g id="generate_code" transform="translate(110.000000, 461.000000)">
                <g id="code" transform="translate(53.000000, 40.000000)" fill="#FF7819">
                    <g id="Group">
                        <path d="M22.3487727,0 L1.65122728,0 C0.739283294,0 0,0.739283352 0,1.65122729 L0,22.3487727 C0,23.2607167 0.739283351,24 1.65122728,24 L22.3487727,24 C23.2607166,24 23.9999999,23.2607166 23.9999999,22.3487727 L24,1.65128552 C24.0000582,0.739283352 23.2607166,0 22.3487727,0 Z M19.572863,19.4854842 L4.42719515,19.4854842 L4.42719515,4.51457406 L19.572863,4.51457406 L19.572863,19.4854842 Z" id="Shape"></path>
                        <path d="M8,11 C8,12.6568542 9.34314575,14 11,14 C12.6568542,14 14,12.6568542 14,11 C14,9.34314575 12.6568542,8 11,8 C9.34314575,8 8,9.34314575 8,11 Z" id="Shape"></path>
                        <path d="M48.3487727,0 L27.6512273,0 C26.7392833,0 26,0.739283352 26,1.65122729 L26,22.3487727 C26,23.2607167 26.7392834,24 27.6512273,24 L48.3487727,24 C49.2607166,24 49.9999999,23.2607166 49.9999999,22.3487727 L50,1.65128552 C50.0000582,0.739283352 49.2607166,0 48.3487727,0 Z M45.572863,19.4854842 L30.4271952,19.4854842 L30.4271952,4.51457406 L45.572863,4.51457406 L45.572863,19.4854842 Z" id="Shape"></path>
                        <path d="M36,11 C36,12.6568542 37.3431458,14 39,14 C40.6568542,14 42,12.6568542 42,11 C42,9.34314575 40.6568542,8 39,8 C37.3431458,8 36,9.34314575 36,11 Z" id="Shape"></path>
                        <path d="M22.3487727,26 L1.65122728,26 C0.739283294,26 0,26.7392834 0,27.6512273 L0,48.3487727 C0,49.2607167 0.739283351,50 1.65122728,50 L22.3487727,50 C23.2607166,50 23.9999999,49.2607166 23.9999999,48.3487727 L24,27.6512273 C24.0000582,26.7392834 23.2607749,26 22.3487727,26 Z M19.572863,45.4854843 L4.42719515,45.4854843 L4.42719515,30.5145741 L19.572863,30.5145741 L19.572863,45.4854843 Z" id="Shape"></path>
                        <path d="M10,37 C10,38.6568542 11.3431458,40 13,40 C14.6568542,40 16,38.6568542 16,37 C16,35.3431458 14.6568542,34 13,34 C11.3431458,34 10,35.3431458 10,37 Z" id="Shape"></path>
                        <polygon id="Shape" points="36 46 40 46 40 50 36 50"></polygon>
                        <path d="M46,50 L48.6966896,50 C49.4164598,50 50,49.4399444 50,48.7490871 L50,46 L46,46 L46,50 Z" id="Shape"></path>
                        <path d="M48.3553274,26 L45.6112087,26 L45.6112087,35.2007347 L40.7954385,35.2007347 L40.7954385,26 L27.6446725,26 C26.7363486,26 26,26.7390286 26,27.6506584 L26,48.3493416 C26,49.2609714 26.7363487,50 27.6446725,50 L30.4750689,50 L30.4750689,44.7216899 L30.4750689,39.8883926 L30.4750689,36.4817914 L35.0885188,36.4817914 L35.0885188,39.8883926 L50,39.8883926 L50,27.6507166 C50.000058,26.7390286 49.2637093,26 48.3553274,26 Z" id="Shape"></path>
                    </g>
                </g>
                <circle id="Oval-2" stroke="#FF9D4E" stroke-width="3" opacity="0.5" cx="78" cy="78" r="70"></circle>
                <circle id="Oval-2" stroke="#FF9D4E" opacity="0.3" cx="78" cy="78" r="78"></circle>
            </g>
        </g>
    </g>
</svg>