<svg width="24" height="24" viewBox="0 0 24 24" xmlns="http://www.w3.org/2000/svg"><title>goods_13 copy</title><g fill="none" fill-rule="evenodd"><path stroke="#979797" d="M-171.5-50.5h390v358h-390z"/><path d="M15.719 12.463a1.25 1.25 0 0 1-.904-.387l-1.937-2.04a1.247 1.247 0 0 1 .045-1.76l2.037-1.935a1.25 1.25 0 0 1 1.76.045l1.938 2.04a1.247 1.247 0 0 1-.045 1.76l-2.037 1.936c-.231.22-.538.342-.857.34zm.098-5.814a.597.597 0 0 0-.41.163L13.37 8.747a.597.597 0 0 0-.021.843l1.937 2.04a.59.59 0 0 0 .433.183.591.591 0 0 0 .41-.162l2.037-1.935a.597.597 0 0 0 .021-.843l-1.937-2.04a.59.59 0 0 0-.433-.184zm-5.415-.123c.244 0 .454.084.628.254.173.17.26.376.26.62v3.527a.856.856 0 0 1-.26.628.856.856 0 0 1-.628.261H6.875a.833.833 0 0 1-.62-.26.87.87 0 0 1-.255-.629V7.4c0-.244.085-.451.254-.62a.847.847 0 0 1 .62-.254h3.528zm0 7.053a.87.87 0 0 1 .628.254c.173.17.26.376.26.62v3.542a.832.832 0 0 1-.26.62.87.87 0 0 1-.628.254H6.875a.844.844 0 0 1-.62-.254.847.847 0 0 1-.255-.62v-3.541c0-.245.085-.452.254-.621a.847.847 0 0 1 .62-.254h3.528zm7.067 0c.245 0 .452.085.62.254.17.17.255.376.255.62v3.542a.843.843 0 0 1-.254.62.846.846 0 0 1-.62.254h-3.528a.868.868 0 0 1-.628-.254.834.834 0 0 1-.26-.62v-3.541c0-.245.086-.452.26-.621a.87.87 0 0 1 .628-.254h3.527z" fill-opacity=".3" fill="#000" fill-rule="nonzero"/></g></svg>