<svg width="24" height="25" viewBox="0 0 24 25" xmlns="http://www.w3.org/2000/svg"><title>hot_20 copy@1.5x</title><defs><linearGradient x1="50%" y1="0%" x2="50%" y2="100%" id="a"><stop stop-color="#FBDA61" offset="0%"/><stop stop-color="#F76B1C" offset="100%"/></linearGradient></defs><g transform="translate(-155 -473)" fill="url(#a)"><path d="M173.405 485.575c-1.088-.156-1.817.216-2.236.555a2.874 2.874 0 0 0-1.03 2.007c-.038.532.213 1.379.766 1.968.414.442.93.675 1.496.675a.655.655 0 1 0 .007-1.31c-.206 0-.383-.085-.548-.26-.3-.32-.428-.802-.416-.982.023-.327.179-.782.547-1.08.316-.255.73-.349 1.23-.277 1.374.196 2.336 1.18 2.45 2.506.063.723-.29 1.423-.943 1.87-.875.6-2.043.618-3.204.049-.974-.478-1.848-.738-2.617-.853a3.24 3.24 0 0 0 .494-2.014c-.166-1.927-1.601-3.41-3.571-3.69-1.088-.155-1.817.216-2.236.555a2.874 2.874 0 0 0-1.03 2.007c-.038.532.213 1.379.766 1.968.414.442.93.675 1.496.675a.655.655 0 1 0 .007-1.31c-.207.001-.383-.084-.548-.26-.3-.32-.428-.802-.416-.982.023-.326.179-.782.547-1.08.316-.255.73-.348 1.23-.277 1.374.196 2.336 1.18 2.45 2.506.063.724-.29 1.423-.943 1.87a5.252 5.252 0 0 0-1.538.463c-.534 0-1.1-.137-1.666-.414-4.296-2.105-6.626.014-6.723.106a.655.655 0 1 0 .896.954c.004-.004.421-.37 1.22-.562 1.165-.278 2.559-.044 4.031.678.74.362 1.487.545 2.226.545a4.06 4.06 0 0 0 1.963-.487c1.02-.079 2.178.186 3.386.778.74.362 1.487.545 2.226.545a4.01 4.01 0 0 0 2.294-.69c.5-.343.905-.8 1.169-1.322a3.24 3.24 0 0 0 .34-1.74c-.167-1.927-1.602-3.41-3.572-3.69z"/><path d="M162.922 484.388c.005-.005.481-.433 1.39-.639 1.214-.274 2.651-.03 4.158.709.702.344 1.411.518 2.11.518a3.747 3.747 0 0 0 2.146-.643c.97-.664 1.491-1.72 1.396-2.825a3.723 3.723 0 0 0-1.06-2.328c-.6-.608-1.392-.997-2.288-1.125-.787-.112-1.49.06-2.035.5a2.607 2.607 0 0 0-.933 1.821c-.033.475.195 1.236.696 1.771.363.388.814.592 1.305.592h.009a.393.393 0 0 0-.002-.785h-.007c-.272 0-.518-.116-.732-.344-.345-.368-.504-.921-.486-1.179.035-.494.276-.967.644-1.265.375-.303.856-.415 1.43-.333 1.5.214 2.55 1.29 2.676 2.743.07.818-.324 1.607-1.057 2.109-.94.645-2.237.67-3.467.067-.938-.46-1.854-.746-2.722-.852a5.685 5.685 0 0 0-2.012.097c-1.094.26-1.67.794-1.695.816a.394.394 0 0 0-.018.556.392.392 0 0 0 .554.019z"/></g></svg>