<svg width="32" height="32" viewBox="0 0 32 32" xmlns="http://www.w3.org/2000/svg" xmlns:xlink="http://www.w3.org/1999/xlink"><title>like_unselect</title><defs><path d="M.996 16.928A.994.994 0 0 1 0 15.936V7.548c0-.548.446-.993.996-.993s.996.445.996.993v8.388a.994.994 0 0 1-.996.992z" id="a"/><filter x="-12.6%" y="-2.4%" width="125.1%" height="104.8%" filterUnits="objectBoundingBox" id="b"><feOffset dy="-.5" in="SourceAlpha" result="shadowOffsetInner1"/><feComposite in="shadowOffsetInner1" in2="SourceAlpha" operator="arithmetic" k2="-1" k3="1" result="shadowInnerInner1"/><feColorMatrix values="0 0 0 0 0.709803922 0 0 0 0 0.709803922 0 0 0 0 0.709803922 0 0 0 1 0" in="shadowInnerInner1"/></filter><path d="M12.977 2.915c0-.994-.815-1.807-1.817-1.807-.994 0-1.815.805-1.814 1.73l-.003.085c-.12 1.603-.963 2.804-2.257 3.608a6.899 6.899 0 0 1-2.324.9V15.7a.116.116 0 0 0-.095-.116l8.17 1.28c.144.013.285.02.424.02.752 0 1.33-.216 1.764-.586.315-.269.53-.608.585-.826l.03-.098 1.303-3.624c.557-1.521.531-2.615.03-3.33-.267-.381-.652-.637-1.129-.79a3.034 3.034 0 0 0-.9-.15h-3.31l.703-1.563a7.41 7.41 0 0 0 .6-2.113 5.653 5.653 0 0 0 .046-.754l-.006-.134zm.644 2.772c-.078.22-.168.45-.274.684h1.597c.333 0 1.994.069 2.937 1.412.739 1.054.773 2.517.102 4.348l-1.3 3.617c-.186.721-1.178 2.243-3.422 2.243-.168 0-.345-.008-.53-.026l-8.236-1.287a.992.992 0 0 1-.841-.98V7.364c0-.48.345-.92.82-1.005.593-.106 3.558-.77 3.764-3.518C8.235 1.308 9.548 0 11.16 0a2.924 2.924 0 0 1 2.926 2.915c.003.017.073.995-.327 2.348l-.138.424z" id="c"/><filter x="-1.7%" y="-1.4%" width="103.4%" height="102.8%" filterUnits="objectBoundingBox" id="d"><feOffset dy="-.5" in="SourceAlpha" result="shadowOffsetInner1"/><feComposite in="shadowOffsetInner1" in2="SourceAlpha" operator="arithmetic" k2="-1" k3="1" result="shadowInnerInner1"/><feColorMatrix values="0 0 0 0 0.709803922 0 0 0 0 0.709803922 0 0 0 0 0.709803922 0 0 0 1 0" in="shadowInnerInner1"/></filter></defs><g fill="none" fill-rule="evenodd"><g transform="translate(7 7)"><use fill="#C9C9CE" xlink:href="#a"/><use fill="#000" filter="url(#b)" xlink:href="#a"/></g><g fill-rule="nonzero" transform="translate(7 7)"><use fill="#C9C9CE" fill-rule="evenodd" xlink:href="#c"/><use fill="#000" filter="url(#d)" xlink:href="#c"/></g></g></svg>