<?xml version="1.0" encoding="UTF-8"?>
<svg width="32px" height="32px" viewBox="0 0 32 32" version="1.1" xmlns="http://www.w3.org/2000/svg" xmlns:xlink="http://www.w3.org/1999/xlink">
    <!-- Generator: Sketch 43 (38999) - http://www.bohemiancoding.com/sketch -->
    <title>like_unselect</title>
    <desc>Created with Sketch.</desc>
    <defs>
        <path d="M0.995843495,16.9282568 C0.446072284,16.9282568 0,16.4836506 0,15.9357536 L0,7.54750323 C0,6.99952299 0.446072284,6.555 0.995843495,6.555 C1.54563556,6.555 1.99164527,6.99952299 1.99164527,7.54750323 L1.99164527,15.9357744 C1.99162439,16.4836506 1.54561471,16.9282568 0.995843495,16.9282568 Z" id="path-1"></path>
        <filter x="-12.6%" y="-2.4%" width="125.1%" height="104.8%" filterUnits="objectBoundingBox" id="filter-2">
            <feOffset dx="0" dy="-0.5" in="SourceAlpha" result="shadowOffsetInner1"></feOffset>
            <feComposite in="shadowOffsetInner1" in2="SourceAlpha" operator="arithmetic" k2="-1" k3="1" result="shadowInnerInner1"></feComposite>
            <feColorMatrix values="0 0 0 0 0.709803922   0 0 0 0 0.709803922   0 0 0 0 0.709803922  0 0 0 1 0" type="matrix" in="shadowInnerInner1"></feColorMatrix>
        </filter>
        <path d="M12.9774158,2.91541453 C12.9774158,1.92092047 12.1618701,1.10833333 11.1599581,1.10833333 C10.1663285,1.10833333 9.34476334,1.91323103 9.34633796,2.83856101 L9.34323276,2.92337537 C9.22295699,4.52634947 8.37959504,5.72718291 7.08600914,6.5311296 C6.31170849,7.01234732 5.49478323,7.29064504 4.76217949,7.43189456 L4.76217949,15.6987571 C4.76217949,15.6403344 4.72065753,15.5918508 4.66682219,15.5833258 L12.8372904,16.862276 C12.9811432,16.8762499 13.1220833,16.8829529 13.2610819,16.8829529 C14.0133633,16.8829529 14.5906502,16.6669245 15.0246691,16.2967304 C15.3397541,16.0279804 15.5540798,15.688843 15.6102945,15.4709731 L15.6404546,15.3730422 L16.9426961,11.7494418 C17.500175,10.2280074 17.4744073,9.13370103 16.973491,8.41990363 C16.7056588,8.03801883 16.3207519,7.7817214 15.8441353,7.62821551 C15.5084916,7.52011334 15.1851354,7.47932355 14.9434457,7.47932355 L11.6332569,7.47932355 L12.3366122,5.91619709 C12.6622958,5.19240281 12.8530762,4.47593381 12.9378073,3.80262202 C12.9670643,3.57013326 12.9810805,3.36130408 12.9835984,3.18225338 C12.9843217,3.13082334 12.9840114,3.08602466 12.983004,3.04909512 L12.9774158,2.91541453 Z M13.621432,5.68655435 C13.5434405,5.90784046 13.4527496,6.13672441 13.3473377,6.37099022 L14.0639917,6.37099022 L14.9434457,6.37099022 C15.2773478,6.37099022 16.9383041,6.43951115 17.8809002,7.78349863 C18.6200002,8.83670371 18.654344,10.2995786 17.9833681,12.1307613 L16.6834802,15.7478759 C16.4974272,16.4689572 15.5048387,17.9912863 13.2610819,17.9912863 C13.0931188,17.9912863 12.916163,17.983488 12.7301309,17.9654168 L4.49528883,16.6783048 C4.01107537,16.6033789 3.65384615,16.1872208 3.65384615,15.6987571 L3.65384615,7.36349345 C3.65384615,6.88278642 3.99934926,6.44342069 4.47461165,6.35805548 C5.06653012,6.25206119 8.03186027,5.58785533 8.23800623,2.84044704 C8.23539812,1.30778267 9.54757548,0 11.1599581,0 C12.7729667,0 14.0857492,1.30778265 14.0857492,2.91541453 C14.0888689,2.93185414 14.1587945,3.910384 13.7587522,5.26265689 L13.621432,5.68655435 Z" id="path-3"></path>
        <filter x="-1.7%" y="-1.4%" width="103.4%" height="102.8%" filterUnits="objectBoundingBox" id="filter-4">
            <feOffset dx="0" dy="-0.5" in="SourceAlpha" result="shadowOffsetInner1"></feOffset>
            <feComposite in="shadowOffsetInner1" in2="SourceAlpha" operator="arithmetic" k2="-1" k3="1" result="shadowInnerInner1"></feComposite>
            <feColorMatrix values="0 0 0 0 0.709803922   0 0 0 0 0.709803922   0 0 0 0 0.709803922  0 0 0 1 0" type="matrix" in="shadowInnerInner1"></feColorMatrix>
        </filter>
    </defs>
    <g id="Symbols" stroke="none" stroke-width="1" fill="none" fill-rule="evenodd">
        <g id="like_unselect">
            <g transform="translate(7.000000, 7.000000)" id="Shape">
                <g>
                    <use fill="#C9C9CE" fill-rule="evenodd" xlink:href="#path-1"></use>
                    <use fill="black" fill-opacity="1" filter="url(#filter-2)" xlink:href="#path-1"></use>
                </g>
                <g fill-rule="nonzero">
                    <use fill="#C9C9CE" fill-rule="evenodd" xlink:href="#path-3"></use>
                    <use fill="black" fill-opacity="1" filter="url(#filter-4)" xlink:href="#path-3"></use>
                </g>
            </g>
        </g>
    </g>
</svg>