<?xml version="1.0" encoding="UTF-8"?>
<svg width="24px" height="24px" viewBox="0 0 24 24" version="1.1" xmlns="http://www.w3.org/2000/svg" xmlns:xlink="http://www.w3.org/1999/xlink">
    <!-- Generator: Sketch 46.1 (44463) - http://www.bohemiancoding.com/sketch -->
    <title>location</title>
    <desc>Created with Sketch.</desc>
    <defs></defs>
    <g id="my_order" stroke="none" stroke-width="1" fill="none" fill-rule="evenodd" fill-opacity="0.3">
        <g id="02-订单详情_等待发货" transform="translate(-10.000000, -148.000000)" fill="#000000">
            <g id="location" transform="translate(10.000000, 148.000000)">
                <path d="M11.9968159,20.9149092 C11.9250639,20.9715571 11.8385852,21 11.7520849,21 C11.6655846,21 11.5791059,20.9715571 11.5073539,20.9149092 C11.2416681,20.7057942 5,14.9291126 5,9.75068403 C5,6.0282086 8.02915455,3 11.7520633,3 C15.474972,3 18.5041265,6.0282086 18.5041265,9.75068403 C18.5041697,14.9291126 12.2625232,20.7057942 11.9968159,20.9149092 L11.9968159,20.9149092 Z M11.7521065,6.597478 C10.011958,6.597478 8.6013325,8.00848482 8.6013325,9.74891041 C8.6013325,11.4894442 10.011958,12.9003428 11.7521065,12.9003428 C13.492255,12.9003428 14.9028805,11.4893576 14.9028805,9.74891041 C14.9028589,8.00848482 13.4921685,6.597478 11.7521065,6.597478 L11.7521065,6.597478 Z"></path>
            </g>
        </g>
    </g>
</svg>