<svg width="32" height="32" viewBox="0 0 32 32" xmlns="http://www.w3.org/2000/svg"><title>login_btn_weixin</title><g fill-rule="nonzero" fill="#FFF"><path d="M23.755 15.258c-.624 0-1.236.64-1.236 1.292 0 .65.612 1.289 1.236 1.289.927 0 1.5-.67 1.5-1.289 0-.621-.573-1.292-1.5-1.292zm-5.554 0c-.628 0-1.244.64-1.244 1.292 0 .65.616 1.289 1.244 1.289.923 0 1.494-.67 1.494-1.289 0-.621-.571-1.292-1.494-1.292z"/><path d="M31 18.933c0-2.031-.889-3.995-2.502-5.528-1.543-1.467-3.595-2.392-5.785-2.61C21.77 6.35 17.091 3 11.822 3 5.855 3 1 7.254 1 12.484c0 2.76 1.357 5.258 3.926 7.231l-.852 2.611a.718.718 0 0 0 .205.758.69.69 0 0 0 .766.098l3.327-1.697.35.072c1.056.221 1.967.412 3.1.412.329 0 .667-.015 1.005-.044a.676.676 0 0 0 .199-.048c.67 1.532 1.83 2.836 3.362 3.778 1.569.965 3.408 1.475 5.318 1.475.994 0 1.959-.222 2.941-.471l2.54 1.415a.687.687 0 0 0 .77-.07.71.71 0 0 0 .228-.753l-.623-2.114C29.78 23.308 31 21.107 31 18.933zm-4.658 5.378a.718.718 0 0 0-.247.768l.273.925-1.292-.72a.682.682 0 0 0-.504-.066c-.945.243-1.922.495-2.865.495-4.368 0-7.922-3.042-7.922-6.78 0-3.739 3.554-6.78 7.922-6.78 4.284 0 7.904 3.105 7.904 6.78 0 1.853-1.16 3.763-3.269 5.378zm-14.52-3.758c-1.003 0-1.85-.178-2.83-.384l-.578-.12a.665.665 0 0 0-.449.061l-2.044 1.042.485-1.482a.712.712 0 0 0-.262-.803c-2.492-1.77-3.755-3.917-3.755-6.383 0-4.45 4.231-8.069 9.433-8.069 4.446 0 8.477 2.715 9.448 6.338-2.335.095-4.524.952-6.178 2.421-1.739 1.544-2.696 3.59-2.696 5.76 0 .516.062 1.05.185 1.591-.25.019-.505.028-.758.028z"/><path d="M16.115 10.097c.886 0 1.48-.65 1.48-1.616 0-.963-.594-1.61-1.48-1.61-.834 0-1.734.616-1.734 1.61.002.998.901 1.616 1.734 1.616zM9.12 6.87c-.835 0-1.737.616-1.737 1.61 0 .998.902 1.616 1.737 1.616.884 0 1.477-.65 1.477-1.616 0-.963-.594-1.61-1.477-1.61z"/></g></svg>