<svg width="24" height="24" viewBox="0 0 24 24" xmlns="http://www.w3.org/2000/svg"><title>message_24@1.5x</title><g transform="translate(-25 -301)" fill="none" fill-rule="evenodd"><path d="M31.07 311.087c0 .835.688 1.512 1.536 1.512.848 0 1.536-.677 1.536-1.512 0-.836-.688-1.513-1.536-1.513-.848 0-1.536.677-1.536 1.513zm4.394 0c0 .835.688 1.512 1.536 1.512.848 0 1.536-.677 1.536-1.512 0-.836-.688-1.513-1.536-1.513-.848 0-1.536.677-1.536 1.513zm4.394 0c0 .835.688 1.512 1.536 1.512.848 0 1.536-.677 1.536-1.512 0-.836-.688-1.513-1.536-1.513-.848 0-1.536.677-1.536 1.513zm.256 9.307c4.559-1.146 7.886-4.744 7.886-9.006 0-5.185-4.925-9.388-11-9.388s-11 4.203-11 9.388c0 4.261 3.327 7.86 7.886 9.006L37 324l3.114-3.606zm-5.436-2.097c-3.52-.86-6.098-3.628-6.098-6.91 0-3.968 3.77-7.185 8.42-7.185s8.42 3.217 8.42 7.186c0 3.28-2.575 6.045-6.093 6.907l-2.272 2.595c.034 0-.033 0 0 0l-2.377-2.593z" fill="#00BFD7"/><circle stroke="#FFF" fill="#F00" cx="49" cy="301" r="5"/></g></svg>