<svg width="32" height="32" viewBox="0 0 32 32" xmlns="http://www.w3.org/2000/svg"><title>my_fans</title><path d="M16 0C7.163 0 0 7.163 0 16s7.163 16 16 16 16-7.163 16-16S24.836 0 16 0zm-1.836 24.532h-.043c-1.886-.004-3.653-.277-4.977-.767-.759-.282-1.362-.632-1.792-1.04-.524-.5-.8-1.101-.8-1.741a7.546 7.546 0 0 1 1.24-4.138 7.592 7.592 0 0 1 2.384-2.31 4.673 4.673 0 0 1-.948-2.822A4.678 4.678 0 0 1 13.9 7.04a4.678 4.678 0 0 1 3.86 7.308 7.572 7.572 0 0 1 2.612 2.358l.04.059a4.016 4.016 0 0 0-2.116-.577c-.74.006-1.427.22-1.933.602-.61.463-.947 1.16-.947 1.964 0 1.315.892 2.901 2.652 4.713.167.172.333.337.496.495-1.238.369-2.775.569-4.4.569zm9.199-1.461a19.225 19.225 0 0 1-1.99 1.773.566.566 0 0 1-.682 0c-.04-.03-1.008-.763-1.99-1.773-1.382-1.424-2.083-2.67-2.083-3.705 0-.632.264-1.18.744-1.544.397-.3.937-.469 1.52-.473.642-.005 1.29.188 1.779.53.133.093.253.196.36.307.148-.157.324-.298.526-.418.42-.248.938-.396 1.46-.417.547-.021 1.055.092 1.469.328.626.357.971.957.971 1.687 0 1.034-.701 2.28-2.084 3.705z" fill="#28D524" fill-rule="evenodd"/></svg>