<svg width="32" height="32" viewBox="0 0 32 32" xmlns="http://www.w3.org/2000/svg"><title>my_team</title><path d="M8.41 26.666a.763.763 0 0 1-.758-.766v-1.82a8.921 8.921 0 0 1 5.6-8.319l.231-.093-.195-.154a5.307 5.307 0 0 1-2.025-4.181c0-2.933 2.366-5.318 5.273-5.318 2.908 0 5.273 2.385 5.273 5.318a5.306 5.306 0 0 1-2.025 4.18l-.195.155.23.093a8.921 8.921 0 0 1 5.602 8.318v1.82c0 .423-.34.767-.758.767H8.41zm8.127-9.635c-3.767 0-6.832 3.09-6.832 6.887v.981h13.661v-.981c0-3.798-3.063-6.887-6.829-6.887zm0-9.243c-1.935 0-3.51 1.587-3.51 3.537s1.575 3.537 3.51 3.537c1.934 0 3.508-1.586 3.508-3.537 0-1.95-1.574-3.537-3.509-3.537zm9.98 16a6.34 6.34 0 0 0-.164-1.322h1.385v-.852c0-2.57-1.889-4.802-4.593-5.43l-.195-.043c-.353-.11-.598-.398-.598-.715 0-.308.225-.585.572-.706 1.122-.468 1.842-1.496 1.842-2.622 0-1.247-1.29-2.314-2.53-2.708a5.429 5.429 0 0 0-.923-1.595 5.932 5.932 0 0 0-.07-.106c2.638.014 4.78 1.987 4.78 4.41 0 1.089-.442 2.137-1.246 2.952l-.143.145.183.087c2.578 1.227 4.179 3.653 4.177 6.331v1.409c0 .422-.38.765-.846.765h-1.631zm-21.659 0c-.466 0-.846-.343-.846-.765v-1.409c0-2.678 1.601-5.104 4.178-6.33l.184-.088-.143-.145c-.804-.815-1.246-1.863-1.246-2.953 0-2.422 2.142-4.394 4.78-4.408l-.07.106a5.46 5.46 0 0 0-.923 1.595c-1.187.379-2.366 1.416-2.366 2.707 0 1.126.72 2.154 1.834 2.62.355.124.58.401.58.708 0 .318-.245.606-.61.718l-.181.04c-2.706.628-4.595 2.86-4.595 5.43v.851h1.22c-.102.48-.156.84-.164 1.323H4.858z" fill="#606060" fill-rule="evenodd"/></svg>