<svg width="24" height="24" viewBox="0 0 24 24" xmlns="http://www.w3.org/2000/svg"><title>my_wallet@1.5x</title><path d="M18.4 20.18H4.14c-1.18 0-2.14-.961-2.14-2.141V5.14C2 3.96 2.96 3 4.14 3h14.326c1.18 0 2.14.96 2.14 2.14v2.097a.713.713 0 1 1-1.427 0V5.14a.714.714 0 0 0-.713-.713H4.14a.715.715 0 0 0-.713.713V18.04c0 .394.32.713.713.713H18.4c.394 0 .714-.32.714-.713v-2.206a.713.713 0 1 1 1.427 0v2.206c0 1.18-.96 2.14-2.14 2.14zm-3.776-8.615a.699.699 0 1 1 1.397 0 .699.699 0 0 1-1.397 0zm5.928 2.807h-7.135c-.787 0-1.427-.64-1.427-1.427v-2.854c0-.787.64-1.427 1.427-1.427h7.135c.787 0 1.427.64 1.427 1.427v2.854c0 .787-.64 1.427-1.427 1.427zm-7.135-4.28v2.853h7.137l-.002-2.854h-7.135z" fill="#EB3833" fill-rule="evenodd"/></svg>