<svg width="62" height="46" viewBox="0 0 62 46" xmlns="http://www.w3.org/2000/svg"><title>order_finished</title><g fill-rule="nonzero" fill="#61B837" opacity=".3"><path d="M8.005 20.361v.013c.857-.24 1.431-1.283 2.094-1.693.673-.417 1.386-.145 2.179-.451.356-.137.787-.314 1.211-.353l-.049.34.478-.23-.16-.244a1.392 1.392 0 0 0-.024-.024c.355-.013.71-.61 1.065-.621l.012-.135-.245-.194-.049-.06 1.543-.89c.208-.13.392-.357.636-.439.383-.127.476.282.881.183.905-.22 4.498-2.293 4.995-2.922.1-.128 5.418-1.865 8.079-3.033 2.409-1.057 2.19-1.55 2.179-1.729-.306-.102-.667.134-.918.231-.755.276-4.79 1.99-5.546 2.265-.42.164-3.72 1.7-6.61 2.874-1.62.659-3.516 1.2-3.72 1.328-.483.3-1.827 1.453-2.375 1.693-.21.092-.467.1-.698.194l-.367.195-1.151.293c-.391.098-.802.11-1.138.255-.454.195-.653.635-1.029.901-.13.093-.29.161-.477.195l-.33-.012c-.244.039-.432.128-.772.122.048.5.545 1.354.306 1.948zm-.697-1.108l-.514-.122c-.106.171-.702 1.194-.808 1.364l.232.049c.365.076.96-1.066 1.09-1.29zM34.556 7.587a.498.498 0 0 0-.404-.816c-.21.083-.452.066-.612.195-.16.129-.371.702-.404.998.36.078 1.255-.171 1.42-.377zm1.016-.11c.164.027.49-.19.649-.256l1.75-.718c.596-.251 1.278-.435 1.934-.633l.906-.256 2.46-1.56 1.53-.681 1.518-.694c.14-.434.269-.631.747-.719l.38-.024c.38-.089.8-.255 1.113-.439l1.139-.67c.344.314.407.587.306 1.194l.808.463-.05.036c.096.186.312.289.405.5.054.125.11.34.073.535l-.037.17.808 1.694c.128.256.264.52.428.743l.404.523.025.268c.049.23.11.467.208.658.148.289.377.574.624.767l.343.256c.29.36.664 1.375.722 1.949h.024c.123-.367.448-.592.539-.999.098-.442-.014-1.02-.097-1.364-.26-1.054-.458-1.75-1.03-2.472l-.623-.658-.22-.195c-.224-.373-.26-.965-.49-1.351-.229-.383-.635-.558-.833-.89L51.191.84c-.183-.413-.323-.834-.919-.84-.321.134-1.095.295-1.59.22-.282-.044-.639-.116-.943-.062-.185.033-.36.101-.49.195-.08.059-.133.17-.244.195-.4.09-.426-.335-.809-.22-.411.208-.824.415-1.236.622-.649.33-1.404.598-1.958 1.035-.391.308-.476.892-.918 1.157-.397.238-1.01.009-1.506.134-.564.143-.943.542-1.383.816-.773.48-1.71.756-2.498 1.23-.265.16-.59.376-.44.828-1.014-.01-1.07.546-1.334 1.267.132.09.474.032.649.06zM2.534 25.562c-.28-.42-.714-1.41-.771-2.01.179-.44.906-.792 1.395-1.01l.025-.257c-.31-.121-.107-.462-.417-.584l-.049.146c-.159-.183-.11-.639-.306-.78-.144.115-.301.2-.416.342-.28.348-.97.932-1.591.913a3.3 3.3 0 0 0-.404.816l.122-.036.257 1.156.05.695c.124.613.462.937 1.052 1.084-.062.359-.056.578.074.913.281.083.617.03.844-.073.14-.609.363-.974.135-1.315zm59.405-4.54c-.152-.677-.208-1.37-.417-1.972-.423-1.227-1.068-.761-1.53-1.928-.201-.51-.154-1.264-.416-1.705-.243-.409-.597-.668-.881-1.023a7.136 7.136 0 0 1-.563-.852c-.241-.411-.475-1.17-.845-1.425-.408-.281-.922-.388-1.31-.694-.21-.167-.576-.79-.967-.633-.367.146-.444.657-.195.986.181.241.45.404.611.67.14.23.169.494.282.767.246.596.524 1.176.796 1.79l.942 1.717.024.025-.122.121.208.195v.049c-.087.024-.178-.004-.257-.024.07.172.222.448.123.62-.055.096-.146.157-.172.28.1-.005.5.792.588.939.232.401.465-.606.697-.204.148.168.391.16.477.402.053.147-.046.282-.024.415l.27 1.023c-.03.149-.314.24-.429.316-.318.207-.327 1.274-.645 1.48-.148.045-1.075.598-1.222.643-.202.089-1.042.305-1.146.537-.154.067-1.024.463-1.332.88-.043.23.064.47.134.646-.122 0-.77-.687-.892-.687a2.365 2.365 0 0 0-.843-.034c-.43.082-.452.637-.766.833-.388.19-.16.72-.546.91-.3.187-.505.477-.796.658-.251.156-.562.23-.845.353-.996.504-1.991-.402-2.987.101l-1.86.963c-.05.02-.174-.005-.209.012-.13.064-.154.245-.318.292-.05-.038-.064-.08-.097-.134v-.024l-.22.305c-.138.066-.422.069-.6.072-.027.35-.27.173-.515.244l-.342.158c-.857.406-1.714 2.22-2.571 2.627-.73.353-.724-.377-1.454-.024-.163.077-.814.19-.978.268-.136-.09-1.144.796-1.26.865-.214.126-.46.807-2.044 1.114-1.241.241-1.839.484-3.041.885-1.112.37-2.565 1.316-3.668 1.765-1.504.611-2.96 1.247-4.033 1.784-1.074.537-1.792 1.233-1.968 1.335-.082.037-.09.544-.172.58-.064.015-.089-.041-.11-.036-.172.081-.02-.49-.19-.41-.16.032-.595-.064-.742 0-.51.24-1.02-.154-1.53.086l-.391.218c-.738.143-.934.77-1.673.912-.02.243-.75.09-.924.193-.118.081-.455.556-.573.637-.09.139-.434.151-.573.235-.329.199-.388.143-.674.369-.266.21-.314.214-.59.419-.135-.077-.246-.186-.428-.22-.308-.056-.973.606-1.14.707-.188.06-.183.006-.371.067-.106-.231-.197.433-.303.201-.213-.022-.59-.465-.814-.419l-1.436-2.958-3.978-8.269-1.297-2.642-.392-.804c-.053-.005-.106-.008-.16-.012l-.17-.293c-.165.046-.268.192-.405.244l-.636-.049v.012c.473 1.207 1.046 2.271 1.554 3.422l.698 1.705c.094.153.25.223.355.354l.184.462.918 1.9c.179.3.574.392.612.816l.233-.11c.233.135.522.573.452.987-.07.413-.17.787.025 1.169.52 1.016.955 2.19 1.432 3.264.301.677.732 1.274 1.126 1.863l.771 1.181c.168.2.442.326.674.463.425.251 1.144-.48 1.86-.605.917-.161 1.92-.405 2.73-.719.503-.194.969-.375 1.444-.584l1.212-.633c.463-.203 1.017-.364 1.029-1.01.776.136.036.628 1.823-.11.19.032 1.379-.515 1.624-.576.224-.055.318-.522.489-.639.295-.202.054-.331.46-.405.1-.019 1.103-.262 2.62-.862 1.407-.557 2.24-.982 3.506-1.543 1.699-.752 1.69-1.39 3.273-2.016 1.569-.62 3.177-.706 3.293-.742.177-.056.998-.135 1.101-.268.067-.085.104-.223.209-.268l1.395-.414c.233-.058.498-.45.698-.536l.722-.45c.282-.116.544-.141.771-.293.252-.168.39-.492.636-.646.151-.048.303-1.305.453-1.353.335-.105.688 1.173.943.982a1.6 1.6 0 0 0 .391-.438c.08-.132.1-.36.221-.45.201-.15.658.028.771-.232.118-.27.013-.04.013-.338.033.02.479-.26.511-.24l.209-.247c.112-.06.696.247.64-.301.077-.125.392-.16.337-.336 0-.036.337-.265.337-.302.514.107.16-.298.622-.094.461.206 1.01.567 1.726.354.386-.115.719-.324 1.064-.475.559-.244 1.166-.475 1.519-.926.444-.567.827-.374 1.408-.77.452-.31.225.05.91-.537.228-.196.418-.371.29-.42-.01-.013-.017-.83-.025-.842.024-.037.048.732.073.695l.037-.024c.168.146.936.618 1.163.657.373.066 1.053-.306 1.285-.426.868-.45 1.756-.994 2.605-1.451.295-.16.705-.86.957-1.059l.232-.23c.136-.09.288-.129.356-.281.063-.143-.001-.303-.05-.402l.454-.731c.138-.177.449-.256.526-.487v-.56a4.509 4.509 0 0 0-.061-.342zm-56.712.046l.306-.646c-.11-.11-.355-.22-.527-.256-.228.162-.74.809-.856 1.072l-.05.049c.303.049.825-.268 1.127-.22zm-2.228 6.88v.025h.012c-.02-.225-.198-.719-.318-.829-.053.025-.718.293-.771.317-.016.123.978.357 1.077.487z"/><path d="M18.084 21l3.134 6.545c.276.795.04 1.39-.707 1.788l-10.308 4.77 1.929 4.027c.06.125.176.15.346.07l11.588-5.362L25 34.79l-12.868 5.955c-.962.495-1.642.272-2.04-.67l-4.22-8.811 2.433-1.126.934 1.951L18.074 28c.276-.076.344-.261.203-.555l-1.688-3.524-11.715 5.42L4 27.518 18.084 21zM20 19.51l5.961-2.744-.328-.683 2.663-1.225.329.681L34.142 13l1.433 2.977-2.22 1.022-.567-1.179-9.576 4.408.567 1.179-2.346 1.08L20 19.51zm3.097 5.468l-.866-1.798 13.761-6.335.866 1.799-13.761 6.334zm.22 1.262l14.396-6.626.865 1.798-2.853 1.314 1.432 2.977c.058.227.224.25.5.073l2.537-1.168.806 1.674-3.741 1.722c-1.208.606-1.985.384-2.336-.667l-1.671-3.473-2.727 1.256.638 4.706c.025.695-.407 1.247-1.294 1.656L26.57 33l-.776-1.613 2.22-1.021.156.004c.231-.056.329-.227.295-.515l-.478-3.568-3.805 1.752-.866-1.799zM44.875 8.777l-.538-1.14 2.35-1.102.538 1.14 1.016-.478c.274-.076.362-.272.265-.588l-.112-.566L50.617 5l.523 1.765c.456 1.076.157 1.758-.896 2.045l-1.906.894 3.446 5.654.38-.179c.275-.076.342-.263.202-.559l-2.122-4.495 2.096-.984 2.6 5.509c.606.953.37 1.605-.706 1.955l-1.333.626.456.637c.2.423.521.504.968.242l1.778-.834.897 1.899-3.43 1.61c-.914.583-1.61.369-2.088-.645l-5.557-9.303-5.59 2.622.63 1.33 3.492-1.64c1.083-.662 1.84-.373 2.272.868l3.139 6.648c.665 1.08.374 1.836-.87 2.265l-2.477 1.163-.837-1.773 1.27-.597c.358-.116.448-.365.269-.744l-2.242-4.75c-.258-.652-.693-.808-1.308-.468l-1.842.864 3.08 6.522c.5.95.232 1.643-.804 2.078L42.456 26l-.837-1.773.254-.12c.358-.116.448-.364.269-.744L37 12.473l7.875-3.696z"/></g></svg>