<svg width="48" height="48" viewBox="0 0 48 48" xmlns="http://www.w3.org/2000/svg"><title>payment_zhifubao_36</title><path d="M26.119 28.972s-2.605 2.084-3.553 2.63a11.75 11.75 0 0 1-2.31 1.02c-.697.222-1.308.361-1.832.419-.525.057-.959.094-1.303.11a.283.283 0 0 1-.123.025h-.393a9.77 9.77 0 0 1-2.545-.32c-.795-.213-1.487-.529-2.077-.947a4.607 4.607 0 0 1-1.402-1.573c-.344-.631-.516-1.365-.516-2.2a3.744 3.744 0 0 1 .59-1.967c.377-.59.865-1.09 1.463-1.5a6.94 6.94 0 0 1 1.992-.935 6.739 6.739 0 0 1 2.2-.27c.721.033 1.418.118 2.09.257.672.14 1.316.308 1.93.505.614.196 1.196.41 1.745.64.55.23 1.07.45 1.561.663a23.966 23.966 0 0 0 1.279.493c.475-.607.876-1.2 1.204-1.783a18.5 18.5 0 0 0 1.304-2.815c.115-.328.188-.557.221-.688H16.973v-1.18h5.04v-2.729h-7.007v-1.18h7.007v-2.213c0-.147.082-.266.246-.356.164-.09.353-.152.566-.185.246-.05.524-.074.835-.074h1.893v2.828h7.203v1.18h-7.203v2.728h5.725l.003-.024v.024h-.003a14.04 14.04 0 0 1-.587 2.312c-.229.705-.57 1.508-1.02 2.409-.451.901-1.045 1.828-1.783 2.778 0 0 5.643 2.7 11.599 3.65a17.452 17.452 0 0 0 1.54-7.191C41.027 13.84 33.185 6 23.514 6 13.84 6 6 13.841 6 23.513s7.841 17.513 17.514 17.513c5.999 0 11.294-3.017 14.45-7.616-3.207-.7-6.614-2.114-11.845-4.438zm-13.768-.787c-.066 3.005 3.334 3.228 3.858 3.245 1.734.053 3.133-.602 4.222-1.249 1.09-.647 2.868-2.32 2.934-2.377.065-.057.131-.118.196-.184a28.644 28.644 0 0 0-1.401-.725c-.459-.221-2.79-1.474-4.86-1.688-3.917-.406-4.93 2.064-4.95 2.978z" fill="#459BFF" fill-rule="evenodd"/></svg>