<svg width="120" height="131" viewBox="0 0 120 131" xmlns="http://www.w3.org/2000/svg"><title>payment_success</title><g fill="none" fill-rule="evenodd"><path fill="#FF7819" opacity=".304" d="M92.341 73.036h4.141v7.772h-4.141z"/><path d="M112.04 63.223l-.744.919c0 5.19-4.243 9.448-9.448 9.448H18.153c-5.19 0-9.448-4.243-9.448-9.448V48.219c0-5.19 4.243-9.448 9.448-9.448h83.695c5.19 0 9.448 4.243 9.448 9.448l.744 9.07" fill-opacity=".3" fill="#FF7819"/><path d="M96.482 73.765V58.41s.262-5.555 3.091-5.555h-3.762l-3.776 2.216-.744 5.92.19 12.408.218.423-.029-.423 4.812.365z" fill="#FF7819"/><path d="M101.483 74.509H17.79c-5.716 0-10.367-4.652-10.367-10.367V48.219c0-5.716 4.651-10.367 10.367-10.367h83.694c5.716 0 10.367 4.651 10.367 10.367v9.813H110V48.22c0-4.695-3.82-8.515-8.516-8.515H17.79c-4.695 0-8.516 3.82-8.516 8.515v15.923c0 4.695 3.82 8.515 8.516 8.515h83.694c4.695 0 8.516-3.82 8.516-8.515v-1.765h1.851v1.765c0 5.715-4.651 10.367-10.367 10.367z" fill="#FF9D4E"/><path d="M1.866 59.767H.015V48.22c0-9.798 7.975-17.774 17.774-17.774h83.694c9.799 0 17.774 7.976 17.774 17.774v7.845h-1.851V48.22c0-8.778-7.145-15.922-15.923-15.922H17.79c-8.778 0-15.923 7.144-15.923 15.922v11.548zm99.617 22.149H17.79C7.99 81.916.015 73.94.015 64.142h1.851c0 8.777 7.145 15.922 15.923 15.922h83.694c8.778 0 15.923-7.145 15.923-15.922h1.851c0 9.798-7.975 17.774-17.774 17.774zm-21.2-58.324a1.808 1.808 0 1 0 3.616 0 1.808 1.808 0 0 0-3.616 0z" fill="#FF9D4E"/><path d="M108.424 23.971a1.808 1.808 0 1 0 3.616 0 1.808 1.808 0 0 0-3.616 0z" fill="#FF7819"/><path d="M8.72 19.888a1.414 1.414 0 1 0 2.828 0 1.414 1.414 0 0 0-2.829 0z" fill="#FF9D4E"/><path d="M52.04 13.969a1.852 1.852 0 1 0 3.703 0 1.852 1.852 0 0 0-3.704 0z" fill="#FF7819"/><path d="M31.67 22.294a1.298 1.298 0 1 0 2.595 0 1.298 1.298 0 0 0-2.595 0z" fill="#FF9D4E"/><path d="M92.035 55.072l-.54 74.436H27.427l1.283-74.8s1.385-.54 1.487-1.488h64.069c-.102.934-2.231 1.852-2.231 1.852z" fill="#FFF"/><path d="M98.523 52.477c-5.54 0-6.75 3.762-6.998 5.92H27.47c.248-2.158 1.459-5.92 7-5.92h64.053z" fill="#FF7819" opacity=".304"/><path d="M59.636 115.295c-11.768 0-21.352-9.584-21.352-21.351 0-11.768 9.584-21.335 21.352-21.335s21.352 9.584 21.352 21.352c0 2.2-.33 4.367-.988 6.43l-2.513-.798c.572-1.82.866-3.708.866-5.632 0-10.312-8.388-18.7-18.7-18.7s-18.7 8.388-18.7 18.7 8.371 18.7 18.683 18.7a18.71 18.71 0 0 0 12.253-4.575l1.733 1.993a21.35 21.35 0 0 1-13.986 5.216z" fill="#04D800" opacity=".225"/><path d="M42.34 93.96c0 9.554 7.743 17.298 17.296 17.298 9.553 0 17.297-7.744 17.297-17.297a17.297 17.297 0 1 0-34.594 0z" fill="#04D800"/><path d="M56.412 102.54c-.329 0-.675-.122-.935-.382L47.4 94.065a1.318 1.318 0 0 1 0-1.872c.52-.52 1.352-.52 1.872 0l7.14 7.14L70 85.747c.52-.52 1.352-.52 1.872 0s.52 1.352 0 1.872L57.348 102.14c-.26.26-.589.399-.936.399z" fill="#FFF"/><path d="M29.089 123.209h-1.487a.747.747 0 0 1-.744-.744c0-.408.335-.743.744-.743h1.487c.408 0 .744.335.744.743a.747.747 0 0 1-.744.744zm56.151 0h-2.814a.747.747 0 0 1-.744-.744c0-.408.336-.743.744-.743h2.814c.408 0 .744.335.744.743a.747.747 0 0 1-.744.744zm-7.028 0h-2.814a.747.747 0 0 1-.744-.744c0-.408.336-.743.744-.743h2.814c.408 0 .744.335.744.743a.747.747 0 0 1-.744.744zm-7.013 0h-2.814a.747.747 0 0 1-.744-.744c0-.408.335-.743.744-.743h2.814c.408 0 .743.335.743.743a.747.747 0 0 1-.743.744zm-7.014 0h-2.814a.747.747 0 0 1-.743-.744c0-.408.335-.743.743-.743h2.814c.409 0 .744.335.744.743a.747.747 0 0 1-.744.744zm-7.028 0h-2.814a.747.747 0 0 1-.743-.744c0-.408.335-.743.743-.743h2.814c.409 0 .744.335.744.743a.747.747 0 0 1-.744.744zm-7.013 0H47.33a.747.747 0 0 1-.744-.744c0-.408.335-.743.744-.743h2.814c.408 0 .743.335.743.743a.747.747 0 0 1-.743.744zm-7.014 0h-2.814a.747.747 0 0 1-.743-.744c0-.408.335-.743.743-.743h2.814c.409 0 .744.335.744.743a.747.747 0 0 1-.744.744zm-7.028 0h-2.814a.747.747 0 0 1-.743-.744c0-.408.335-.743.743-.743h2.814c.409 0 .744.335.744.743a.747.747 0 0 1-.744.744zm54.825 0h-1.488a.747.747 0 0 1-.743-.744c0-.408.335-.743.743-.743h1.488c.408 0 .743.335.743.743a.747.747 0 0 1-.743.744z" fill="#FFAC90"/><path fill="#FF9D4E" d="M27.602 64.696h63.69v1.487h-63.69z"/><path d="M29.089.03l1.108 2.011a9.36 9.36 0 0 0 3.777 3.791l2.012 1.109-2.012 1.108a9.6 9.6 0 0 0-3.777 3.776l-1.108 2.012-1.108-2.012a9.6 9.6 0 0 0-3.777-3.776L22.192 6.94l2.012-1.109a9.6 9.6 0 0 0 3.777-3.776L29.089.029zm37.4 8.019l.773 1.414a6.66 6.66 0 0 0 2.639 2.64l1.414.772-1.414.773a6.66 6.66 0 0 0-2.64 2.639L66.49 17.7l-.773-1.414a6.66 6.66 0 0 0-2.639-2.64l-1.414-.772 1.414-.773a6.66 6.66 0 0 0 2.64-2.639l.772-1.414zM93.887.642l1.006 1.837a8.681 8.681 0 0 0 3.44 3.44l1.838 1.007-1.837 1.006a8.681 8.681 0 0 0-3.441 3.441l-1.006 1.837-1.006-1.837a8.681 8.681 0 0 0-3.442-3.441l-1.837-1.006L89.44 5.92a8.681 8.681 0 0 0 3.442-3.441L93.887.642z" fill-opacity=".3" fill="#FF7819"/><path d="M90.387 110.246v18.14H28.535V59.781c0-.03-.233-2.756 1.4-4.55.991-1.093 2.522-1.647 4.534-1.647h58.018c-.058.058-.102.102-.146.16-2.143 2.377-1.998 5.672-1.954 6.183v42.911h2.217V59.782c0-.03-.234-2.756 1.4-4.55.99-1.093 2.522-1.647 4.534-1.647a1.108 1.108 0 1 0 0-2.216H34.469c-2.683 0-4.768.802-6.197 2.376-2.143 2.377-1.997 5.672-1.953 6.183v69.565c0 .613.495 1.108 1.108 1.108h64.068c.613 0 1.109-.495 1.109-1.108v-19.247h-2.217z" fill="#FF9D4E"/></g></svg>