<?xml version="1.0" encoding="UTF-8"?>
<svg width="48px" height="48px" viewBox="0 0 48 48" version="1.1" xmlns="http://www.w3.org/2000/svg" xmlns:xlink="http://www.w3.org/1999/xlink">
    <!-- Generator: Sketch 43 (38999) - http://www.bohemiancoding.com/sketch -->
    <title>payment_weixin_36</title>
    <desc>Created with Sketch.</desc>
    <defs></defs>
    <g id="02_shop_0714" stroke="none" stroke-width="1" fill="none" fill-rule="evenodd">
        <g id="08_收银台" transform="translate(-20.000000, -218.000000)" fill="#7ED321">
            <g id="payment_weixin_36" transform="translate(26.000000, 224.000000)">
                <path d="M18.0000206,36 C8.07419175,36 0,27.9242455 0,17.9997327 C0,8.07579562 8.07419179,0 18.0000206,0 C27.9241222,0 36,8.07575447 36,17.9997327 C36,27.9242866 27.9241222,36 18.0000206,36 L18.0000206,36 Z M21.6817717,15.6827304 C21.9578869,15.6827304 22.2317449,15.70412 22.5,15.7352209 C21.7625908,12.2465916 18.0950545,9.65853659 13.9129764,9.65853659 C9.23360857,9.65853659 5.4,12.9012269 5.4,17.0197009 C5.4,19.3929998 6.6767812,21.3455143 8.80653686,22.861059 L7.95573905,25.4634146 L10.9312942,23.9452885 C11.9948016,24.1592251 12.8478164,24.3797178 13.9130167,24.3797178 C14.1790144,24.3797178 14.4439238,24.3671381 14.7054473,24.3455027 C14.5404634,23.7664684 14.4439238,23.1614143 14.4439238,22.5332906 C14.4438432,18.7517227 17.6365419,15.6827304 21.6817717,15.6827304 L21.6817717,15.6827304 Z M17.673774,13.1707317 C18.409361,13.1707317 18.9,13.5177318 18.9,14.0470501 C18.9,14.5740391 18.4094074,14.9268293 17.673774,14.9268293 C16.937537,14.9268293 16.2,14.5740392 16.2,14.0470501 C16.2000465,13.5177318 16.937537,13.1707317 17.673774,13.1707317 L17.673774,13.1707317 Z M11.3789738,14.9268293 C10.6433868,14.9268293 9.9,14.5740392 9.9,14.0470501 C9.9,13.5177651 10.6433404,13.1707317 11.3789738,13.1707317 C12.1132609,13.1707317 12.6,13.5177318 12.6,14.0470501 C12.6,14.5740392 12.1132609,14.9268293 11.3789738,14.9268293 L11.3789738,14.9268293 Z M29.7,21.965486 C29.7,18.5707989 26.3124631,15.804878 22.5072599,15.804878 C18.475876,15.804878 15.3,18.5707988 15.3,21.965486 C15.3,25.3660415 18.4758359,28.1244057 22.5072599,28.1244057 C23.3504941,28.1244057 24.1993437,27.9128608 25.0470703,27.6996679 L27.3718907,28.9756098 L26.7330173,26.8540911 C28.4351286,25.5758581 29.7,23.8791175 29.7,21.965486 L29.7,21.965486 Z M20.599857,21.0731707 C20.2015181,21.0731707 19.8,20.6377953 19.8,20.1951843 C19.8,19.756607 20.2015181,19.3170732 20.599857,19.3170732 C21.2042725,19.3170732 21.6,19.7566485 21.6,20.1951843 C21.6,20.6378368 21.2042725,21.0731707 20.599857,21.0731707 L20.599857,21.0731707 Z M25.0956656,21.0731707 C24.6994266,21.0731707 24.3,20.6377953 24.3,20.1951843 C24.3,19.756607 24.6993887,19.3170732 25.0956656,19.3170732 C25.6974239,19.3170732 26.1,19.7566485 26.1,20.1951843 C26.1000379,20.6378368 25.6974239,21.0731707 25.0956656,21.0731707 L25.0956656,21.0731707 Z" id="Shape"></path>
            </g>
        </g>
    </g>
</svg>