<?xml version="1.0" encoding="UTF-8"?>
<svg width="120px" height="131px" viewBox="0 0 120 131" version="1.1" xmlns="http://www.w3.org/2000/svg" xmlns:xlink="http://www.w3.org/1999/xlink">
    <!-- Generator: Sketch 43 (38999) - http://www.bohemiancoding.com/sketch -->
    <title>payment_success</title>
    <desc>Created with Sketch.</desc>
    <defs></defs>
    <g id="02_shop_0714" stroke="none" stroke-width="1" fill="none" fill-rule="evenodd">
        <g id="09_支付成功页" transform="translate(-128.000000, -95.000000)">
            <g id="payment_success" transform="translate(128.000000, 95.000000)">
                <g id="Group" transform="translate(0.000000, 0.000000)">
                    <polygon id="Shape" fill="#FF7819" opacity="0.30395154" points="92.3410498 73.0358943 96.4820349 73.0358943 96.4820349 80.8075317 92.3410498 80.8075317"></polygon>
                    <path d="M112.039891,63.2229263 L111.296263,64.1415251 C111.296263,69.3323373 107.053211,73.5899698 101.847818,73.5899698 L18.1532618,73.5899698 C12.9624496,73.5899698 8.70481711,69.3469182 8.70481711,64.1415251 L8.70481711,48.219146 C8.70481711,43.0283338 12.9478687,38.7707013 18.1532618,38.7707013 L101.847818,38.7707013 C107.03863,38.7707013 111.296263,43.0137529 111.296263,48.219146 L112.039891,57.2884865" id="Shape" fill-opacity="0.3" fill="#FF7819"></path>
                    <path d="M96.4820349,73.764941 L96.4820349,58.4112183 C96.4820349,58.4112183 96.7444916,52.8558828 99.5731927,52.8558828 L95.8113119,52.8558828 L92.0348502,55.0721846 L91.2912226,60.9920435 L91.4807748,73.4004176 L91.6994888,73.8232647 L91.6703269,73.4004176 L96.4820349,73.764941 Z" id="Shape" fill="#FF7819"></path>
                    <path d="M101.483295,74.5085685 L17.7887385,74.5085685 C12.0730127,74.5085685 7.42169499,69.8572509 7.42169499,64.1415251 L7.42169499,48.219146 C7.42169499,42.5034202 12.0730127,37.8521025 17.7887385,37.8521025 L101.483295,37.8521025 C107.199021,37.8521025 111.850338,42.5034202 111.850338,48.219146 L111.850338,58.0321141 L109.99856,58.0321141 L109.99856,48.219146 C109.99856,43.5240855 106.178355,39.703881 101.483295,39.703881 L17.7887385,39.703881 C13.093678,39.703881 9.2734735,43.5240855 9.2734735,48.219146 L9.2734735,64.1415251 C9.2734735,68.8365855 13.093678,72.65679 17.7887385,72.65679 L101.483295,72.65679 C106.178355,72.65679 109.99856,68.8365855 109.99856,64.1415251 L109.99856,62.3772321 L111.850338,62.3772321 L111.850338,64.1415251 C111.850338,69.8572509 107.199021,74.5085685 101.483295,74.5085685 Z" id="Shape" fill="#FF9D4E"></path>
                    <path d="M1.86635945,59.7672451 L0.0145809332,59.7672451 L0.0145809332,48.219146 C0.0145809332,38.4207589 7.99035138,30.4449885 17.7887385,30.4449885 L101.483295,30.4449885 C111.281682,30.4449885 119.257452,38.4207589 119.257452,48.219146 L119.257452,56.0636881 L117.405674,56.0636881 L117.405674,48.219146 C117.405674,39.4414243 110.261017,32.296767 101.483295,32.296767 L17.7887385,32.296767 C9.01101671,32.296767 1.86635945,39.4414243 1.86635945,48.219146 L1.86635945,59.7672451 L1.86635945,59.7672451 Z M101.483295,81.9156826 L17.7887385,81.9156826 C7.99035138,81.9156826 0.0145809332,73.9399122 0.0145809332,64.1415251 L1.86635945,64.1415251 C1.86635945,72.9192468 9.01101671,80.0639041 17.7887385,80.0639041 L101.483295,80.0639041 C110.261017,80.0639041 117.405674,72.9192468 117.405674,64.1415251 L119.257452,64.1415251 C119.257452,73.9399122 111.281682,81.9156826 101.483295,81.9156826 L101.483295,81.9156826 Z" id="Shape" fill="#FF9D4E"></path>
                    <path d="M80.2826181,23.5919499 C80.282618,24.2378989 80.6272277,24.8347804 81.1866359,25.1577549 C81.7460441,25.4807294 82.4352635,25.4807294 82.9946717,25.1577549 C83.5540799,24.8347804 83.8986896,24.2378989 83.8986895,23.5919499 C83.8986896,22.9460009 83.5540799,22.3491194 82.9946717,22.0261449 C82.4352635,21.7031704 81.7460441,21.7031704 81.1866359,22.0261449 C80.6272277,22.3491194 80.282618,22.9460009 80.2826181,23.5919499 L80.2826181,23.5919499 Z" id="Shape" fill="#FF9D4E"></path>
                    <path d="M108.423819,23.9710541 C108.423819,24.6170031 108.768429,25.2138847 109.327837,25.5368592 C109.887245,25.8598337 110.576465,25.8598337 111.135873,25.5368592 C111.695281,25.2138847 112.039891,24.6170031 112.039891,23.9710541 C112.039891,22.9725036 111.230405,22.1630184 110.231855,22.1630184 C109.233304,22.1630184 108.423819,22.9725036 108.423819,23.9710541 L108.423819,23.9710541 Z" id="Shape" fill="#FF7819"></path>
                    <path d="M8.71939804,19.8883929 C8.71939804,20.6695171 9.35262434,21.3027434 10.1337486,21.3027434 C10.9148728,21.3027434 11.5480991,20.6695171 11.5480991,19.8883929 C11.5480991,19.1072686 10.9148728,18.4740423 10.1337486,18.4740423 C9.35262434,18.4740423 8.71939804,19.1072686 8.71939804,19.8883929 L8.71939804,19.8883929 Z" id="Shape" fill="#FF9D4E"></path>
                    <path d="M52.0393505,13.968534 C52.0393505,14.991243 52.86842,15.8203125 53.891129,15.8203125 C54.9138381,15.8203125 55.7429075,14.991243 55.7429075,13.968534 C55.7429075,12.945825 54.9138381,12.1167555 53.891129,12.1167555 C52.86842,12.1167555 52.0393505,12.945825 52.0393505,13.968534 L52.0393505,13.968534 Z" id="Shape" fill="#FF7819"></path>
                    <path d="M31.6697869,22.2942468 C31.6697869,23.0109484 32.2507883,23.5919499 32.9674899,23.5919499 C33.6841915,23.5919499 34.265193,23.0109484 34.265193,22.2942468 C34.265193,21.5775452 33.6841915,20.9965438 32.9674899,20.9965438 C32.2507883,20.9965438 31.6697869,21.5775452 31.6697869,22.2942468 Z" id="Shape" fill="#FF9D4E"></path>
                    <path d="M92.0348502,55.0721846 L91.4953557,129.507849 L27.4267353,129.507849 L28.7098574,54.7076613 C28.7098574,54.7076613 30.0950461,54.1681668 30.1971126,53.2204061 L94.265733,53.2204061 C94.1636665,54.1535858 92.0348502,55.0721846 92.0348502,55.0721846 L92.0348502,55.0721846 Z" id="Shape" fill="#FFFFFF"></path>
                    <path d="M98.5233655,52.4767785 C92.9826109,52.4767785 91.7723934,56.2386593 91.5245176,58.3966374 L27.4704781,58.3966374 C27.718354,56.2386593 28.9285714,52.4767785 34.469326,52.4767785 L98.5233655,52.4767785 Z" id="Shape" fill="#FF7819" opacity="0.30395154"></path>
                    <path d="M59.6360167,115.295326 C47.8682918,115.295326 38.2842684,105.711302 38.2842684,93.9435775 C38.2842684,82.1758526 47.8682918,72.6091602 59.6360167,72.6091602 C71.4037416,72.6091602 80.987765,82.1931835 80.987765,93.9609084 C80.987765,96.1619409 80.6584766,98.3283115 79.9999,100.390696 L77.4869101,99.5934719 C78.058832,97.7737206 78.3534584,95.8846455 78.3534584,93.9609084 C78.3534584,83.6489846 69.9652715,75.2607977 59.6533477,75.2607977 C49.3414238,75.2607977 40.953237,83.6489846 40.953237,93.9609084 C40.953237,104.272832 49.3240928,112.661019 59.6360167,112.661019 C64.1420675,112.661019 68.4921396,111.031908 71.8890086,108.085644 L73.6221051,110.078705 C69.739969,113.440913 64.7833132,115.295326 59.6360167,115.295326 Z" id="Shape" fill="#04D800" opacity="0.224524457"></path>
                    <path d="M42.3392978,93.9609085 C42.3392978,103.513623 50.0833026,111.257627 59.6360167,111.257627 C69.1887308,111.257627 76.9327356,103.513623 76.9327356,93.9609085 C76.9327358,87.7813858 73.6359999,82.0712714 68.2843763,78.98151 C62.9327528,75.8917487 56.3392806,75.8917487 50.9876571,78.98151 C45.6360335,82.0712714 42.3392976,87.7813858 42.3392978,93.9609085 L42.3392978,93.9609085 Z" id="Shape" fill="#04D800"></path>
                    <path d="M56.4124573,102.539736 C56.083169,102.539736 55.7365497,102.418419 55.4765852,102.158455 L47.4003558,94.0648942 C46.8804268,93.5449653 46.8804268,92.713079 47.4003558,92.19315 C47.9202847,91.6732211 48.752171,91.6732211 49.2720999,92.19315 L56.4124573,99.3335074 L69.9999335,85.7460313 C70.5198624,85.2261023 71.3517487,85.2261023 71.8716776,85.7460313 C72.3916066,86.2659602 72.3916066,87.0978465 71.8716776,87.6177754 L57.3483294,102.141124 C57.0883649,102.401088 56.7590766,102.539736 56.4124573,102.539736 L56.4124573,102.539736 Z" id="Shape" fill="#FFFFFF"></path>
                    <path d="M29.0889617,123.208885 L27.6017065,123.208885 C27.1934404,123.208885 26.8580789,122.873524 26.8580789,122.465258 C26.8580789,122.056992 27.1934404,121.72163 27.6017065,121.72163 L29.0889617,121.72163 C29.4972278,121.72163 29.8325893,122.056992 29.8325893,122.465258 C29.8325893,122.873524 29.4972278,123.208885 29.0889617,123.208885 Z M85.2401354,123.208885 L82.4260153,123.208885 C82.0177491,123.208885 81.6823877,122.873524 81.6823877,122.465258 C81.6823877,122.056992 82.0177491,121.72163 82.4260153,121.72163 L85.2401354,121.72163 C85.6484015,121.72163 85.983763,122.056992 85.983763,122.465258 C85.983763,122.873524 85.6484015,123.208885 85.2401354,123.208885 Z M78.2121256,123.208885 L75.3980055,123.208885 C74.9897393,123.208885 74.6543779,122.873524 74.6543779,122.465258 C74.6543779,122.056992 74.9897393,121.72163 75.3980055,121.72163 L78.2121256,121.72163 C78.6203917,121.72163 78.9557532,122.056992 78.9557532,122.465258 C78.9557532,122.873524 78.6203917,123.208885 78.2121256,123.208885 Z M71.1986967,123.208885 L68.3845766,123.208885 C67.9763105,123.208885 67.640949,122.873524 67.640949,122.465258 C67.640949,122.056992 67.9763105,121.72163 68.3845766,121.72163 L71.1986967,121.72163 C71.6069628,121.72163 71.9423243,122.056992 71.9423243,122.465258 C71.9423243,122.873524 71.6069628,123.208885 71.1986967,123.208885 Z M64.1852679,123.208885 L61.3711478,123.208885 C60.9628816,123.208885 60.6275202,122.873524 60.6275202,122.465258 C60.6275202,122.056992 60.9628816,121.72163 61.3711478,121.72163 L64.1852679,121.72163 C64.593534,121.72163 64.9288954,122.056992 64.9288954,122.465258 C64.9288954,122.873524 64.593534,123.208885 64.1852679,123.208885 Z M57.1572581,123.208885 L54.343138,123.208885 C53.9348718,123.208885 53.5995104,122.873524 53.5995104,122.465258 C53.5995104,122.056992 53.9348718,121.72163 54.343138,121.72163 L57.1572581,121.72163 C57.5655242,121.72163 57.9008857,122.056992 57.9008857,122.465258 C57.9008857,122.873524 57.5655242,123.208885 57.1572581,123.208885 L57.1572581,123.208885 Z M50.1438292,123.208885 L47.3297091,123.208885 C46.921443,123.208885 46.5860815,122.873524 46.5860815,122.465258 C46.5860815,122.056992 46.921443,121.72163 47.3297091,121.72163 L50.1438292,121.72163 C50.5520953,121.72163 50.8874568,122.056992 50.8874568,122.465258 C50.8874568,122.873524 50.5520953,123.208885 50.1438292,123.208885 Z M43.1304003,123.208885 L40.3162802,123.208885 C39.9080141,123.208885 39.5726526,122.873524 39.5726526,122.465258 C39.5726526,122.056992 39.9080141,121.72163 40.3162802,121.72163 L43.1304003,121.72163 C43.5386665,121.72163 43.8740279,122.056992 43.8740279,122.465258 C43.8740279,122.873524 43.5386665,123.208885 43.1304003,123.208885 Z M36.1023906,123.208885 L33.2882704,123.208885 C32.8800043,123.208885 32.5446429,122.873524 32.5446429,122.465258 C32.5446429,122.056992 32.8800043,121.72163 33.2882704,121.72163 L36.1023906,121.72163 C36.5106567,121.72163 36.8460181,122.056992 36.8460181,122.465258 C36.8460181,122.873524 36.5106567,123.208885 36.1023906,123.208885 Z M90.9266993,123.208885 L89.4394441,123.208885 C89.031178,123.208885 88.6958165,122.873524 88.6958165,122.465258 C88.6958165,122.056992 89.031178,121.72163 89.4394441,121.72163 L90.9266993,121.72163 C91.3349654,121.72163 91.6703269,122.056992 91.6703269,122.465258 C91.6703269,122.873524 91.3349654,123.208885 90.9266993,123.208885 Z" id="Shape" fill="#FFAC90"></path>
                    <polygon id="Shape" fill="#FF9D4E" points="27.6017065 64.6956005 91.2912226 64.6956005 91.2912226 66.1828557 27.6017065 66.1828557"></polygon>
                    <path d="M29.0889617,0.0291618664 L30.1971126,2.04133065 C31.0573877,3.64523329 32.3696717,4.95751728 33.9735743,5.83237327 L35.9857431,6.94052419 L33.9735743,8.04867512 C32.3842526,8.92353111 31.0719686,10.2358151 30.1971126,11.8251368 L29.0889617,13.8373056 L27.9808108,11.8251368 C27.1059548,10.2358151 25.7936708,8.92353111 24.2043491,8.04867512 L22.1921803,6.94052419 L24.2043491,5.83237327 C25.7936708,4.95751728 27.1059548,3.64523329 27.9808108,2.05591158 L29.0889617,0.0291618664 L29.0889617,0.0291618664 Z M66.4890553,8.04867512 L67.2618448,9.46302563 C67.874244,10.5711766 68.7782618,11.4897753 69.9009937,12.1021745 L71.3153442,12.874964 L69.9009937,13.6477535 C68.7928427,14.2601526 67.874244,15.1641705 67.2618448,16.2869024 L66.4890553,17.7012529 L65.7162658,16.2869024 C65.1038666,15.1787514 64.1998488,14.2601526 63.0771169,13.6477535 L61.6627664,12.874964 L63.0771169,12.1021745 C64.1852679,11.4897753 65.1038666,10.5857575 65.7162658,9.46302563 L66.4890553,8.04867512 Z" id="Shape" fill-opacity="0.3" fill="#FF7819"></path>
                    <path d="M93.8866287,0.64156106 L94.8927131,2.47875864 C95.6946645,3.93685196 96.890301,5.13248848 98.3338134,5.91985887 L100.171011,6.92594326 L98.3338134,7.93202765 C96.87572,8.73397897 95.6800835,9.9296155 94.8927131,11.3731279 L93.8866287,13.2103255 L92.8805444,11.3731279 C92.078593,9.91503456 90.8829565,8.71939804 89.4394441,7.93202765 L87.6022465,6.92594326 L89.4394441,5.91985887 C90.8975374,5.11790755 92.093174,3.92227103 92.8805444,2.47875864 L93.8866287,0.64156106 Z" id="Shape" fill-opacity="0.3" fill="#FF7819"></path>
                    <path d="M90.3872048,110.246436 L90.3872048,128.385117 L28.5348862,128.385117 L28.5348862,59.8838926 L28.5348862,59.781826 C28.5348862,59.7526642 28.3015913,57.0260297 29.9346558,55.2325749 C30.9261593,54.1390049 32.4571573,53.5849294 34.469326,53.5849294 L92.4868592,53.5849294 C92.4285354,53.6432532 92.3847926,53.686996 92.3410498,53.7453197 C90.1976526,56.1220118 90.343462,59.4173027 90.3872048,59.9276354 L90.3872048,102.839322 L92.6035066,102.839322 L92.6035066,59.8838926 L92.6035066,59.781826 C92.6035066,59.7526642 92.3702117,57.0260297 94.0032762,55.2325749 C94.9947797,54.1390049 96.5257776,53.5849294 98.5379464,53.5849294 C99.1503456,53.5849294 99.6460974,53.0891777 99.6460974,52.4767785 C99.6460974,51.8643793 99.1503456,51.3686276 98.5379464,51.3686276 L34.469326,51.3686276 C31.7864343,51.3686276 29.7013609,52.1705789 28.2724294,53.7453197 C26.1290323,56.1220118 26.2748416,59.4173027 26.3185844,59.9276354 L26.3185844,129.493268 C26.3185844,130.105667 26.8143361,130.601418 27.4267353,130.601418 L91.4953557,130.601418 C92.1077549,130.601418 92.6035066,130.105667 92.6035066,129.493268 L92.6035066,110.246436 L90.3872048,110.246436 L90.3872048,110.246436 Z" id="Shape" fill="#FF9D4E"></path>
                </g>
            </g>
        </g>
    </g>
</svg>