<svg width="48" height="48" viewBox="0 0 48 48" xmlns="http://www.w3.org/2000/svg"><title>payment_weixin_36</title><path d="M24 42c-9.926 0-18-8.076-18-18S14.074 6 24 6c9.924 0 18 8.076 18 18s-8.076 18-18 18zm3.682-20.317c.276 0 .55.021.818.052-.737-3.488-4.405-6.076-8.587-6.076-4.68 0-8.513 3.242-8.513 7.36 0 2.374 1.277 4.327 3.407 5.842l-.851 2.602 2.975-1.518c1.064.214 1.917.435 2.982.435.266 0 .53-.013.792-.034a6.593 6.593 0 0 1-.261-1.813c0-3.781 3.193-6.85 7.238-6.85zm-4.008-2.512c.735 0 1.226.347 1.226.876 0 .527-.49.88-1.226.88s-1.474-.353-1.474-.88c0-.53.738-.876 1.474-.876zm-6.295 1.756c-.736 0-1.479-.353-1.479-.88 0-.53.743-.876 1.479-.876.734 0 1.221.347 1.221.876 0 .527-.487.88-1.221.88zM35.7 27.965c0-3.394-3.388-6.16-7.193-6.16-4.031 0-7.207 2.766-7.207 6.16 0 3.401 3.176 6.16 7.207 6.16.843 0 1.692-.212 2.54-.425l2.325 1.276-.639-2.122c1.702-1.278 2.967-2.975 2.967-4.889zm-9.1-.892c-.398 0-.8-.435-.8-.878 0-.438.402-.878.8-.878.604 0 1 .44 1 .878 0 .443-.396.878-1 .878zm4.496 0c-.397 0-.796-.435-.796-.878 0-.438.4-.878.796-.878.601 0 1.004.44 1.004.878 0 .443-.403.878-1.004.878z" fill="#7ED321" fill-rule="evenodd"/></svg>