<svg width="24" height="24" viewBox="0 0 24 24" xmlns="http://www.w3.org/2000/svg"><title>recommoned</title><g fill="#28D424" fill-rule="evenodd"><path d="M12.085 17.37l7.87 3.201V3.632a.405.405 0 0 0-.404-.409H4.63a.405.405 0 0 0-.403.409V20.57l7.857-3.2zM3.013 3.633a1.62 1.62 0 0 1 1.619-1.624H19.55a1.62 1.62 0 0 1 1.62 1.624v17.121c0 .897-.676 1.35-1.5 1.014l-7.586-3.084-7.574 3.084c-.828.337-1.498-.115-1.498-1.014V3.632z"/><path d="M10.646 11.396L9.179 9.967l2.027-.294.906-1.836.906 1.836 2.026.294-1.466 1.43.346 2.017-1.812-.953-1.812.953.346-2.018zm2.863-2.88l.457.332-.141-.286-.316-.046zm-3.252.332l.458-.332-.316.046-.142.287zm3.475 5.839c.84.441 1.622-.125 1.461-1.062l-.31-1.804 1.312-1.279c.68-.662.382-1.58-.558-1.717l-1.812-.263-.81-1.642c-.42-.851-1.386-.852-1.806 0l-.81 1.642-1.812.263c-.94.137-1.239 1.054-.558 1.718l1.31 1.278-.309 1.804c-.16.936.62 1.504 1.461 1.062l1.62-.852 1.621.852z"/></g></svg>