<?xml version="1.0" encoding="UTF-8"?>
<svg width="20px" height="20px" viewBox="0 0 20 20" version="1.1" xmlns="http://www.w3.org/2000/svg" xmlns:xlink="http://www.w3.org/1999/xlink">
    <!-- Generator: Sketch 43 (38999) - http://www.bohemiancoding.com/sketch -->
    <title>search</title>
    <desc>Created with Sketch.</desc>
    <defs></defs>
    <g id="02_shop_0714" stroke="none" stroke-width="1" fill="none" fill-rule="evenodd" opacity="0.5">
        <g id="01_shop" transform="translate(-35.000000, -32.000000)" fill="#FFFFFF">
            <g id="search" transform="translate(35.000000, 32.000000)">
                <g id="搜索-搜索">
                    <path d="M13.9979883,4.17351562 C11.285332,1.45996094 6.88619141,1.45996094 4.17261719,4.17351562 C1.45904297,6.88707031 1.4590625,11.2862109 4.17261719,13.9988867 C6.88578125,16.7122461 11.2847266,16.7122461 13.9979883,13.9991797 L13.9979883,13.9988867 C16.7113477,11.285918 16.7113477,6.88697266 13.9982813,4.17380859 C13.9982813,4.17371094 13.9979883,4.17371094 13.9979883,4.17351563 L13.9979883,4.17351562 Z M2.66074219,15.5107617 C-0.886914062,11.9621289 -0.886914062,6.20949219 2.66074219,2.66074219 C6.20917969,-0.886914063 11.9615234,-0.886914063 15.5107617,2.66074219 C19.0586133,6.20949219 19.0586133,11.9621094 15.5107617,15.5107617 C11.9615234,19.058418 6.20929688,19.058418 2.66076172,15.5107617 L2.66074219,15.5107617 Z M19.6356055,19.6365039 C19.1505273,20.1208984 18.3647266,20.1208984 17.8800391,19.6365039 L16.1253516,17.8809375 C15.6408594,17.3961328 15.6408594,16.6106445 16.1253516,16.1261523 C16.6097461,15.6417773 17.3952344,15.6417773 17.8800391,16.1261523 L19.6356055,17.8809375 C20.1212109,18.3665234 20.1212109,19.1518164 19.6356055,19.6365039 Z" id="Shape"></path>
                </g>
            </g>
        </g>
    </g>
</svg>