<svg width="48" height="48" viewBox="0 0 48 48" xmlns="http://www.w3.org/2000/svg"><title>select_good</title><g fill="none" fill-rule="evenodd"><circle fill="#FFF" cx="24" cy="24" r="24"/><path d="M24 2.667c-11.733 0-21.333 9.6-21.333 21.333 0 11.733 9.6 21.333 21.333 21.333 11.733 0 21.333-9.6 21.333-21.333 0-11.733-9.6-21.333-21.333-21.333zm14.293 16.64L21.227 34.24c-.427.213-1.067.427-1.494.427-.64 0-1.066-.214-1.493-.64l-8.533-8.534c-.854-.853-.854-2.133 0-2.986.853-.854 2.133-.854 2.986 0l7.04 7.04 15.574-13.654c.853-.853 2.133-.64 2.986.214.854 1.066.854 2.346 0 3.2z" fill-rule="nonzero" fill="#FF7819"/></g></svg>