<svg width="32" height="32" viewBox="0 0 32 32" xmlns="http://www.w3.org/2000/svg"><title>service</title><path d="M12.6 11.553c-4.7 0-8.6 3.23-8.6 7.27 0 1.917 1 3.836 2.7 5.148.1.101.1.303.1.404l-.5 1.615a.79.79 0 0 0 .2.808c.1.101.3.202.5.202h.3l2.9-1.11h.2c.8.1 1.5.201 2.2.201 4.7 0 8.6-3.23 8.6-7.269 0-4.038-3.9-7.27-8.6-7.27zm-1.9 12.822c-.4-.1-.8 0-1.1.101l-1.5.606.1-.202c.2-.808 0-1.515-.6-2.02-1.4-1.11-2.1-2.523-2.1-4.038 0-3.13 3.2-5.755 7.1-5.755 3.9 0 7.1 2.524 7.1 5.755 0 3.635-4.3 6.563-9 5.553zM28 13.269C28 9.231 24.1 6 19.4 6c-3.1 0-6 1.413-7.5 3.736-.2.302-.1.807.2 1.01.3.201.8.1 1-.203 1.3-1.817 3.7-3.029 6.3-3.029 3.9 0 7.1 2.625 7.1 5.755 0 1.515-.8 2.928-2.1 4.039-.6.504-.8 1.312-.6 2.019l.1.202-.9-.404c-.4-.202-.9 0-1 .404-.2.404 0 .909.4 1.01l2.3.807c.1.101.2.101.3.101.1 0 .3 0 .6-.1a.79.79 0 0 0 .2-.809l-.5-1.615c-.1-.202 0-.303.1-.404 1.7-1.413 2.6-3.23 2.6-5.25zM8.8 17.812c-.6 0-1.1.505-1.1 1.111s.5 1.11 1.1 1.11c.6 0 1.1-.504 1.1-1.11 0-.606-.5-1.11-1.1-1.11zm3.7 0c-.6 0-1.1.505-1.1 1.111s.5 1.11 1.1 1.11c.6 0 1.1-.504 1.1-1.11 0-.606-.5-1.11-1.1-1.11zm3.8 0c-.6 0-1.1.505-1.1 1.111s.5 1.11 1.1 1.11c.6 0 1.1-.504 1.1-1.11 0-.606-.5-1.11-1.1-1.11z" fill-rule="nonzero" fill="#FFF"/></svg>