<svg width="32" height="45" viewBox="0 0 32 45" xmlns="http://www.w3.org/2000/svg"><title>set</title><g stroke-width=".5" stroke="#FFF" fill="#FFF" fill-rule="evenodd"><path d="M18.383 30.82c-.29 0-.573-.127-.755-.338-.249-.286-1.036-1.029-1.681-1.029-.64 0-1.44.748-1.67 1.01a1.008 1.008 0 0 1-.75.33.912.912 0 0 1-.385-.081l-.02-.01-1.96-1.149-.02-.014a1.016 1.016 0 0 1-.316-1.191c.002-.003.181-.438.181-.833 0-1.201-.932-2.178-2.077-2.178h-.07a.54.54 0 0 1-.012 0c-.328 0-.595-.306-.68-.779C8.16 24.52 8 23.623 8 22.916c0-.706.16-1.604.167-1.641.087-.48.36-.787.693-.779h.07c1.145 0 2.077-.977 2.077-2.178 0-.396-.18-.83-.18-.834a1.013 1.013 0 0 1 .317-1.19l.02-.015 2.069-1.19.021-.01a.923.923 0 0 1 .38-.079c.287 0 .568.121.752.324.244.269 1.018.968 1.644.968.62 0 1.39-.685 1.634-.95.182-.198.461-.317.746-.317a.92.92 0 0 1 .386.081l.02.01 1.998 1.163.02.015c.357.261.494.773.317 1.191-.002.003-.181.437-.181.833 0 1.201.932 2.178 2.077 2.178h.07c.333-.008.607.3.693.778.007.038.167.936.167 1.642 0 .707-.16 1.604-.167 1.642-.087.48-.36.786-.693.779h-.07c-1.145 0-2.077.977-2.077 2.178 0 .395.18.83.181.834.177.416.04.928-.318 1.19l-.02.014-2.03 1.178-.022.01a.91.91 0 0 1-.378.078zm-.061-1.004a.125.125 0 0 0 .064.017l1.898-1.1c-.046-.112-.255-.653-.255-1.218 0-1.69 1.269-3.074 2.86-3.16.023-.133.147-.879.147-1.439s-.124-1.305-.147-1.438c-1.591-.086-2.86-1.47-2.86-3.16 0-.566.21-1.108.256-1.219l-1.867-1.087h-.008a.144.144 0 0 0-.072.019 5.335 5.335 0 0 1-.69.608c-.576.424-1.12.64-1.618.64-.502 0-1.05-.22-1.63-.653a5.366 5.366 0 0 1-.694-.62.144.144 0 0 0-.079-.02l-1.934 1.115c.046.113.255.653.255 1.217 0 1.69-1.269 3.074-2.86 3.16-.023.133-.147.879-.147 1.438 0 .56.124 1.305.147 1.438 1.591.087 2.86 1.471 2.86 3.16 0 .568-.21 1.11-.256 1.22l1.83 1.073h.005a.12.12 0 0 0 .06-.016 5.5 5.5 0 0 1 .702-.645c.587-.45 1.145-.68 1.658-.68.518 0 1.08.234 1.67.693.396.309.67.618.705.657z"/><path d="M15.766 25.801c-1.525 0-2.766-1.3-2.766-2.9C13 21.3 14.241 20 15.766 20c1.526 0 2.767 1.301 2.767 2.9 0 1.6-1.241 2.901-2.767 2.901zm0-4.814c-1.006 0-1.825.858-1.825 1.914 0 1.055.819 1.914 1.825 1.914 1.007 0 1.826-.859 1.826-1.914 0-1.056-.819-1.914-1.826-1.914z"/></g></svg>