<svg width="32" height="32" viewBox="0 0 32 32" xmlns="http://www.w3.org/2000/svg"><title>shop_invite_promoter</title><g fill="#606060" fill-rule="evenodd"><path d="M8.157 27.642a2.552 2.552 0 0 1-2.552-2.546v-4.727a1.136 1.136 0 1 1 2.273 0v4.727c0 .146.13.273.28.273H24.85a.277.277 0 0 0 .271-.273v-4.727a1.136 1.136 0 1 1 2.273 0v4.727a2.55 2.55 0 0 1-2.542 2.546H8.157zM9.133 18.92H9.13c-.889 0-1.686-.18-2.369-.534l-.03-.015-.022-.013a5.124 5.124 0 0 1-2.459-6.108l.004-.017.023-.1 2.234-5.28C6.901 5.71 7.962 5 9.284 5h14.493a3.22 3.22 0 0 1 1.738.487c.53.34.917.832 1.116 1.42l2.066 5.143.037.092.024.12A5.03 5.03 0 0 1 29 13.815v.003a5.13 5.13 0 0 1-2.672 4.506c-.697.382-1.52.58-2.447.584h-.007a5.11 5.11 0 0 1-3.704-1.579 5.105 5.105 0 0 1-3.65 1.582h-.02a5.126 5.126 0 0 1-3.67-1.578 5.12 5.12 0 0 1-3.695 1.586h-.002zm-1.304-2.54c.353.177.79.267 1.3.268a2.85 2.85 0 0 0 2.177-1.017 1.987 1.987 0 0 1 3.046-.003c.533.634 1.318 1.002 2.156 1.01a2.833 2.833 0 0 0 2.138-1.01c.379-.452.934-.711 1.524-.711s1.145.258 1.524.71a2.84 2.84 0 0 0 2.178 1.01c.543-.004 1.002-.107 1.365-.305a2.86 2.86 0 0 0 1.49-2.513v-.011a2.727 2.727 0 0 0-.134-.856 1.99 1.99 0 0 1-.044-.151l-2.03-5.054a1.984 1.984 0 0 1-.04-.109c-.113-.338-.568-.365-.704-.365H9.284c-.235 0-.533.054-.62.313a2.007 2.007 0 0 1-.054.144l-2.163 5.11a1.982 1.982 0 0 1-.03.1 2.854 2.854 0 0 0 1.412 3.44z"/><path d="M22.608 12.443H10.392a1.136 1.136 0 0 1 0-2.273h12.216a1.136 1.136 0 1 1 0 2.273z"/></g></svg>