<svg width="32" height="32" viewBox="0 0 32 32" xmlns="http://www.w3.org/2000/svg"><title>shop_edite</title><path d="M25.876 10.85l-11.6 11.495-3.058 1.371 1.16-2.953 11.705-11.6c.317-.421.633.106.633.106l1.055 1.055c.421.316.105.527.105.527zm-15.712 1.266c-.633 0-1.055.422-1.055 1.055v11.6c0 .632.422 1.054 1.055 1.054h11.6c.632 0 1.054-.422 1.054-1.054v-6.328l2.109-2.109v10.44c0 1.16 0 1.16-1.16 1.16H8.16c-1.16 0-1.16 0-1.16-1.16V11.167c0-.633 0-1.16 1.16-1.16h11.494l-2.109 2.11h-7.381z" fill="#FF7819" fill-rule="evenodd"/></svg>