<svg width="24" height="24" viewBox="0 0 24 24" xmlns="http://www.w3.org/2000/svg"><title>shop_order copy</title><path d="M19.727 20.754H7.633v-1.25h9.676c.666 0 1.21-.56 1.21-1.248V5.766h1.208v14.988zm-12.75-3.747a.616.616 0 0 1-.604-.625c0-.344.272-.624.605-.624h8.516c.332 0 .605.28.605.624a.616.616 0 0 1-.605.625H6.978zm0-4.996h8.517c.332 0 .605.28.605.624a.616.616 0 0 1-.605.625H6.978a.616.616 0 0 1-.605-.625c0-.344.272-.624.605-.624zm0-3.748h8.517c.332 0 .605.281.605.625a.616.616 0 0 1-.605.625H6.978a.616.616 0 0 1-.605-.625c0-.344.272-.625.605-.625zm3.628-3.747h4.889c.332 0 .605.281.605.625a.616.616 0 0 1-.605.624h-4.889a.616.616 0 0 1-.604-.624c0-.344.272-.625.604-.625zm9.122 0h-1.208V3.267c0-.688-.544-1.249-1.21-1.249H5.215c-.669 0-1.21.561-1.21 1.25v14.988c0 .688.541 1.249 1.21 1.249h1.208v1.249c0 .688.544 1.25 1.21 1.25h12.094c.668 0 1.21-.562 1.21-1.25V5.765c0-.688-.542-1.249-1.21-1.249z" fill-rule="nonzero" fill="#00BCD4"/></svg>