<svg width="32" height="32" viewBox="0 0 32 32" xmlns="http://www.w3.org/2000/svg"><title>spread</title><g fill="none" fill-rule="evenodd"><circle fill="#E22A24" cx="16" cy="16" r="16"/><g fill-rule="nonzero" fill="#FFF"><path d="M19.086 11.771c2.628 0 4.571-.914 4.914-1.828C24 8.8 21.714 8 19.086 8c-2.743 0-5.029.8-5.029 1.943.343.914 2.286 1.828 5.029 1.828zM19.086 19.2c-.343 0-.8 0-1.143-.114V21.6h1.143C21.829 21.6 24 20.914 24 20v-2.057c-1.143.8-2.857 1.257-4.914 1.257zM19.086 15.886c-.343 0-.8 0-1.143-.115v2.515c.343 0 .8.114 1.143.114 2.628 0 4.571-.914 4.914-1.829V14.63c-1.143.8-2.857 1.257-4.914 1.257z"/><path d="M19.086 12.571c-2.172 0-3.886-.571-5.029-1.257v1.257c2.286.229 4.343 1.029 4.457 2.515h.457c2.629 0 4.572-.915 4.915-1.829v-1.943c-1.029.686-2.743 1.257-4.8 1.257z"/><path d="M12.914 16.914c2.629 0 4.572-.914 4.915-1.828 0-1.029-2.172-1.943-4.915-1.943-2.628.114-4.914.914-4.914 1.943.343 1.028 2.286 1.828 4.914 1.828z"/><path d="M12.914 20.571c2.629 0 4.572-.914 4.915-1.828v-2.057c-1.029.8-2.743 1.257-4.915 1.257-2.171 0-3.771-.457-4.914-1.257v2.057c.343.914 2.286 1.828 4.914 1.828z"/><path d="M12.914 21.6c-2.057 0-3.885-.457-4.914-1.257V22.4c0 .914 2.286 1.6 4.914 1.6 2.629 0 4.915-.686 4.915-1.6v-2.057c-1.029.686-2.743 1.257-4.915 1.257z"/></g></g></svg>