<svg width="36" height="33" viewBox="0 0 36 33" xmlns="http://www.w3.org/2000/svg"><title>thumbnails</title><g fill="none" fill-rule="evenodd"><path d="M20.382 25.664c0-.705.095-1.387.257-2.042H4.713v-7.867l4.688-4.72 7.814 7.867 4.688-4.721 3.632 3.657a8.344 8.344 0 0 1 3.286-.671c.855 0 1.68.13 2.46.37V1.594c0-.87-.7-1.574-1.563-1.574H1.587C.724.02.024.724.024 1.594V26.77c0 .868.7 1.572 1.563 1.572h19.232a8.501 8.501 0 0 1-.437-2.678zM23.466 4.74a3.136 3.136 0 0 1 3.126 3.147c0 1.738-1.4 3.146-3.126 3.146s-3.125-1.409-3.125-3.146c0-1.739 1.399-3.147 3.125-3.147z" fill="#AAA"/><path d="M28.82 19.055c-3.624 0-6.563 2.959-6.563 6.609s2.939 6.608 6.564 6.608 6.563-2.958 6.563-6.608c0-3.65-2.938-6.609-6.563-6.609zm1.206 10.541h-2.41v-.944h2.41v.944zm0-4.573V27.7h-2.41v-2.677h-1.809l3.014-3.035 3.013 3.035h-1.808z" fill="#FF7819"/></g></svg>