<svg width="85" height="85" viewBox="0 0 85 85" xmlns="http://www.w3.org/2000/svg"><title>形状</title><path d="M84.016 8.811L32.905 59.458l-13.475 6.04 5.11-13.01L76.118 1.377c1.394-1.859 2.788.465 2.788.465l4.647 4.646c1.858 1.394.464 2.323.464 2.323zm-69.233 5.576c-2.788 0-4.646 1.859-4.646 4.647v51.111c0 2.788 1.858 4.647 4.646 4.647h51.112c2.788 0 4.646-1.859 4.646-4.647V42.266l9.293-9.293v46c0 5.112 0 5.112-5.11 5.112H5.953c-5.11 0-5.11 0-5.11-5.111V10.205c0-2.788 0-5.11 5.11-5.11h50.648l-9.293 9.292H14.783z" fill="#D0011B" fill-rule="evenodd"/></svg>